<?xml version="1.0" encoding="utf-8"?>
<!-- Generator: Adobe Illustrator 18.1.1, SVG Export Plug-In . SVG Version: 6.00 Build 0)  -->
<svg version="1.1" id="Calque_1" xmlns="http://www.w3.org/2000/svg" xmlns:xlink="http://www.w3.org/1999/xlink" x="0px" y="0px"
	 viewBox="186.8 109 80.2 100" enable-background="new 186.8 109 80.2 100" xml:space="preserve">
<g>
	<g>
		<path fill="#FFFFFF" d="M222.7,153.1c0-1.2,0-2.3,0-3.5c0-0.2,0-0.3,0-0.5c0,0.1-0.1,0.3-0.2,0.4c-0.1,0.1-0.2,0.3-0.2,0.4
			c-0.1,0.2-0.3,0.4-0.4,0.6c-0.1,0.2-0.3,0.5-0.5,0.7c-0.1,0.1-0.2,0.2-0.2,0.3c-0.1,0.2-0.3,0.4-0.4,0.6c-0.3,0.4-0.3,1,0.1,1.4
			c0.2,0.2,0.5,0.3,0.7,0.5c0.2,0.2,0.3,0.5,0.3,0.8c0.2-0.3,0.4-0.5,0.5-0.8C222.5,153.8,222.7,153.5,222.7,153.1z"/>
	</g>
	<g>
		<g>
			<path fill="#FFFFFF" d="M266.4,128.1C266.4,128.1,266.4,128.1,266.4,128.1c-0.1-0.2-0.2-0.3-0.3-0.5c-0.1-0.2-0.2-0.4-0.4-0.6
				c-0.2-0.3-0.4-0.6-0.6-0.8c-0.5-0.6-1.2-1-1.9-1.4c-1.2-0.6-2.5-0.7-3.8-0.5c-0.5,0.1-0.9,0.1-1.4,0.2c-0.1,0-0.2,0-0.4,0.1
				c-0.1,0-0.2,0-0.2,0c-0.1,0-0.1-0.1-0.2-0.2c-0.1-0.2-0.2-0.3-0.3-0.5c-0.9-1.2-1.8-2.4-2.8-3.5c-2-2.2-4.3-4.2-6.8-5.8
				c-2.5-1.7-5.3-3-8.2-3.9c-3-1-6.1-1.5-9.2-1.7c-3.2-0.1-6.3,0.2-9.4,0.9c-3,0.7-5.8,1.8-8.5,3.2c-2.6,1.4-5.1,3.2-7.3,5.2
				c-1.1,1-2.1,2.1-3.1,3.3c-0.5,0.6-0.9,1.2-1.4,1.8c-0.2,0.3-0.4,0.6-0.6,0.9c-0.1,0.2-0.2,0.3-0.3,0.5c0,0.1-0.1,0.2-0.1,0.2
				c-0.1,0.1-0.1,0-0.1,0c-0.1,0-0.1,0-0.1,0c-0.4,0-0.8,0.1-1.2,0.2c-0.9,0.1-1.8,0.3-2.7,0.4c-1.6,0.2-3.2,0.4-4.8,0.7
				c-0.3,0-0.6,0.1-0.9,0.2c-0.3,0.2-0.7,0.4-0.9,0.7c-0.1,0.1-0.2,0.3-0.3,0.4c-0.1,0.1-0.1,0.2-0.1,0.3c-0.1,0.1-0.1,0.1-0.2,0.2
				c-1.1,1-1.2,2.9-0.1,4c0.5,0.5,1.1,0.7,1.7,0.8c0.2,0,0.4,0,0.5,0.2c0.1,0.2,0.1,0.3,0.2,0.5c0.2,0.6,0.5,1.2,0.7,1.8
				c0.5,1.3,1,2.6,1.4,4c0.4,1.3,0.8,2.6,1.1,4c0.2,0.6,0.3,1.3,0.4,2c0.1,0.4,0.2,0.9,0.2,1.4c0.1,0.4,0.2,0.8,0.2,1.2
				c0,1.7,0,3.4,0,5.1c0,0.7,0,1.5,0,2.2c0,0.5,0,1,0,1.4c0,0.1,0,0.2,0,0.3c0,0.1-0.1,0.1-0.2,0.2c-0.1,0.1-0.2,0.2-0.2,0.2
				c-0.1,0.2-0.3,0.3-0.4,0.5c-0.1,0.2-0.2,0.2-0.3,0.3c-0.6,0.5-0.9,1.3-0.9,2.1c0.1,1.4,1.2,2.6,2.7,2.6c0.3,0,0.5-0.1,0.8-0.1
				c0.4-0.1,0.9-0.1,1.3-0.2c0.5-0.1,1-0.1,1.4-0.2c0.2,0,0.3-0.1,0.5-0.1c0.1,0,0.2-0.1,0.2,0c0.1,0,0.1,0.3,0.2,0.3
				c0.1,0.2,0.2,0.3,0.2,0.5c0.2,0.3,0.3,0.7,0.5,1.1c0.3,0.7,0.7,1.4,1,2.1c0.7,1.4,1.5,2.8,2.2,4.3c1.5,2.9,3.1,5.7,4.8,8.5
				c1.6,2.8,3.3,5.5,5,8.3c1.6,2.5,3.2,5.1,4.9,7.6c1.4,2.2,2.9,4.3,4.4,6.5c1.1,1.6,2.3,3.3,3.4,4.9c0.4,0.6,0.8,1.2,1.3,1.8
				c0.2,0.2,0.3,0.4,0.5,0.7c0.1,0.1,0.1,0.2,0.2,0.3c0.1,0.2,0.3,0.3,0.5,0.3c0.3,0.1,0.6,0,0.8-0.1c0.1-0.1,0.2-0.2,0.2-0.3
				c0.1-0.2,0.3-0.4,0.4-0.6c0.3-0.5,0.7-1,1-1.4c1-1.3,1.9-2.6,2.8-4c1.2-1.7,2.4-3.5,3.6-5.3c1.4-2.1,2.8-4.2,4.1-6.2
				c1.5-2.3,3-4.6,4.4-7c1.5-2.4,3-4.9,4.4-7.4c1.4-2.5,2.8-5,4.2-7.5c1.3-2.4,2.5-4.9,3.6-7.4c1.1-2.3,2-4.6,2.9-7
				c0.2-0.6,0.4-1.1,0.6-1.7c0-0.1,0.1-0.3,0.2-0.4c0.2-0.1,0.4-0.2,0.6-0.3c0.3-0.2,0.7-0.4,1-0.6c0.6-0.5,1.3-1.1,1.7-1.8
				c0.1-0.2,0.2-0.3,0.3-0.5c0.2-0.3,0.5-0.6,0.7-0.9c0.8-1.3,1.3-2.8,1.3-4.3c0-0.3,0-0.7,0-1c0-1.7,0-3.5,0-5.2c0-1.9,0-3.7,0-5.6
				c0-0.5,0-1,0-1.5c0-0.1,0-0.2,0-0.3C266.9,129.9,266.7,129,266.4,128.1z M229.1,156.5c-0.9,0.1-1.8,0.3-2.8,0.4
				c-1.1,0.2-2.3,0.3-3.4,0.5c-0.8,0.1-1.6-0.4-1.6-1.3c-0.2,0.3-0.4,0.6-0.6,0.9c-0.2,0.3-0.5,0.6-0.8,0.8
				c-0.3,0.1-0.6,0.1-0.9,0.2c-1.2,0.2-2.5,0.4-3.7,0.5c-0.5,0.1-1,0.2-1.5,0.2c-0.1,0-0.2,0-0.3,0.1c-0.1,0-0.1,0-0.2,0
				c-0.1,0-0.3,0-0.4-0.1c-0.1-0.1-0.3-0.1-0.4-0.2c-0.3-0.1-0.6,0-0.8,0.1c-0.2,0.1-0.4,0.3-0.7,0.4c-0.2,0.1-0.3,0.1-0.5,0.1
				c-0.6,0.1-1.1,0.2-1.7,0.2c-0.6,0.1-1.2,0.2-1.9,0.3c-0.5,0.1-1,0.2-1.4-0.2c-0.2-0.1-0.3-0.3-0.4-0.5c-0.1,0.1-0.2,0.3-0.3,0.4
				c-0.1,0.1-0.2,0.3-0.4,0.4c-0.2,0.2-0.4,0.2-0.7,0.3c-0.2,0-0.3,0.1-0.5,0.1c-0.8,0.1-1.7,0.2-2.6,0.4c-1.8,0.3-3.6,0.5-5.4,0.8
				c-0.3,0-0.5,0.1-0.8,0c-0.7-0.2-1.2-1-1.1-1.7c0.1-0.4,0.3-0.7,0.7-1c0.1-0.1,0.2-0.2,0.3-0.4c0.1-0.2,0.2-0.4,0.4-0.6
				c0.3-0.3,0.5-0.6,0.5-1c0-0.2,0-0.4,0-0.6c0-1.4,0-2.7,0-4.1c0-1.6,0-3.2,0-4.8c0-0.3-0.1-0.7-0.1-1c-0.1-0.4-0.1-0.7-0.2-1.1
				c-0.1-0.7-0.3-1.4-0.4-2.1c-0.2-0.7-0.4-1.4-0.6-2.1c-0.2-0.7-0.4-1.4-0.6-2.1c-0.5-1.5-1-2.9-1.5-4.4c-0.2-0.7-0.5-1.3-0.8-1.9
				c-0.1-0.2-0.2-0.5-0.4-0.6c-0.3-0.2-0.6-0.3-0.9-0.3c-0.3-0.1-0.6-0.1-0.8-0.2c-0.3-0.2-0.6-0.4-0.7-0.8
				c-0.1-0.4-0.1-0.8,0.1-1.2c0.1-0.2,0.2-0.3,0.3-0.4c0.2-0.2,0.3-0.3,0.5-0.5c0.1-0.2,0.2-0.3,0.3-0.5c0.1-0.2,0.3-0.3,0.5-0.4
				c0.2-0.1,0.3-0.2,0.5-0.2c0.6-0.1,1.1-0.2,1.7-0.2c2-0.3,4-0.6,6-0.8c0.3,0,0.6-0.1,0.8-0.1c0.1,0,0.1,0,0.2,0
				c0.3,0,0.6,0.1,0.9,0c0.3-0.1,0.5-0.2,0.7-0.2c0.1,0,0.1,0,0.2,0c0.3,0,0.6-0.1,0.8-0.1c2-0.3,4-0.6,6-0.8
				c0.6-0.1,1.1-0.2,1.6-0.2c0.6-0.1,1.2,0.2,1.5,0.7c0.2,0.4,0.3,0.8,0.2,1.2c-0.1,0.2-0.2,0.4-0.3,0.5c-0.1,0.2-0.3,0.3-0.5,0.4
				c-0.1,0.1-0.2,0.3-0.3,0.4c-0.1,0.1-0.2,0.3-0.3,0.4c-0.3,0.3-0.7,0.4-0.9,0.7c-0.1,0.2-0.3,0.3-0.4,0.4
				c-0.2,0.2-0.3,0.4-0.4,0.7c-0.2,0.7-0.4,1.3-0.7,2c-0.3,0.8-0.5,1.6-0.8,2.3c-0.2,0.7-0.4,1.4-0.6,2.1c-0.4,1.4-0.7,2.8-1,4.2
				s-0.5,2.8-0.8,4.3c-0.1,0.3-0.1,0.7-0.1,1c0,0.2,0,0.3,0,0.5c0,0.9,0,1.7,0,2.6c0,1.8,0,3.6,0,5.4c0,0.2,0,0.4,0.1,0.7
				c0.1,0.3,0.4,0.6,0.7,0.7c0.4,0.2,0.7,0.3,1,0.7c0.1-0.1,0.2-0.2,0.2-0.4c0.1-0.2,0.1-0.3,0.3-0.4c0.1-0.1,0.3-0.2,0.3-0.4
				c0.1-0.1,0.1-0.3,0.2-0.4c0-0.1,0-0.1,0-0.2c0.1-0.4,0.1-0.8,0.2-1.2c0.2-1.6,0.5-3.2,0.7-4.8c0.3-1.9,0.6-3.8,0.8-5.8
				c0.2-1.4,0.4-2.8,0.6-4.2c0-0.2,0.1-0.5,0.1-0.7c0-0.2,0-0.5-0.1-0.7c-0.2-0.3-0.5-0.5-0.7-0.8c-0.2-0.3-0.3-0.7-0.2-1.1
				c0.1-0.2,0.2-0.4,0.3-0.6c0.2-0.3,0.5-0.7,0.7-1c0.1-0.1,0.1-0.2,0.2-0.3c0.1-0.2,0.2-0.3,0.4-0.4c0.2-0.1,0.4-0.2,0.6-0.2
				c0.5-0.1,1.1-0.2,1.6-0.2c1.7-0.2,3.3-0.5,5-0.7c0.3,0,0.5-0.1,0.8,0c0.8,0.2,1.2,1.1,0.9,1.9c-0.1,0.3-0.3,0.5-0.5,0.7
				c-0.1,0.2-0.2,0.3-0.3,0.5c-0.2,0.3-0.2,0.6-0.2,1c0.2,1.6,0.5,3.2,0.7,4.9c0.1,0.6,0.2,1.2,0.3,1.8c0.1,0.4,0.3,0.8,0.7,1
				c0.2,0.1,0.3,0.1,0.5,0.1c0.2,0.1,0.4,0.1,0.7,0.2c0.4,0.1,0.8,0.3,1.1,0.6c0.5,0.4,1.1,1,1.2,1.6c0-1.2,0-2.5,0-3.7
				c0-1.8,0-3.6,0-5.4c0-0.5,0.1-1-0.2-1.5c-0.2-0.3-0.6-0.4-0.9-0.7c-0.2-0.3-0.4-0.7-0.3-1c0-0.5,0.4-0.9,0.7-1.3
				c0.1-0.2,0.2-0.3,0.3-0.5c0.1-0.1,0.1-0.1,0.1-0.2c0.1-0.2,0.2-0.3,0.4-0.5c0.3-0.2,0.5-0.3,0.8-0.3c0.8-0.1,1.5-0.2,2.3-0.3
				c1-0.1,1.9-0.3,2.9-0.4c0.6-0.1,1.2-0.2,1.8-0.2c0.1,0,0.2,0,0.4,0c0.2,0,0.4,0,0.6,0c0,0,0,0,0,0c0.8,0.1,1.6,0.3,2.3,0.7
				c0.7,0.4,1.3,0.9,1.8,1.6c0.2,0.3,0.4,0.6,0.6,1c0.2,0.3,0.3,0.7,0.4,1.1c0.3,0.7,0.4,1.5,0.4,2.3c0,1.2,0,2.5,0,3.7
				c0,1.8,0,3.6,0,5.4c0,0.4,0,0.7,0,1.1c0,1.7-0.6,3.3-1.5,4.7c-0.2,0.2-0.3,0.4-0.4,0.6c-0.1,0.2-0.3,0.4-0.4,0.6
				c-0.3,0.5-0.7,1-1.2,1.5c-1.1,1.1-2.5,1.9-4,2.2C229.5,156.5,229.3,156.5,229.1,156.5z M265.7,144.4c0,1.2-0.3,2.4-0.9,3.4
				c-0.2,0.4-0.5,0.8-0.8,1.2c-0.2,0.3-0.4,0.6-0.6,0.8c-0.7,0.8-1.5,1.5-2.5,2c-0.7,0.3-1.3,0.4-2,0.5c-0.5,0.1-1.1,0.2-1.6,0.2
				c-1,0.1-2,0-2.8-0.4c-1.7-0.8-2.7-2.5-2.9-4.4c-0.1-0.5,0-1.1,0-1.6c0-0.6,0-1.2,0-1.8c0,0,0-0.1,0-0.1c0,0.1-0.1,0.2-0.2,0.3
				c-0.1,0.1-0.2,0.2-0.4,0.3c-0.3,0.2-0.6,0.4-0.8,0.7c-0.2,0.3-0.3,0.6-0.4,1c-0.1,0.3-0.2,0.7-0.2,1c0,0.6-0.1,1.3,0.4,1.7
				c0.2,0.2,0.5,0.3,0.7,0.4c0.2,0.2,0.4,0.5,0.5,0.8c0.1,0.3,0.1,0.6,0,0.9c-0.1,0.2-0.3,0.4-0.4,0.6c-0.2,0.3-0.4,0.5-0.5,0.8
				c-0.2,0.3-0.4,0.6-0.8,0.8c-0.2,0.1-0.3,0.1-0.5,0.2c-0.9,0.1-1.8,0.3-2.7,0.4c-1.5,0.2-3,0.4-4.5,0.7c-1.1,0.2-2.2,0.3-3.4,0.5
				c-0.3,0.1-0.6,0.1-1,0c-0.5-0.2-0.8-0.6-0.9-1.1c-0.1-0.5,0.1-0.8,0.4-1.2c0.2-0.3,0.4-0.6,0.6-0.9c0.2-0.3,0.4-0.7,0.4-1.1
				c0-0.1,0-0.3,0-0.4c0-0.9,0-1.9,0-2.8c0-1.5,0-2.9,0-4.3c0-1.5,0-3,0-4.6c0-1.2,0-2.3,0-3.5c0-0.7,0.1-1.6-0.4-2
				c-0.2-0.1-0.3-0.2-0.5-0.3c-0.1-0.1-0.2-0.2-0.2-0.3c-0.2-0.3-0.3-0.7-0.3-1s0.3-0.7,0.4-1c0.2-0.3,0.4-0.5,0.5-0.8
				c0.2-0.2,0.3-0.5,0.5-0.7c0.2-0.2,0.4-0.3,0.7-0.3c0.1,0,0.2,0,0.3,0c0.6-0.1,1.1-0.2,1.7-0.2c1.3-0.2,2.6-0.4,4-0.6
				c0.6-0.1,1.3,0,1.7,0.6c0.4,0.6,0.3,1.2-0.1,1.8c-0.2,0.2-0.3,0.5-0.5,0.7c-0.2,0.3-0.4,0.5-0.5,0.8c-0.1,0.2-0.1,0.3-0.1,0.5
				c0,0.4,0,0.8,0,1.1c0,1.4,0,2.9,0,4.3c0,1.3,0,2.5,0,3.8c0,0.3,0,0.7,0.1,1c0.2,0.6,0.9,0.8,1.5,0.7c0.3-0.1,0.5-0.3,0.8-0.5
				c0.2-0.2,0.5-0.4,0.8-0.6c0.5-0.3,1.1-0.6,1.6-0.9c0.3-0.1,0.6-0.2,0.9-0.3c0.2-0.1,0.3-0.1,0.4-0.1c0.2,0,0.3-0.1,0.4,0
				c0-1,0-1.9,0-2.9c0-1.3,0-2.6,0-3.9c0-0.7,0.1-1.3,0.2-2c0.3-1,0.8-1.9,1.4-2.8c0.1-0.2,0.2-0.3,0.3-0.5c0.2-0.2,0.3-0.5,0.5-0.7
				c0.4-0.4,0.8-0.8,1.3-1.2c0.8-0.5,1.7-0.8,2.6-1c0.6-0.1,1.2-0.2,1.9-0.3c0.9-0.1,1.9,0,2.7,0.3c2,0.8,3.3,3,3.3,5.2
				c0,0.7,0,1.4,0,2.2c0,1.4,0,2.8,0,4.3c0,1.5,0,2.9,0,4.4C265.7,142.6,265.7,143.4,265.7,144.4
				C265.7,144.3,265.7,144.3,265.7,144.4z"/>
		</g>
	</g>
	<g>
		<g>
			<g>
				<path fill="#FFFFFF" d="M257.5,147.4c0.1,0.3,0.3,0.7,0.6,0.8c0.3,0.1,0.6,0.2,0.9,0.1c0.7-0.1,1.3-0.7,1.4-1.4
					c0.1-0.3,0.1-0.6,0.1-0.9c0-1.2,0-2.4,0-3.6c0-1.8,0-3.6,0-5.3c0-1.6,0-3.3,0-4.9c0-0.8,0-1.6,0-2.3c0-0.6-0.3-1.1-0.9-1.3
					c-0.6-0.2-1.2,0-1.6,0.4c-0.4,0.4-0.6,1-0.6,1.5c0,1.1,0,2.1,0,3.2c0,1.7,0,3.5,0,5.2c0,1.7,0,3.4,0,5.1c0,0.9,0,1.9,0,2.8
					C257.5,147.1,257.5,147.2,257.5,147.4z M257.7,130.3c0-0.1,0-0.2,0-0.3c0-0.1,0.2-0.1,0.2-0.1c0.1,0,0.2,0,0.3-0.1
					c0.3,0,0.5,0,0.7,0.2c0.3,0.2,0.5,0.6,0.5,1c0,0.2,0,0.4,0,0.7c0,1.2,0,2.4,0,3.6c0,1.7,0,3.4,0,5.1c0,1.6,0,3.1,0,4.7
					c0,0.8,0,1.6,0,2.4c0,0,0,0,0,0.1c0,0,0,0,0,0.1c0,0.1,0,0.2-0.1,0.2c-0.1,0.1-0.3,0.1-0.4,0.1c-0.6,0.1-1.2-0.3-1.2-1
					c0-0.2,0-0.4,0-0.6c0-1.1,0-2.3,0-3.4c0-1.7,0-3.4,0-5.1c0-1.6,0-3.2,0-4.8c0-0.9,0-1.8,0-2.7
					C257.7,130.4,257.7,130.4,257.7,130.3z"/>
			</g>
		</g>
		<g>
			<g>
				<path fill="#FFFFFF" d="M254.2,129.7c-0.5,0.7-1,1.4-1.2,2.2c-0.2,0.6-0.3,1.2-0.3,1.8c0,0.4,0,0.9,0,1.3c0,2,0,3.9,0,5.9
					c0,1.8,0,3.6,0,5.4c0,0.5,0,1,0.1,1.5c0.2,1.4,1,2.7,2.3,3.3c0.7,0.3,1.4,0.4,2.1,0.3c0.4-0.1,0.8-0.1,1.1-0.2
					c0.4-0.1,0.8-0.1,1.2-0.2c0.8-0.2,1.6-0.6,2.2-1.1c0.3-0.3,0.6-0.6,0.9-1c0.2-0.3,0.4-0.6,0.7-0.9c0.6-0.7,1-1.6,1.2-2.4
					c0.1-0.6,0.1-1.2,0.1-1.8c0-1.8,0-3.5,0-5.3c0-2,0-4,0-6c0-0.5,0-1,0-1.4c0-1.4-0.5-2.8-1.7-3.6c-0.7-0.5-1.5-0.7-2.3-0.7
					c-0.5,0-1,0.1-1.4,0.2c-0.4,0.1-0.8,0.1-1.2,0.2c-0.8,0.1-1.5,0.4-2.1,0.9C255.1,128.3,254.6,129,254.2,129.7
					C254.2,129.7,255,128.3,254.2,129.7z M258,127.2c0.7-0.1,1.5-0.2,2.2-0.3c0.9-0.1,1.8,0.1,2.5,0.6c0.7,0.5,1.2,1.3,1.5,2.1
					c0.2,0.6,0.2,1.2,0.2,1.9c0,0.7,0,1.3,0,2c0,2,0,4,0,6c0,1.5,0,3,0,4.5c0,0.7-0.1,1.5-0.3,2.2c-0.5,1.4-1.6,2.6-3,3.1
					c-0.4,0.2-0.9,0.3-1.4,0.3c-0.5,0.1-1,0.1-1.4,0.2c-0.6,0.1-1.2,0.1-1.8-0.1c-0.8-0.2-1.5-0.7-2-1.4c-0.6-0.8-0.7-1.8-0.7-2.8
					c0-0.6,0-1.1,0-1.7c0-2,0-3.9,0-5.8c0-1.7,0-3.3,0-5c0-0.5,0-1,0.1-1.4c0.2-1.5,1.1-2.9,2.3-3.7
					C256.6,127.6,257.3,127.3,258,127.2z"/>
			</g>
		</g>
		<g>
			<g>
				<path fill="#FFFFFF" d="M206.2,158.6c0.7-0.1,1.4-0.2,2.1-0.3c0.5-0.1,1-0.1,1.5-0.2c0.2,0,0.4,0,0.6-0.1
					c0.2-0.1,0.3-0.3,0.4-0.4c0.1-0.2,0.3-0.4,0.4-0.6c0.1-0.2,0.2-0.4,0.3-0.5c0.1-0.1,0.1-0.1,0.1-0.2c0-0.1,0-0.2-0.1-0.2
					c-0.1-0.1-0.3,0-0.4,0c-0.2,0-0.4-0.1-0.5-0.3c-0.2-0.2-0.2-0.6-0.2-0.8c0.1-0.4,0.1-0.9,0.2-1.3c0-0.2,0.1-0.4,0.1-0.6
					c0,0,0-0.1,0-0.1c0-0.1,0.2-0.1,0.2-0.2c0.1-0.1,0.2-0.2,0.4-0.3c0.7-0.5,1.4-1,2.1-1.5c0.2,1.1,0.3,2.3,0.5,3.4
					c0.1,0.3,0.1,0.6,0.1,0.9c0,0.1,0.1,0.3,0.1,0.4c0,0-0.1,0-0.1,0.1c-0.1,0.1-0.1,0.1-0.1,0.1c-0.1,0.1-0.2,0.3-0.3,0.4
					c-0.2,0.3-0.4,0.6-0.6,0.8c-0.1,0.1-0.2,0.3-0.2,0.4c0,0.1,0.1,0.2,0.2,0.2c0,0,0.1,0,0.1,0c1.2-0.2,2.4-0.3,3.6-0.5
					c0.7-0.1,1.3-0.2,2-0.3c0.2,0,0.3-0.1,0.5-0.1c0.3,0,0.4-0.4,0.6-0.6c0.2-0.3,0.4-0.6,0.6-0.8c0.1-0.1,0.2-0.2,0.2-0.3
					c0-0.1-0.1-0.3-0.2-0.3c-0.1,0-0.2,0-0.3,0c-0.1,0-0.3-0.1-0.4-0.1c-0.3-0.1-0.5-0.3-0.6-0.6c-0.1-0.3-0.2-0.6-0.2-0.9
					c-0.1-0.4-0.1-0.7-0.2-1.1c0-0.1,0-0.1,0-0.2c0.8,0,1.3-0.7,1.7-1.3c0.2-0.3,0.4-0.7,0.7-1c0.3-0.4,0.5-0.8,0.6-1.3
					c0.2-0.8,0-1.7-0.6-2.4c-0.6-0.7-1.5-0.9-2.4-1c-0.3,0-0.5,0-0.8,0c-0.1,0-0.2,0.1-0.3,0c0,0,0,0,0-0.1
					c-0.1-0.2-0.1-0.4-0.1-0.6c-0.1-0.8-0.3-1.7-0.4-2.6c-0.3-2-0.6-3.9-0.9-5.9c0-0.2-0.1-0.4-0.1-0.6c0,0,0-0.1,0-0.1
					c0,0,0.1-0.1,0.1-0.1c0-0.1,0.1-0.1,0.1-0.1c0.1-0.1,0.1-0.2,0.2-0.3c0.1-0.2,0.3-0.4,0.4-0.6c0.1-0.1,0.1-0.2,0.2-0.2
					c0.1-0.1,0.1-0.1,0.2-0.2c0.1-0.2-0.1-0.4-0.3-0.3c0,0-0.1,0-0.1,0c-0.3,0-0.6,0.1-0.9,0.1c-1.9,0.3-3.7,0.5-5.6,0.8
					c-0.1,0-0.1,0-0.2,0c-0.1,0-0.1,0.1-0.2,0.1c-0.1,0.1-0.1,0.2-0.1,0.2c-0.1,0.1-0.2,0.2-0.2,0.3c-0.1,0.2-0.2,0.3-0.4,0.5
					c-0.1,0.2-0.4,0.4-0.3,0.6c0,0.2,0.3,0.2,0.4,0.2c0.2,0,0.4,0.1,0.5,0.2c0.4,0.4,0.2,0.9,0.2,1.4c-0.2,1.4-0.4,2.8-0.6,4.3
					c-0.3,2.1-0.6,4.3-0.9,6.4c-0.3,1.9-0.6,3.8-0.8,5.8c-0.1,0.6-0.2,1.2-0.3,1.8c0,0.2,0,0.3-0.1,0.4c0,0,0,0.1,0,0.1c0,0,0,0,0,0
					c0,0.1-0.2,0.1-0.3,0.1c-0.1,0-0.2,0-0.3,0.1c-0.1,0.1-0.1,0.1-0.1,0.2c-0.1,0.1-0.1,0.2-0.2,0.3c-0.1,0.2-0.2,0.3-0.4,0.5
					c-0.1,0.2-0.3,0.4-0.4,0.6C205.9,158.4,206,158.7,206.2,158.6z M218.8,149.6c-0.1,0-0.2,0.1-0.2,0.2c0,0.1-0.1,0.2-0.1,0.2
					c0-0.3-0.1-0.5-0.1-0.8C218.6,149.4,218.8,149.5,218.8,149.6C218.9,149.6,218.9,149.6,218.8,149.6z M208.9,155.1
					c0.2-1.4,0.4-2.7,0.6-4.1c0.1-0.8,0.2-1.7,0.4-2.5c0.3-1.8,0.5-3.7,0.8-5.5c0.2-1.7,0.5-3.3,0.7-5c0.1-0.4,0.1-0.7,0.2-1.1
					c0-0.2,0.1-0.4,0.1-0.5c0.1-0.5,0.2-1.1-0.2-1.6c-0.2-0.3-0.6-0.4-1-0.3c0.9-0.1,1.8-0.3,2.7-0.4c0.9-0.1,1.7-0.3,2.6-0.4
					c0.5-0.1,1-0.1,1.4-0.2c-0.8,0.1-1.3,0.9-1.2,1.7c0,0.3,0.1,0.7,0.2,1c0.1,0.5,0.1,0.9,0.2,1.4c0.3,2,0.6,4.1,0.9,6.1
					c0.1,0.6,0.2,1.1,0.2,1.6c0.7-0.1,1.5-0.2,2.2,0c0.9,0.3,1.6,0.9,1.9,1.8c0.2,0.8-0.1,1.7-0.7,2.4c-0.2,0.3-0.6,0.5-0.9,0.6
					c-0.2,0.1-0.4,0.1-0.6,0c-0.1,0-0.5-0.1-0.5-0.2c0,0,0.4-0.1,0.5-0.2c0.2-0.1,0.5-0.3,0.6-0.5c0.2-0.3,0.3-0.8,0.1-1.2
					c0-0.1-0.1-0.2-0.2-0.2c-0.2-0.1-0.3-0.2-0.6-0.2c-0.4-0.1-0.8-0.1-1.2,0c0,0,0,0,0,0c0,0,0,0,0,0c-0.1,0-0.3,0-0.4,0.1
					c0,0,0,0.1,0,0.1c0,0.2,0.1,0.4,0.1,0.6c0.1,0.6,0.2,1.3,0.3,1.9c0.1,0.9,0.3,1.8,0.4,2.7c0.1,0.3,0.1,0.7,0.2,1
					c0.2,0.6,0.9,1.1,1.6,1c-0.7,0.1-1.4,0.2-2.1,0.3c-0.9,0.1-1.8,0.3-2.7,0.4c-0.5,0.1-1,0.1-1.4,0.2c0.8-0.1,1.3-1,1.2-1.7
					c-0.1-0.3-0.1-0.7-0.2-1c-0.2-1-0.3-2-0.4-3c-0.1-0.4-0.1-0.7-0.2-1.1c-0.7,0.5-1.4,1-2.1,1.6c-0.4,0.3-0.8,0.6-1.3,0.9
					c-0.1,0.1-0.2,0.1-0.3,0.2c-0.1,0.1-0.2,0.1-0.3,0.2c0,0,0,0.1,0,0.1c-0.1,0.9-0.3,1.7-0.4,2.6c-0.1,0.3-0.1,0.7,0,1
					c0.2,0.5,0.6,0.8,1.2,0.7c-1.1,0.2-2.1,0.3-3.2,0.4c-0.3,0.1-0.7,0.1-1,0.2C208.1,156.7,208.7,155.9,208.9,155.1z"/>
			</g>
		</g>
		<g>
			<g>
				<path fill="#FFFFFF" d="M212.8,147.7c0.2-0.2,0.4-0.4,0.7-0.6c0.1-0.1,0.1-0.1,0.2-0.2c0.1-0.1,0.2-0.1,0.3-0.2
					c0.1,0,0.2-0.1,0.3-0.2c0-0.1,0-0.3-0.1-0.3c-0.1-0.7-0.2-1.4-0.3-2.1c-0.3-1.9-0.6-3.9-0.9-5.8c-0.1-0.5-0.1-1-0.2-1.4
					c-0.1,0.4-0.1,0.8-0.2,1.2c-0.1,1-0.3,2-0.4,3c-0.2,1.2-0.3,2.4-0.5,3.6c-0.2,1-0.3,2.1-0.4,3.1c-0.1,0.3-0.1,0.7-0.2,1
					c0,0.1,0,0.2-0.1,0.3c0,0,0,0.1,0,0.2v0C211.6,148.9,212.2,148.3,212.8,147.7C212.9,147.6,212.3,148.2,212.8,147.7z
					 M212.2,142.9c0.1,0.7,0.2,1.3,0.3,2c0.1,0.5,0.2,1,0.2,1.5c0,0.2,0.1,0.4,0.1,0.6c0,0.1,0.1,0.2,0.1,0.3c0,0.1,0,0,0,0.1
					c-0.1,0.1-0.3,0.2-0.4,0.3c-0.4,0.3-0.7,0.7-1.1,1c0.1-0.7,0.2-1.3,0.3-2c0.2-1.1,0.3-2.1,0.4-3.2
					C212.1,143.3,212.2,143.1,212.2,142.9z"/>
			</g>
		</g>
		<g>
			<g>
				<path fill="#FFFFFF" d="M231.8,150.4c0-0.7,0-1.5,0-2.2c0-1.6,0-3.3,0-4.9c0-1.8,0-3.6,0-5.3c0-1.1,0-2.2,0-3.4
					c0-0.6-0.1-1.1-0.6-1.5c-0.4-0.2-0.8-0.2-1.2-0.1c-0.4,0.1-0.8,0.1-1.2,0.2c-0.1,0-0.1,0-0.1,0.1c0,0.2,0,0.4,0,0.6
					c0,0.2,0,0.3,0,0.5c0,0.3,0,0.6,0,0.8c0,1.3,0,2.7,0,4c0,1.8,0,3.6,0,5.4c0,1.6,0,3.1,0,4.7c0,0.7,0,1.3,0,2c0,0.4,0,0.7,0,1.1
					c0.5-0.1,1.1-0.2,1.6-0.2c0.3-0.1,0.7-0.2,1-0.4C231.5,151.5,231.8,151,231.8,150.4z M230.5,151.9c-0.3,0.1-0.6,0.1-0.9,0.2
					c-0.3,0-0.5,0.1-0.8,0.1c0-0.6,0-1.2,0-1.7c0-1.4,0-2.8,0-4.2c0-1.7,0-3.4,0-5.1c0-1.4,0-2.9,0-4.3c0-0.5,0-0.9,0-1.4
					c0-0.1,0-0.3,0-0.4c0-0.1,0-0.2,0-0.2c0,0,0,0,0.1,0c0.1-0.1,0.3-0.1,0.5-0.1c0.6-0.1,1,0.3,1.2,0.9c0.1,0.2,0,0.5,0,0.7
					c0,1.1,0,2.2,0,3.3c0,1.6,0,3.2,0,4.9c0,1.6,0,3.1,0,4.7c0,0.9,0,1.8,0,2.6C230.5,151.8,230.5,151.8,230.5,151.9z"/>
			</g>
		</g>
		<g>
			<g>
				<path fill="#FFFFFF" d="M222.9,155.3c-0.1,0.1-0.2,0.2-0.2,0.3c-0.1,0.1-0.2,0.2-0.2,0.4c0,0.1,0.1,0.2,0.2,0.2
					c0.1,0,0.2,0,0.3,0c0.4-0.1,0.9-0.1,1.3-0.2c1.2-0.2,2.4-0.3,3.6-0.5c1-0.1,2-0.3,3-0.7c0.9-0.4,1.7-1.1,2.3-1.9
					c0.3-0.4,0.6-0.9,0.9-1.3c0.3-0.4,0.6-0.9,0.9-1.3c0.5-1,0.8-2.1,0.8-3.2c0-0.2,0-0.4,0-0.6c0-1,0-1.9,0-2.9c0-1.3,0-2.6,0-3.9
					c0-0.9,0-1.8,0-2.7c0-1.5-0.4-3-1.5-4.2c-0.7-0.8-1.7-1.3-2.7-1.5c-0.6-0.1-1.2-0.1-1.9,0c-1,0.1-2,0.3-3.1,0.4
					c-1,0.1-2,0.3-3.1,0.4c-0.1,0-0.2,0-0.2,0c-0.1,0-0.1,0.1-0.2,0.2c-0.1,0.1-0.2,0.2-0.2,0.3c-0.2,0.2-0.3,0.5-0.5,0.7
					c-0.1,0.2-0.4,0.4-0.3,0.7c0.1,0.2,0.4,0.1,0.6,0.1c0.4,0.1,0.7,0.4,0.8,0.8c0.1,0.4,0,0.8,0,1.2c0,0.8,0,1.7,0,2.5
					c0,1.2,0,2.4,0,3.5c0,1.3,0,2.6,0,3.9c0,1.2,0,2.5,0,3.7c0,1,0,1.9,0,2.8c0,0.3,0,0.6,0,0.9c0,0.1,0,0.3,0,0.5
					c0,0.1,0,0.1-0.2,0.1c-0.1,0-0.2,0.1-0.2,0.2c-0.1,0.1-0.1,0.2-0.2,0.3C223.2,154.9,223,155.1,222.9,155.3
					C222.9,155.4,222.9,155.3,222.9,155.3z M225.1,153.4c0.2-0.5,0.1-1.2,0.1-1.7c0-0.3,0-0.7,0-1.1c0-1.5,0-3,0-4.6
					c0-1.9,0-3.9,0-5.8c0-1.5,0-3,0-4.4c0-0.3,0-0.6,0-0.9c0-0.7,0.1-1.5-0.4-2.1c-0.3-0.3-0.7-0.4-1-0.3c0.8-0.1,1.6-0.2,2.4-0.3
					c0.8-0.1,1.6-0.2,2.5-0.3c1.1-0.2,2.3-0.4,3.4-0.2c1,0.2,1.9,0.8,2.5,1.6c0.7,0.8,1,1.8,1.2,2.8c0.1,0.6,0.1,1.3,0.1,1.9
					c0,1.1,0,2.1,0,3.2c0,1.2,0,2.3,0,3.5c0,0.7,0,1.4,0,2.1c0,1.3-0.3,2.6-1,3.7c-0.9,1.4-2.2,2.6-3.9,3c-0.3,0.1-0.6,0.1-0.9,0.2
					c0,0,0.1,0,0.1,0c-0.7,0.1-1.4,0.2-2.1,0.3c-0.9,0.1-1.8,0.3-2.7,0.4c-0.5,0.1-1,0.1-1.4,0.2
					C224.3,154.4,224.8,153.9,225.1,153.4C225.1,153.2,224.8,154,225.1,153.4z"/>
			</g>
		</g>
		<g>
			<g>
				<path fill="#FFFFFF" d="M251.5,141.9c-0.1-0.2-0.3-0.1-0.5,0c-0.2,0.1-0.4,0.1-0.6,0.2c-0.4,0.2-0.7,0.3-1.1,0.5
					c-0.7,0.4-1.3,0.8-1.8,1.4c-0.3,0.3-0.6,0.6-0.8,0.9c-0.2,0.3-0.4,0.7-0.7,1c-0.3,0.4-0.5,0.7-0.8,1.1c-0.6,0.8-0.8,1.9-1.1,2.8
					c-0.4-0.1-0.3-0.5-0.3-0.8c0-0.4,0-0.9,0-1.3c0-1.5,0-3,0-4.5c0-1.8,0-3.6,0-5.5c0-1.5,0-3.1,0-4.6c0-0.5,0-0.9,0-1.4
					c0-0.1,0-0.2,0-0.4c0-0.2,0-0.1,0.2-0.2c0.2-0.1,0.2-0.3,0.3-0.4c0.1-0.2,0.2-0.3,0.3-0.5c0.1-0.2,0.2-0.3,0.3-0.4
					c0.1-0.1,0.3-0.2,0.2-0.4c-0.1-0.3-0.3-0.2-0.5-0.2c-0.7,0.1-1.3,0.2-2,0.3c-0.9,0.1-1.8,0.3-2.6,0.4c-0.5,0.1-1,0.1-1.4,0.2
					c-0.1,0-0.1,0-0.2,0.1c-0.1,0.1-0.1,0.1-0.1,0.2c-0.1,0.1-0.1,0.2-0.2,0.3c-0.2,0.3-0.4,0.7-0.7,1c-0.1,0.1-0.1,0.1-0.1,0.2
					c0,0,0,0,0,0.1c0,0.1,0,0.1,0.1,0.2c0,0,0,0,0.1,0c0,0,0.1,0,0.1,0c0.3,0,0.6,0,0.8,0.2c0.3,0.2,0.4,0.6,0.4,0.9
					c0,0.2,0,0.3,0,0.5c0,1.2,0,2.3,0,3.5c0,1.7,0,3.5,0,5.3c0,1.8,0,3.5,0,5.3c0,1.2,0,2.4,0,3.6c0,0.1,0,0.3,0,0.4
					c0,0,0,0.2,0,0.2c0,0,0.1-0.1,0,0c-0.1,0.1-0.2,0-0.2,0.1c-0.1,0-0.1,0.1-0.2,0.2c-0.1,0.3-0.4,0.6-0.6,0.9
					c-0.1,0.2-0.6,0.7-0.3,0.9c0.1,0,0.1,0,0.2,0c1.1-0.1,2.2-0.3,3.4-0.5c1.8-0.3,3.5-0.5,5.3-0.8c0.6-0.1,1.2-0.2,1.8-0.3
					c0.2,0,0.3,0,0.4-0.1c0,0,0.1,0,0.1,0c0.1,0,0.2-0.1,0.2-0.2c0.1-0.2,0.2-0.3,0.3-0.5c0.1-0.2,0.2-0.3,0.3-0.5
					c0.1-0.1,0.1-0.1,0.2-0.2c0.1-0.1,0.1-0.1,0.2-0.2c0.1-0.1,0-0.3-0.1-0.4c-0.1,0-0.1,0-0.2,0c-0.1,0-0.2,0-0.3,0
					c-0.7-0.2-1-1.2-1.1-1.9c-0.1-0.8,0-1.7,0.2-2.5c0.1-0.4,0.3-0.8,0.4-1.2c0.1-0.2,0.3-0.3,0.4-0.4c0.2-0.1,0.3-0.3,0.5-0.4
					c0.1-0.1,0.4-0.2,0.5-0.3c0.1-0.1,0.1-0.2,0.2-0.3c0.1-0.2,0.2-0.3,0.3-0.5c0.1-0.2,0.2-0.3,0.3-0.4c0.1-0.1,0.1-0.2,0.2-0.2
					C251.5,142.2,251.6,142.1,251.5,141.9C251.4,141.9,251.5,142,251.5,141.9z M249.5,143.8c-0.6,0.9-1.1,1.9-1.2,2.9
					c-0.1,0.6-0.1,1.1-0.1,1.7c0.1,0.5,0.1,1.1,0.4,1.5c0.3,0.4,0.7,0.9,1.3,0.8c-1.5,0.2-3,0.4-4.5,0.6c-1.4,0.2-2.8,0.4-4.2,0.6
					c-0.8,0.1-1.5,0.2-2.3,0.3c0.7-0.1,1.3-0.8,1.4-1.5c0.1-0.4,0-0.8,0-1.3c0-0.3,0-0.7,0-1c0-1.9,0-3.7,0-5.6c0-1.1,0-2.2,0-3.3
					c0-1.6,0-3.3,0-4.9c0-0.7,0-1.4,0-2c0-0.7,0.1-1.6-0.4-2.1c-0.3-0.3-0.7-0.4-1.1-0.4c0.7-0.1,1.4-0.2,2.1-0.3
					c0.9-0.1,1.8-0.3,2.7-0.4c0.5-0.1,1-0.1,1.4-0.2c-0.8,0.1-1.4,1-1.4,1.8c0,0.3,0,0.7,0,1c0,0.7,0,1.5,0,2.2c0,1.2,0,2.3,0,3.5
					c0,0.6,0,1.2,0,1.8c0,0.9,0,1.8,0,2.7c0,0.5,0,1.1,0,1.6c0,1,0,2,0,3c0,0.8,0,1.6,0,2.4c0,0.4,0.2,0.7,0.6,0.7
					c0.3,0.1,0.6-0.2,0.8-0.5c0.2-0.3,0.3-0.7,0.4-1.1c0.1-0.5,0.2-0.9,0.4-1.4c0.6-2,2.2-3.6,4-4.5c0.5-0.2,1-0.4,1.4-0.6
					C250.6,142.5,250,143.1,249.5,143.8C248.6,144.9,250,143.1,249.5,143.8z"/>
			</g>
		</g>
		<g>
			<g>
				<path fill="#FFFFFF" d="M190.3,130.6c0.1,0,0.3,0.1,0.4,0.1c0.2,0.1,0.3,0.2,0.5,0.3c0.3,0.2,0.5,0.5,0.7,0.8
					c0.2,0.3,0.3,0.7,0.4,1.1c0.2,0.5,0.4,1.1,0.6,1.6c0.5,1.3,0.9,2.5,1.3,3.8c0.4,1.2,0.7,2.4,1,3.7s0.6,2.5,0.8,3.7
					c0.1,0.3,0.1,0.6,0.2,0.9c0,0.2,0.1,0.4,0.1,0.7c0,0.5,0,1.1,0,1.6c0,1.8,0,3.5,0,5.3c0,0.5,0,1,0,1.6c0,0.4,0,0.7-0.1,1.1
					c0,0.3-0.1,0.7-0.2,1.1c-0.1,0.1-0.1,0.2-0.2,0.3c0,0.1-0.1,0.1-0.1,0.1c-0.1,0.1-0.1,0.1-0.2,0.2s-0.1,0-0.2,0.1
					c-0.1,0.1-0.1,0.2-0.2,0.3c0,0.1-0.1,0.1-0.2,0.2c-0.1,0.1-0.1,0.2-0.2,0.3c-0.2,0.2-0.5,0.3-0.6,0.6c0,0.2,0.1,0.4,0.3,0.4
					c0.4,0,0.8-0.1,1.3-0.2c1.8-0.3,3.5-0.5,5.3-0.8c0.6-0.1,1.2-0.2,1.8-0.3c0.1,0,0.3,0,0.4-0.1c0.1-0.1,0.2-0.3,0.3-0.4
					c0.1-0.1,0.1-0.2,0.2-0.3c0.1-0.1,0.1-0.1,0.1-0.2c0.1-0.1,0.1-0.1,0.1-0.2c0.1-0.1,0.2-0.1,0.3-0.2c0.1-0.1,0.1-0.3,0-0.5
					c-0.1-0.2-0.3-0.1-0.4-0.1c-0.2,0-0.4,0-0.5-0.1c-0.3-0.1-0.6-0.3-0.7-0.7c-0.1-0.2-0.1-0.5-0.1-0.8c-0.1-0.6-0.1-1.1-0.1-1.7
					c0-1.7,0-3.4,0-5.2c0-0.8,0-1.5,0-2.3c0-0.4,0-0.7,0.1-1.1c0.2-1.2,0.4-2.5,0.6-3.7c0.2-1.2,0.5-2.5,0.8-3.7
					c0.3-1.3,0.6-2.5,1-3.8c0.4-1.3,0.8-2.6,1.2-3.8c0.1-0.2,0.2-0.5,0.2-0.7c0.1-0.2,0.1-0.4,0.2-0.6c0,0,0-0.1,0-0.1
					c0,0,0.1,0,0.1,0c0,0,0.1-0.1,0.1-0.1c0.1-0.1,0.1-0.1,0.2-0.2c0.1-0.1,0.2-0.2,0.3-0.3c0,0,0,0,0.1-0.1c0,0,0.1-0.1,0.1-0.1
					c0.1-0.1,0.1-0.1,0.2-0.2c0,0,0.1,0,0.1,0c0,0,0,0,0-0.1c0,0,0-0.1,0.1-0.1c0.1-0.1,0.1-0.1,0.2-0.2c0.1-0.1,0.4-0.1,0.5-0.2
					c0.1-0.1,0.2-0.3,0.2-0.4c0.1-0.1,0.1-0.2,0.2-0.3c0.1-0.1,0.1-0.1,0.2-0.2c0.1-0.1,0.2-0.1,0.2-0.2c0.1-0.1,0.2-0.1,0.2-0.1
					c0.3-0.2,0-0.6-0.3-0.6c0,0-0.1,0-0.1,0c-0.2,0-0.4,0.1-0.6,0.1c-0.7,0.1-1.5,0.2-2.2,0.3c-1.7,0.2-3.4,0.5-5.1,0.7
					c-0.3,0.1-1.1,0-1,0.6c-0.1,0-0.2,0.2-0.2,0.2c-0.1,0.1-0.2,0.2-0.3,0.3c-0.2,0.2-0.6,0.4-0.3,0.7c0.1,0.1,0.3,0.1,0.4,0.1
					c0.2,0,0.4,0,0.5,0.1c0.5,0.3,0.3,1.1,0.2,1.6c-0.1,0.3-0.2,0.7-0.3,1c-0.1,0.3-0.5,1.5-1,0.9c-0.2-0.2-0.3-0.4-0.3-0.6
					c-0.1-0.4-0.3-0.7-0.4-1.1c-0.1-0.3-0.2-0.6-0.3-1c0-0.1-0.1-0.2-0.1-0.3c0-0.1,0-0.2-0.1-0.3c0,0,0-0.1,0-0.1c0,0,0.1,0,0.1,0
					c0.2-0.1,0.2-0.2,0.3-0.4c0.1-0.1,0.2-0.2,0.2-0.3c0.1-0.2,0.3-0.3,0.5-0.4c0.1-0.1,0.2-0.2,0.2-0.4c0-0.2-0.2-0.3-0.4-0.3
					c-0.1,0-0.2,0-0.3,0c-1.6,0.2-3.1,0.4-4.7,0.7c-0.8,0.1-1.7,0.2-2.5,0.4c-0.4,0.1-0.8,0.1-1.2,0.2c-0.2,0-0.4,0.2-0.3,0.4
					c-0.1,0-0.2,0.2-0.3,0.3c-0.1,0.1-0.2,0.2-0.3,0.3c-0.1,0.1-0.3,0.2-0.3,0.3c-0.1,0.2,0,0.4,0.2,0.4c0.1,0,0.2,0,0.2,0
					c0.1,0,0.2,0,0.2,0c0.1,0,0.2,0,0.2,0C190.2,130.6,190.3,130.6,190.3,130.6C190.3,130.6,190.3,130.6,190.3,130.6z M197,156.5
					c0-0.6,0-1.2,0-1.7c0-0.9,0-1.7,0-2.6c0-1.3,0-2.6,0-3.9c0-1.2,0-2.4,0-3.6c0-0.4,0-0.8,0-1.2c0-0.2,0-0.4,0-0.6
					c0-0.1,0-0.2-0.1-0.2c-0.1-0.3-0.2-0.6-0.3-0.9c-0.4-1.1-0.8-2.1-1.2-3.2c-0.4-1.2-0.9-2.4-1.3-3.6c-0.3-0.8-0.6-1.6-0.9-2.4
					c-0.1-0.1-0.1-0.3-0.2-0.4c-0.2-0.5-0.4-1.1-0.7-1.6c-0.3-0.4-0.7-0.7-1.1-1c0.9,0.2,1.5,0.9,1.8,1.7c0.2,0.4,0.3,0.8,0.5,1.1
					c0.2,0.6,0.5,1.3,0.7,1.9c0.4,1.2,0.9,2.4,1.3,3.6c0.4,1.2,0.8,2.3,1.3,3.5c0.1,0.4,0.3,0.7,0.4,1.1c0,0.1,0.1,0.2,0.1,0.3
					c0,0.2,0,0.3,0,0.5c0,0.4,0,0.8,0,1.2c0,1.2,0,2.4,0,3.5c0,1.4,0,2.7,0,4.1c0,1.1,0,2.2,0,3.3c0,0.6,0.1,1.3-0.2,1.9
					c-0.2,0.4-0.5,0.8-1,1.1C196.7,157.8,197,157.1,197,156.5z M200.8,127.6L200.8,127.6L200.8,127.6z M201.2,129.6
					c0.2-0.6,0.3-1.3-0.2-1.7c1.3,0,0.5,1.9,0.3,2.6c-0.3,1.1-0.7,2.3-1,3.4c-0.1,0.3-0.2,0.6-0.3,0.9c0-0.1-0.1-0.2-0.1-0.2
					c0-0.1-0.1-0.2-0.1-0.2c0-0.1,0-0.1,0.1-0.2c0.1-0.3,0.2-0.7,0.3-1c0.3-1,0.6-1.9,0.8-2.8C201.1,130.1,201.2,129.9,201.2,129.6z
					 M192.5,128.7c0.9-0.1,1.8-0.3,2.7-0.4c0.8-0.1,1.5-0.2,2.3-0.3c0.6-0.1,1.1-0.2,1.6-0.2c-0.5,0.1-0.9,0.3-1.1,0.8
					c-0.2,0.4-0.2,1-0.1,1.5c0.1,0.4,0.2,0.7,0.4,1.1c0.4,1.2,0.8,2.5,1.3,3.7c0.1,0.4,0.3,0.8,0.4,1.2c0.3-1,0.6-2,0.9-3.1
					c0.3-1.1,0.7-2.3,1-3.4c0.1-0.4,0.2-0.9,0.1-1.3c-0.2-0.5-0.7-0.7-1.3-0.7c1-0.1,2-0.3,3-0.4c1.2-0.2,2.5-0.4,3.7-0.5
					c0.7-0.1,1.3-0.2,2-0.3c-1.1,0.2-2,1.1-2.5,2c-0.3,0.6-0.5,1.2-0.7,1.9c-0.2,0.5-0.3,1.1-0.5,1.6c-0.4,1.3-0.8,2.5-1.2,3.8
					c-0.4,1.4-0.9,2.7-1.3,4.1c-0.2,0.7-0.5,1.5-0.7,2.2c0,0.1,0,0.2,0,0.3c0,0.4,0,0.7,0,1.1c0,1.3,0,2.6,0,3.9c0,1.4,0,2.9,0,4.3
					c0,0.9,0,1.7,0,2.6c0,0.3,0,0.6,0,0.9c0,0.3,0,0.5,0,0.8c0,0.5,0.2,1,0.6,1.3c0.4,0.3,0.9,0.5,1.4,0.4c-1,0.1-2,0.3-3,0.4
					c-1.2,0.2-2.5,0.4-3.7,0.5c-0.7,0.1-1.3,0.2-2,0.3c1-0.1,1.8-1.1,2-2c0.1-0.6,0-1.2,0-1.7c0-0.5,0-1.1,0-1.6c0-1.3,0-2.5,0-3.8
					c0-1.4,0-2.8,0-4.2c0-0.9,0-1.7,0-2.6c0-0.4-0.2-0.7-0.3-1.1c-0.4-1.1-0.8-2.2-1.2-3.4c-0.5-1.3-1-2.6-1.4-3.9
					c-0.3-0.8-0.6-1.5-0.8-2.3c-0.1-0.3-0.3-0.7-0.4-1c-0.1-0.3-0.2-0.5-0.3-0.8c-0.3-0.5-0.7-0.8-1.2-1.1c-0.4-0.2-1-0.4-1.5-0.3
					C191.2,128.9,191.8,128.8,192.5,128.7z"/>
			</g>
		</g>
	</g>
</g>
</svg>
