<?xml version="1.0" encoding="utf-8"?>
<!-- Generator: Adobe Illustrator 18.1.1, SVG Export Plug-In . SVG Version: 6.00 Build 0)  -->
<!DOCTYPE svg PUBLIC "-//W3C//DTD SVG 1.1//EN" "http://www.w3.org/Graphics/SVG/1.1/DTD/svg11.dtd">
<svg version="1.1" id="Calque_1" xmlns="http://www.w3.org/2000/svg" xmlns:xlink="http://www.w3.org/1999/xlink" x="0px" y="0px"
	 viewBox="0 0 595.3 841.9" enable-background="new 0 0 595.3 841.9" xml:space="preserve">
<g>
	<g>
		<path fill="#ffffff" d="M271.2,446.4c0-6.7,0-13.4,0-20.1c0-0.9,0-1.9,0-2.8c0,0.6-0.6,1.5-0.9,2.1c-0.4,0.8-0.9,1.7-1.4,2.5
			c-0.7,1.2-1.7,2.3-2.4,3.5c-0.8,1.4-1.9,2.7-2.8,4c-0.5,0.7-0.9,1.3-1.4,2c-0.8,1.1-1.8,2.1-2.6,3.2c-1.7,2.6-1.7,6,0.4,8.3
			c1.1,1.3,2.7,1.8,3.8,3.1c1.1,1.2,1.9,3,1.9,4.6c1-1.5,2.1-3,3.1-4.5C270.1,450.5,271.2,448.4,271.2,446.4z"/>
	</g>
	<g>
		<g>
			<path fill="#ffffff" d="M523.9,301.9C523.9,301.9,523.9,301.7,523.9,301.9c-0.4-1.1-1-2-1.5-2.9c-0.6-1.2-1.3-2.4-2.1-3.6
				c-1.1-1.7-2.3-3.3-3.7-4.7c-3.1-3.3-6.8-6-10.9-7.9c-6.9-3.2-14.6-3.8-22.1-2.7c-2.7,0.4-5.4,0.8-8,1.1c-0.7,0.1-1.4,0.2-2.1,0.3
				c-0.3,0-0.9,0.2-1.2,0.2c-0.5-0.1-0.6-0.5-0.9-1c-0.7-1-1.3-1.9-2-2.9c-5-7.1-10.4-14-16.2-20.4c-11.7-12.9-25-24.3-39.5-33.8
				c-14.7-9.6-30.7-17.2-47.4-22.7c-17.2-5.6-35.2-8.8-53.3-9.6c-18.3-0.8-36.7,0.9-54.5,5c-17.2,4-33.8,10.3-49.3,18.7
				c-15.3,8.2-29.5,18.4-42.1,30.3c-6.3,5.9-12.3,12.3-17.8,19c-2.8,3.3-5.4,6.8-7.9,10.3c-1.3,1.7-2.5,3.5-3.7,5.3
				c-0.6,0.9-1.2,1.8-1.8,2.7c-0.2,0.4-0.5,0.9-0.8,1.2c-0.3,0.3-0.3,0.2-0.7,0.2c-0.3,0-0.6,0-0.8,0c-2.4,0-4.8,0.6-7.2,0.9
				c-5.2,0.7-10.4,1.5-15.6,2.2c-9.2,1.3-18.3,2.6-27.5,3.9c-1.7,0.2-3.4,0.6-5,1.4c-2,0.9-3.8,2.3-5.2,3.9
				c-0.6,0.7-1.2,1.5-1.7,2.3c-0.3,0.5-0.5,1-0.8,1.5c-0.3,0.5-0.8,0.8-1.3,1.2c-6.6,6-7.1,16.6-0.7,22.9c2.8,2.7,6.3,4.1,10.1,4.4
				c1,0.1,2.3,0,2.8,1c0.5,0.9,0.8,2,1.2,3c1.4,3.4,2.7,6.9,3.9,10.3c2.8,7.7,5.5,15.3,8.1,23c2.5,7.5,4.4,15.3,6.4,23
				c1,3.7,1.6,7.5,2.4,11.3c0.5,2.6,1,5.2,1.4,7.9c0.3,2.3,1,4.6,1,6.9c0,9.7,0,19.5,0,29.2c0,4.2,0,8.4,0,12.6c0,2.7,0.2,5.5,0,8.2
				c0,0.5,0,1.2-0.2,1.6c-0.1,0.4-0.7,0.7-1,0.9c-0.5,0.4-0.9,0.9-1.3,1.4c-0.8,0.9-1.5,2-2.1,3.1c-0.4,0.9-1.2,1.3-1.9,1.9
				c-3.3,3.1-5.3,7.7-5.1,12.2c0.3,8.2,7.2,14.9,15.4,14.8c1.5,0,3.1-0.4,4.6-0.6c2.6-0.4,5.2-0.8,7.8-1.1c2.7-0.4,5.5-0.8,8.2-1.2
				c1-0.1,2-0.3,3-0.4c0.3,0,1.1-0.3,1.3-0.2c0.3,0.1,0.7,1.5,0.9,1.9c0.5,1,0.9,2,1.4,3c1,2,1.9,4.1,2.9,6.1
				c1.9,4.1,3.9,8.1,5.9,12.1c4.1,8.3,8.4,16.4,12.7,24.6c8.9,16.7,18.2,33.1,27.8,49.4c9.4,16,19.2,31.9,29.1,47.7
				c9.3,14.7,18.7,29.3,28.3,43.7c8.3,12.5,16.7,24.9,25.3,37.3c6.6,9.5,13.2,19,19.9,28.4c2.4,3.4,4.9,6.8,7.3,10.2
				c0.9,1.3,1.9,2.6,2.8,3.9c0.4,0.6,0.8,1.2,1.3,1.7c0.7,1,1.6,1.5,2.8,1.7c1.5,0.3,3.5,0.2,4.8-0.7c0.6-0.4,1-1,1.4-1.6
				c0.8-1.1,1.6-2.2,2.4-3.3c2-2.8,4-5.5,6-8.3c5.5-7.6,10.9-15.3,16.3-23c7-10.1,14-20.2,20.8-30.4c8.1-12,16-24,23.9-36.1
				c8.7-13.3,17.2-26.8,25.5-40.3c8.7-14.1,17.3-28.4,25.6-42.8c8.3-14.4,16.3-28.9,24-43.6c7.4-14.1,14.5-28.3,21.1-42.8
				c6.1-13.3,11.7-26.7,16.7-40.4c1.1-3.2,2.2-6.4,3.3-9.6c0.2-0.7,0.4-1.7,0.9-2.1c1-0.7,2.3-1,3.4-1.6c2-1.1,4-2.3,5.8-3.7
				c3.7-2.9,7.4-6.5,9.9-10.5c0.6-1,1.3-1.9,2-2.7c1.4-1.7,2.7-3.3,3.9-5.1c4.8-7.5,7.3-16.2,7.3-25.1c0-2,0-3.9,0-5.9
				c0-10,0-20,0-30c0-10.7,0-21.5,0-32.2c0-2.8,0-5.6,0-8.4c0-0.5,0-1-0.1-1.5C527.1,312.3,525.9,306.9,523.9,301.9z M308.2,466.2
				c-5.3,0.8-10.6,1.5-15.9,2.3c-6.5,1-13.1,1.9-19.6,2.9c-4.7,0.7-9.3-2.3-9.5-7.3c-1.1,1.8-2.3,3.6-3.6,5.3
				c-1.3,1.9-2.7,3.5-4.9,4.4c-1.6,0.6-3.5,0.7-5.2,1c-7.2,1-14.3,2.1-21.5,3.1c-2.9,0.4-5.9,0.9-8.8,1.3c-0.7,0.1-1.3,0.2-2,0.3
				c-0.4,0-0.8,0-1.2,0c-0.7,0-1.5-0.1-2.2-0.3c-0.8-0.3-1.5-0.8-2.4-1c-1.6-0.4-3.3-0.2-4.8,0.6c-1.4,0.7-2.4,1.9-4,2.4
				c-0.9,0.3-2,0.4-2.9,0.5c-3.2,0.5-6.4,0.9-9.6,1.4c-3.6,0.5-7.1,1.1-10.7,1.6c-2.8,0.4-5.7,0.9-8.2-0.9c-1.1-0.8-2-1.9-2.5-3.1
				c-0.7,0.7-1.1,1.6-1.7,2.4c-0.7,0.8-1.3,1.7-2.2,2.3c-1.2,1-2.6,1.4-4.1,1.6c-1,0.1-2,0.3-3,0.4c-4.9,0.7-9.8,1.4-14.8,2.1
				c-10.4,1.5-20.8,3-31.2,4.4c-1.6,0.2-3.1,0.3-4.7-0.1c-4.3-1.1-7-5.6-6.1-9.9c0.5-2.4,1.9-4.1,3.8-5.7c0.8-0.7,1.4-1.3,1.9-2.2
				c0.7-1.4,1.3-2.5,2.4-3.6c1.5-1.7,2.7-3.2,3-5.5c0.1-1.1,0.2-2.2,0.2-3.4c0-7.9,0-15.7,0-23.6c0-9.3,0-18.5,0-27.8
				c0-2-0.4-4-0.8-6c-0.4-2.1-0.8-4.2-1.3-6.4c-0.8-4.1-1.6-8.3-2.5-12.4c-0.9-4-2.1-8-3.2-12c-1.1-4-2.1-8-3.4-12
				c-2.7-8.5-5.8-16.9-8.8-25.3c-1.4-3.8-2.9-7.4-4.4-11.2c-0.6-1.4-1.1-2.7-2.4-3.7c-1.5-1.3-3.2-1.6-5.1-1.9
				c-1.7-0.3-3.3-0.3-4.9-1c-1.9-0.9-3.5-2.6-4.3-4.6c-0.8-2.2-0.7-4.6,0.3-6.7c0.5-1,1.1-1.9,1.8-2.6c0.9-0.9,2-1.5,2.8-2.7
				c0.6-0.9,1-1.9,1.7-2.8c0.7-1,1.7-1.9,2.8-2.5c1-0.6,2-0.9,3.1-1.1c3.3-0.5,6.6-0.9,9.9-1.4c11.6-1.7,23.1-3.3,34.7-4.9
				c1.6-0.2,3.2-0.4,4.8-0.7c0.3,0,0.6-0.1,1-0.1c1.8-0.1,3.5,0.4,5.2,0.1c1.5-0.3,2.7-1.1,4.2-1.4c0.4-0.1,0.7-0.1,1.1-0.2
				c1.6-0.2,3.3-0.5,4.9-0.7c11.5-1.6,23.1-3.3,34.6-4.9c3.2-0.4,6.3-1.1,9.5-1.4c3.5-0.3,7,1,8.8,4.2c1.2,2.3,1.7,4.6,0.9,7.2
				c-0.3,1.1-0.9,2.2-1.7,3.1c-0.8,1-1.9,1.6-2.9,2.4c-0.8,0.7-1.2,1.5-1.8,2.4c-0.5,0.8-1.1,1.7-1.8,2.4c-1.6,1.6-3.8,2.2-5.2,3.9
				c-0.8,0.9-1.7,1.7-2.6,2.5c-1.2,1.1-1.7,2.5-2.1,3.9c-1.3,3.8-2.5,7.7-3.8,11.6c-1.5,4.5-2.9,9-4.4,13.5c-1.3,3.9-2.3,8-3.3,12
				c-2.1,8.1-3.9,16.2-5.6,24.4c-1.7,8.2-3,16.4-4.4,24.7c-0.3,1.9-0.7,3.9-0.7,5.8c0,1,0,2,0,3c0,5,0,10,0,15c0,10.4,0,20.8,0,31.2
				c0,1.3-0.1,2.6,0.4,3.9c0.7,2,2.2,3.6,4.1,4.3c2.3,0.9,4.2,1.8,5.6,4c0.4-0.7,1-1.4,1.4-2.1c0.6-0.9,0.8-1.8,1.5-2.6
				c0.7-0.7,1.5-1.3,2-2.2c0.5-0.8,0.8-1.7,1-2.6c0.1-0.4,0.1-0.7,0.2-1.1c0.3-2.4,0.7-4.7,1-7.1c1.3-9.3,2.7-18.5,4-27.8
				c1.6-11.1,3.2-22.2,4.8-33.3c1.2-8.2,2.4-16.4,3.5-24.5c0.2-1.4,0.4-2.8,0.6-4.3c0.2-1.4,0-2.8-0.6-4.1c-1-2-3.1-2.9-4.3-4.8
				c-1.2-1.9-1.5-4.3-0.9-6.4c0.4-1.3,1.1-2.4,1.9-3.5c1.3-1.9,2.7-3.8,3.9-5.7c0.4-0.6,0.6-1.2,0.9-1.7c0.6-1,1.4-1.8,2.4-2.5
				c1-0.7,2.2-1.2,3.4-1.4c3.1-0.5,6.2-0.9,9.4-1.4c9.6-1.4,19.1-2.8,28.7-4.2c1.5-0.2,3.1-0.3,4.6,0.2c4.4,1.4,6.7,6.6,5.1,10.9
				c-0.6,1.6-1.8,2.7-2.7,4.1c-0.6,0.9-1.3,1.8-1.9,2.8c-1.2,1.8-1.2,3.7-0.9,5.8c1.4,9.4,2.9,18.7,4.3,28.1
				c0.5,3.5,1.1,7.1,1.6,10.6c0.4,2.4,1.6,4.5,3.9,5.6c0.9,0.4,1.9,0.5,2.9,0.7c1.3,0.3,2.6,0.6,3.8,1.1c2.3,0.8,4.5,1.9,6.4,3.4
				c3.1,2.3,6.3,5.7,7.2,9.5c0-7.1,0-14.3,0-21.4c0-10.5,0-21,0-31.5c0-2.7,0.4-6-1.2-8.4c-1.3-1.9-3.5-2.5-5-4.1
				c-1.4-1.6-2.2-3.8-2-6c0.2-3,2.4-5.4,4-7.8c0.7-1,1.3-2,2-3c0.3-0.4,0.4-0.8,0.7-1.3c0.5-1.1,1.4-2,2.3-2.7
				c1.5-1.1,3.1-1.5,4.9-1.8c4.4-0.6,8.8-1.2,13.2-1.9c5.5-0.8,11.1-1.6,16.6-2.3c3.5-0.5,6.9-1.1,10.4-1.1c0.7,0,1.4,0,2.1,0
				c1.1,0,2.3,0.2,3.4,0.2c-0.1,0-0.1,0-0.2,0c4.7,0.5,9.3,2,13.4,4.3c3.9,2.2,7.8,5.3,10.3,9c1.2,1.8,2.6,3.6,3.6,5.5
				c1,2,1.9,4,2.6,6.1c1.5,4.3,2.1,8.8,2.2,13.4c0,7.1,0,14.2,0,21.3c0,10.4,0,20.9,0,31.3c0,2.1,0,4.1,0,6.2
				c-0.1,9.7-3.2,19.3-8.7,27.3c-0.9,1.2-1.8,2.4-2.6,3.6c-0.7,1.1-1.5,2.2-2.3,3.4c-2,3-4.2,5.9-6.8,8.5
				c-6.2,6.3-14.3,10.9-23.1,12.5C310.6,466,309.4,466.1,308.2,466.2z M318.8,703.3c29.3-60.2,83.6-182.6,91.6-162.8
				C418.6,560.1,352.2,653.2,318.8,703.3z M520.3,395.9c0,6.8-1.9,13.6-5.2,19.5c-1.4,2.4-3,4.5-4.7,6.7c-1.2,1.6-2.3,3.3-3.5,4.8
				c-3.9,4.9-8.9,8.9-14.6,11.5c-3.8,1.7-7.7,2.4-11.8,3c-3,0.4-6.1,0.9-9.1,1.3c-5.6,0.8-11.3,0-16.4-2.5
				c-9.7-4.8-15.7-14.7-16.8-25.3c-0.3-3-0.2-6.1-0.2-9.1c0-3.4,0-6.9,0-10.3c0-0.2,0-0.4,0-0.7c0,0.5-0.8,1.4-1.1,1.8
				c-0.6,0.7-1.3,1.3-2.1,1.8c-1.6,1-3.2,2.3-4.4,3.8c-1.3,1.6-1.9,3.7-2.4,5.7c-0.5,1.9-0.9,3.9-1,5.9c-0.2,3.3-0.5,7.4,2.2,9.8
				c1.3,1.2,3,1.5,4.3,2.5c1.4,1.1,2.4,2.7,3,4.4c0.6,1.7,0.5,3.6-0.2,5.3c-0.6,1.4-1.6,2.4-2.5,3.7c-1.1,1.5-2.1,3.1-3.1,4.7
				c-1.3,1.8-2.5,3.7-4.6,4.7c-1,0.5-2,0.8-3.1,0.9c-5.3,0.8-10.6,1.5-15.8,2.3c-8.7,1.3-17.3,2.5-26,3.8c-6.5,0.9-13,1.9-19.5,2.8
				c-1.9,0.3-3.7,0.6-5.7-0.1c-2.9-0.9-4.9-3.5-5.3-6.5c-0.4-2.7,0.8-4.9,2.2-7.1c1.1-1.7,2.3-3.3,3.4-5c1.3-1.9,2.5-3.9,2.5-6.3
				c0-0.8,0-1.7,0-2.5c0-5.4,0-10.9,0-16.3c0-8.4,0-16.7,0-25.1c0-8.8,0-17.6,0-26.4c0-6.7,0-13.4,0-20.1c0-3.8,0.8-9-2.3-11.8
				c-0.9-0.8-2-1-2.9-1.8c-0.5-0.5-1-1.2-1.4-1.8c-1.3-1.8-1.6-3.9-1.6-6c0-2.1,1.5-4,2.6-5.7c1-1.5,2.1-3.1,3.1-4.6
				c0.9-1.4,1.6-2.9,3-4c1.1-0.9,2.5-1.5,3.9-1.7c0.6-0.1,1.1-0.2,1.7-0.2c3.3-0.5,6.6-1,9.9-1.4c7.6-1.1,15.3-2.2,22.9-3.3
				c3.7-0.5,7.4-0.1,9.7,3.3c2.3,3.4,1.8,7.1-0.7,10.2c-1,1.3-1.9,2.8-2.8,4.2c-1,1.5-2.4,3.1-2.9,4.8c-0.3,0.9-0.3,1.8-0.3,2.7
				c0,2.2,0,4.4,0,6.5c0,8.2,0,16.5,0,24.7c0,7.3,0,14.5,0,21.8c0,1.8-0.2,3.8,0.5,5.5c1.4,3.2,5.1,4.9,8.4,3.8
				c1.8-0.6,3.1-1.9,4.5-3.1c1.4-1.2,2.8-2.2,4.4-3.3c2.9-2,6.1-3.7,9.3-5.1c1.7-0.7,3.4-1.4,5.1-2c0.9-0.3,1.6-0.6,2.5-0.7
				c0.9-0.1,1.7-0.4,2.6,0c0-5.6,0-11.2,0-16.8c0-7.5,0-15,0-22.5c0-3.9,0.3-7.7,1.2-11.4c1.5-6,4.5-11.2,8.2-16.1
				c0.7-0.9,1.2-1.9,1.8-2.9c1-1.4,2-2.8,3.1-4.1c2.2-2.6,4.8-4.9,7.7-6.8c4.6-3.1,9.6-4.9,15.1-5.6c3.5-0.5,7.1-1.2,10.7-1.5
				c5.3-0.5,10.7-0.2,15.7,1.9c11.8,4.8,18.8,17.5,18.8,29.8c0,4.2,0,8.3,0,12.5c0,8.2,0,16.4,0,24.6c0,8.4,0,16.9,0,25.3
				c0,4.9,0,9.8,0,14.7C520.3,395.4,520.3,395.6,520.3,395.9z"/>
		</g>
	</g>
	<g>
		<g>
			<g>
				<path fill="#ffffff" d="M472.7,413.3c0.5,2,1.8,3.8,3.7,4.8c1.6,0.8,3.4,0.9,5.1,0.6c4.1-0.6,7.3-3.8,8.3-7.9
					c0.4-1.6,0.3-3.4,0.3-5.1c0-7,0-13.9,0-20.9c0-10.3,0-20.6,0-30.9c0-9.5,0-19,0-28.4c0-4.5,0.1-9,0-13.4c0-3.3-1.8-6.5-5.1-7.6
					c-3.2-1-7,0.2-9.4,2.4c-2.5,2.4-3.3,5.6-3.3,8.9c0,6.1,0,12.2,0,18.4c0,10.1,0,20.2,0,30.3c0,9.9,0,19.7,0,29.6
					c0,5.4,0,10.8,0,16.2C472.4,411.5,472.5,412.4,472.7,413.3z M473.9,314.7c0-0.3-0.1-1.4,0.2-1.7c0.2-0.3,1.1-0.5,1.4-0.6
					c0.6-0.2,1.2-0.2,1.8-0.3c1.5-0.2,3,0,4.3,0.9c1.9,1.3,2.7,3.5,2.8,5.7c0,1.3,0,2.6,0,3.9c0,7,0,14.1,0,21.1
					c0,9.9,0,19.8,0,29.7c0,9.1,0,18.2,0,27.3c0,4.6,0,9.3,0,13.9c0,0.1,0,0.2,0,0.3c0,0.1,0,0.2,0,0.3c0,0.8,0,1-0.7,1.3
					c-0.8,0.4-1.6,0.6-2.5,0.7c-3.7,0.5-6.8-1.8-7.1-5.5c-0.1-1.2,0-2.4,0-3.5c0-6.6,0-13.1,0-19.7c0-9.8,0-19.6,0-29.4
					c0-9.3,0-18.7,0-28c0-5.2,0-10.5,0-15.7C473.9,315.2,473.9,314.9,473.9,314.7z"/>
			</g>
		</g>
		<g>
			<g>
				<path fill="#ffffff" d="M453.4,310.9c-2.8,4-5.5,8-7.1,12.7c-1.1,3.3-1.6,6.8-1.6,10.3c0,2.5,0,5,0,7.5c0,11.4,0,22.8,0,34.2
					c0,10.5,0,20.9,0,31.4c0,2.8-0.1,5.7,0.3,8.4c1.2,8,6,15.5,13.5,18.8c3.8,1.7,8,2.2,12.2,1.7c2.2-0.3,4.4-0.6,6.6-0.9
					c2.3-0.3,4.7-0.6,7-1.1c4.8-1,9.3-3.3,13-6.5c1.9-1.6,3.6-3.5,5.1-5.5c1.3-1.7,2.4-3.5,3.8-5.2c3.3-4.1,5.6-9,6.7-14.1
					c0.7-3.4,0.7-6.8,0.7-10.3c0-10.3,0-20.5,0-30.8c0-11.5,0-23.1,0-34.6c0-2.7,0-5.5,0-8.2c0-8.1-3.1-16.2-9.8-21.1
					c-3.9-2.9-8.5-4.3-13.3-4.3c-2.7,0-5.5,0.5-8.2,0.9c-2.4,0.3-4.7,0.7-7.1,1c-4.5,0.7-8.7,2.4-12.3,5.1
					C459,303.1,455.7,306.7,453.4,310.9C453.4,310.9,458.1,302.7,453.4,310.9z M475.3,296.7c4.2-0.6,8.4-1.4,12.6-1.8
					c5.2-0.5,10.3,0.7,14.6,3.7c4.2,2.9,7.1,7.4,8.5,12.2c1,3.5,1,7.1,1,10.7c0,3.8,0,7.6,0,11.4c0,11.6,0,23.3,0,34.9
					c0,8.7,0,17.5,0,26.2c0,4.3-0.4,8.5-2,12.6c-3,8-9.2,15-17.1,18.2c-2.5,1-5.2,1.5-7.9,1.9c-2.8,0.4-5.5,0.8-8.3,1.2
					c-3.5,0.5-6.9,0.6-10.3-0.3c-4.8-1.3-8.9-4.3-11.7-8.3c-3.3-4.8-4.3-10.3-4.3-16c0-3.2,0-6.5,0-9.7c0-11.3,0-22.5,0-33.8
					c0-9.7,0-19.3,0-29c0-2.8-0.1-5.5,0.4-8.3c1.3-8.5,6.2-16.5,13.3-21.4C467.5,298.9,471.3,297.3,475.3,296.7z"/>
			</g>
		</g>
		<g>
			<g>
				<path fill="#ffffff" d="M176,478.3c4.1-0.6,8.2-1.2,12.3-1.8c2.8-0.4,5.6-0.8,8.4-1.2c1.2-0.2,2.5-0.2,3.6-0.5
					c1.1-0.3,1.7-1.6,2.2-2.5c0.8-1.1,1.5-2.2,2.3-3.3c0.7-1,1.2-2.2,2-3c0.4-0.4,0.8-0.6,0.8-1.2c0-0.4-0.2-1-0.6-1.3
					c-0.7-0.5-1.8-0.1-2.6-0.2c-1.1-0.2-2.2-0.7-2.9-1.7c-1.1-1.4-1.1-3.2-0.9-4.9c0.3-2.5,0.7-5,1.1-7.4c0.2-1.2,0.3-2.3,0.5-3.5
					c0-0.2,0-0.5,0.1-0.7c0.2-0.3,1-0.7,1.3-0.9c0.7-0.5,1.4-1,2.1-1.5c4-2.9,7.9-6,12-8.9c1,6.6,2,13.3,3,19.9
					c0.3,1.7,0.5,3.4,0.8,5c0.1,0.4,0.5,1.8,0.3,2.1c0,0.1-0.5,0.2-0.6,0.3c-0.3,0.3-0.3,0.5-0.5,0.8c-0.4,0.8-1,1.5-1.5,2.3
					c-1.1,1.6-2.1,3.2-3.2,4.7c-0.5,0.7-1.3,1.5-1.1,2.4c0.1,0.7,0.7,1.1,1.4,1c0.1,0,0.3,0,0.4-0.1c7-0.9,13.9-2,20.9-3
					c3.8-0.5,7.6-1.1,11.3-1.6c1-0.1,2-0.3,3-0.4c1.7-0.2,2.4-2.1,3.3-3.4c1.1-1.6,2.1-3.2,3.2-4.7c0.4-0.6,1.1-1.1,1.3-1.8
					c0.1-0.7-0.3-1.6-0.9-1.8c-0.6-0.2-1.3,0.1-2,0c-0.8-0.1-1.7-0.3-2.5-0.6c-1.6-0.7-2.8-2-3.6-3.6c-0.7-1.5-0.9-3.4-1.1-5
					c-0.3-2.1-0.6-4.1-0.9-6.2c-0.1-0.4-0.1-0.8-0.2-1.3c4.8-0.2,7.7-4.3,10.1-7.8c1.3-1.9,2.5-3.8,4-5.6c1.8-2.2,3-4.8,3.5-7.6
					c1-4.9-0.2-10-3.7-13.6c-3.6-3.8-8.8-5.4-14-5.6c-1.5,0-3,0.1-4.5,0.2c-0.3,0-1.4,0.3-1.6,0.1c-0.1-0.1,0-0.2,0-0.3
					c-0.4-1-0.4-2.4-0.5-3.4c-0.8-4.9-1.5-9.9-2.3-14.8c-1.7-11.3-3.5-22.6-5.2-34c-0.2-1.2-0.4-2.5-0.6-3.7c0-0.1-0.1-0.4-0.1-0.5
					c0-0.1,0.6-0.5,0.7-0.6c0.2-0.3,0.4-0.6,0.6-0.8c0.4-0.6,0.8-1.1,1.1-1.7c0.8-1.2,1.6-2.4,2.5-3.6c0.3-0.5,0.6-0.9,0.9-1.4
					c0.3-0.4,0.8-0.7,1-1.2c0.5-1.1-0.4-2.1-1.5-2c-0.2,0-0.5,0.1-0.7,0.1c-1.7,0.2-3.3,0.5-5,0.7c-10.7,1.5-21.4,3.1-32.2,4.6
					c-0.4,0.1-0.8,0.1-1.1,0.2c-0.4,0.1-0.8,0.3-1.1,0.6c-0.3,0.4-0.4,0.9-0.7,1.3c-0.4,0.6-0.9,1.3-1.3,1.9c-0.7,1-1.4,2-2.1,3.1
					c-0.6,0.9-2.2,2.4-2,3.7c0.2,1.4,1.6,0.9,2.6,1c1.1,0.1,2.2,0.5,3,1.3c2.1,2.1,1.4,5.2,1,7.9c-1.2,8.2-2.3,16.4-3.5,24.6
					c-1.8,12.3-3.5,24.7-5.3,37c-1.6,11.1-3.2,22.2-4.8,33.3c-0.5,3.4-1,6.8-1.5,10.2c-0.1,0.9-0.2,1.7-0.4,2.6c0,0.1,0,0.4-0.1,0.5
					c0,0,0,0,0,0.1c-0.2,0.3-1.3,0.6-1.7,0.7c-0.5,0.2-1.2,0.2-1.7,0.5c-0.4,0.3-0.4,0.7-0.6,1.1c-0.3,0.6-0.8,1.1-1.1,1.7
					c-0.7,1-1.4,2-2.1,3.1c-0.7,1.1-1.6,2.2-2.3,3.3C174.4,477,174.7,478.5,176,478.3z M249.2,426.3c-0.7,0.1-0.9,0.6-1.2,1.2
					c-0.2,0.5-0.5,0.9-0.8,1.4c-0.2-1.5-0.4-2.9-0.7-4.4c1,0.2,2.4,0.8,2.9,1.8C249.4,426.3,249.3,426.3,249.2,426.3z M191.5,457.8
					c1.1-7.9,2.3-15.8,3.4-23.7c0.7-4.8,1.4-9.7,2.1-14.5c1.5-10.6,3-21.2,4.6-31.9c1.4-9.6,2.8-19.3,4.1-28.9
					c0.3-2.1,0.6-4.2,0.9-6.4c0.1-1,0.3-2.1,0.4-3.1c0.4-3.1,1.2-6.5-0.9-9.1c-1.3-1.6-3.5-2.3-5.6-2c5.2-0.7,10.4-1.5,15.5-2.2
					c5.1-0.7,10.1-1.5,15.2-2.2c2.8-0.4,5.5-0.8,8.3-1.2c-4.6,0.7-7.5,5.2-7,9.7c0.2,2,0.6,4,0.9,6c0.4,2.7,0.8,5.4,1.2,8.1
					c1.8,11.7,3.6,23.5,5.4,35.2c0.5,3.2,1,6.3,1.4,9.5c4.2-0.7,8.6-1,12.7,0.2c5.1,1.5,9.5,5.2,10.8,10.5c1.1,4.8-0.6,10-3.8,13.6
					c-1.4,1.6-3.3,2.8-5.4,3.3c-1.2,0.3-2.3,0.3-3.5,0.2c-0.4,0-2.9-0.5-2.8-1.1c0-0.1,2.4-0.8,2.8-1c1.4-0.7,2.7-1.7,3.6-3
					c1.3-1.9,1.7-4.7,0.8-6.8c0-0.4-0.6-1-0.9-1.3c-0.9-0.8-2-1.2-3.2-1.4c-2.4-0.5-4.7-0.3-7.1,0c0.1,0,0.1,0,0.2,0c0,0-0.1,0,0,0
					c-0.4,0.1-2,0.2-2.1,0.4c-0.1,0.1,0.1,0.5,0.1,0.6c0.2,1.1,0.3,2.1,0.5,3.2c0.6,3.7,1.1,7.4,1.7,11.1c0.8,5.3,1.6,10.5,2.4,15.8
					c0.3,1.9,0.4,4.2,1.1,6c1.4,3.7,5.1,6.4,9.2,5.8c-4.1,0.6-8.3,1.2-12.4,1.8c-5.2,0.7-10.3,1.5-15.5,2.2
					c-2.8,0.4-5.5,0.8-8.3,1.2c4.8-0.7,7.6-5.5,6.9-10.1c-0.3-2-0.6-4-0.9-6c-0.9-5.8-1.8-11.5-2.6-17.3c-0.3-2.1-0.6-4.2-1-6.2
					c-4.2,2.9-8.2,6-12.3,9c-2.4,1.8-4.9,3.5-7.5,5.1c-0.5,0.3-1,0.6-1.5,0.9c-0.4,0.3-1.3,0.5-1.6,0.9c-0.1,0.2-0.1,0.4-0.2,0.7
					c-0.7,5.1-1.5,10.1-2.2,15.2c-0.3,1.9-0.7,3.9-0.1,5.8c0.9,3,3.7,4.8,6.8,4.3c-6.1,0.9-12.2,1.8-18.3,2.6c-2,0.3-4,0.6-6,0.9
					C186.9,467.4,190.8,462.6,191.5,457.8z"/>
			</g>
		</g>
		<g>
			<g>
				<path fill="#ffffff" d="M214.3,415.1c1.2-1.1,2.5-2.1,3.8-3.2c0.4-0.3,0.8-0.7,1.3-1c0.6-0.4,1.2-0.8,1.8-1.3
					c0.3-0.2,1.4-0.7,1.5-1c0.2-0.4-0.2-1.5-0.3-1.9c-0.6-4-1.2-8.1-1.9-12.1c-1.7-11.2-3.4-22.4-5.1-33.6c-0.4-2.8-0.8-5.5-1.3-8.3
					c-0.3,2.4-0.7,4.8-1,7.2c-0.8,5.8-1.7,11.6-2.5,17.3c-1,7-2,13.9-3,20.9c-0.9,6-1.7,12-2.6,18.1c-0.3,2-0.6,4-0.9,6
					c-0.1,0.6-0.2,1.2-0.3,1.9c0,0.2-0.2,0.8-0.1,1c0,0,0,0.1,0,0.1C207.2,421.8,210.6,418.3,214.3,415.1
					C215.1,414.4,211.1,417.8,214.3,415.1z M210.7,387.1c0.6,3.9,1.2,7.8,1.8,11.7c0.4,2.9,0.9,5.8,1.3,8.6c0.2,1.1,0.3,2.2,0.5,3.3
					c0.1,0.6,0.3,1.3,0.3,1.9c0,0.4,0.1,0.1-0.2,0.5c-0.5,0.7-1.6,1.4-2.3,2c-2.2,1.9-4.2,4-6.3,6c0.5-3.8,1.1-7.6,1.6-11.4
					c0.9-6.1,1.7-12.2,2.6-18.3C210.3,389.9,210.5,388.5,210.7,387.1z"/>
			</g>
		</g>
		<g>
			<g>
				<path fill="#ffffff" d="M324,430.8c0-4.2,0-8.4,0-12.6c0-9.5,0-18.9,0-28.4c0-10.3,0-20.6,0-30.9c0-6.5,0-12.9,0-19.4
					c0-3.3-0.5-6.6-3.6-8.5c-2.3-1.4-4.7-1-7.2-0.6c-2.4,0.3-4.7,0.7-7.1,1c-0.7,0.1-0.8,0-0.8,0.8c0,1.1,0,2.1,0,3.2
					c0,0.9,0,1.8,0,2.7c0,1.6,0,3.2,0,4.7c0,7.8,0,15.5,0,23.3c0,10.5,0,20.9,0,31.4c0,9.1,0,18.1,0,27.2c0,3.8,0,7.6,0,11.4
					c0,2.1-0.2,4.2,0.1,6.3c3.1-0.4,6.2-0.9,9.3-1.3c2-0.3,3.9-0.9,5.5-2.2C322.5,436.9,324,433.9,324,430.8z M316.7,439.2
					c-1.6,0.6-3.5,0.6-5.2,0.9c-1.6,0.2-3.1,0.4-4.7,0.7c0-3.4,0-6.8,0-10.1c0-8,0-16,0-24.1c0-9.7,0-19.5,0-29.2
					c0-8.3,0-16.6,0-24.9c0-2.7,0-5.4,0-8.1c0-0.8,0-1.6,0-2.4c0-0.3-0.1-1,0-1.2c0.1-0.2,0.1,0,0.4-0.1c0.8-0.3,1.9-0.3,2.7-0.4
					c3.2-0.4,6,1.8,6.7,5c0.3,1.3,0.1,2.7,0.1,4c0,6.3,0,12.5,0,18.8c0,9.4,0,18.7,0,28.1c0,9,0,18,0,27c0,5.1,0,10.2,0,15.2
					C316.7,438.7,316.7,439,316.7,439.2z"/>
			</g>
		</g>
		<g>
			<g>
				<path fill="#ffffff" d="M272.6,459.3c-0.5,0.6-0.9,1.3-1.3,1.9c-0.4,0.6-1.1,1.3-1,2.1c0.1,0.8,0.7,1.2,1.4,1.2
					c0.5,0,1-0.1,1.5-0.2c2.6-0.4,5.2-0.7,7.7-1.1c7-1,14.1-2,21.1-3c5.9-0.8,11.8-1.5,17.2-4.2c5.3-2.6,9.9-6.5,13.5-11.1
					c1.9-2.4,3.6-5.1,5.4-7.7c1.8-2.6,3.7-5,5.1-7.7c3-5.6,4.7-11.9,4.9-18.3c0-1.2,0-2.4,0-3.6c0-5.6,0-11.2,0-16.7
					c0-7.4,0-14.8,0-22.3c0-5.1,0-10.3,0-15.4c0-8.8-2.3-17.5-8.4-24.2c-4.1-4.4-9.6-7.5-15.5-8.5c-3.5-0.6-7.1-0.5-10.7,0
					c-5.9,0.8-11.8,1.7-17.7,2.5c-5.9,0.8-11.8,1.7-17.7,2.5c-0.4,0.1-0.9,0.1-1.2,0.2c-0.7,0.2-0.7,0.7-1,1.3
					c-0.3,0.6-0.9,1.3-1.3,1.8c-0.9,1.3-1.8,2.7-2.7,4c-0.6,1-2.3,2.6-1.6,3.8c0.6,1,2.3,0.4,3.2,0.6c2.4,0.5,4.2,2.4,4.7,4.8
					c0.5,2.2,0.2,4.7,0.2,6.9c0,4.8,0,9.7,0,14.5c0,6.8,0,13.6,0,20.4c0,7.6,0,15.1,0,22.7c0,7.1,0,14.2,0,21.3c0,5.5,0,11,0,16.4
					c0,1.8,0,3.5,0,5.3c0,0.8,0.2,2,0,2.8c-0.1,0.5-0.2,0.4-0.9,0.5c-0.6,0.1-1.1,0.3-1.4,0.9c-0.3,0.6-0.5,1.1-0.9,1.6
					C274.3,456.7,273.4,458,272.6,459.3C272.5,459.4,272.6,459.2,272.6,459.3z M285.1,447.9c1.1-3.1,0.7-6.7,0.7-10c0-2,0-4,0-6.1
					c0-8.8,0-17.6,0-26.4c0-11.2,0-22.4,0-33.5c0-8.5,0-17.1,0-25.6c0-1.8,0-3.5,0-5.3c0-3.9,0.8-8.9-2.3-11.9c-1.5-1.6-3.8-2.3-6-2
					c4.5-0.7,9.1-1.3,13.6-2c4.7-0.7,9.4-1.4,14.2-2c6.5-0.9,13.4-2.6,19.9-1c5.7,1.4,10.9,4.5,14.6,9.1c3.8,4.7,5.9,10.3,6.7,16.3
					c0.5,3.6,0.3,7.4,0.3,11c0,6.1,0,12.2,0,18.3c0,6.7,0,13.4,0,20.1c0,4.1,0,8.2,0,12.3c0,7.6-2,15.1-5.9,21.6
					c-5,8.3-12.9,14.9-22.3,17.4c-1.7,0.5-3.4,0.7-5.2,1c0.1,0,0.3,0,0.4,0c-4.1,0.6-8.3,1.2-12.4,1.8c-5.2,0.7-10.3,1.5-15.5,2.2
					c-2.8,0.4-5.5,0.8-8.3,1.2C281,453.9,283.9,451.2,285.1,447.9C285.5,446.7,283.8,451.3,285.1,447.9z"/>
			</g>
		</g>
		<g>
			<g>
				<path fill="#ffffff" d="M437.9,381.8c-0.6-1.1-1.9-0.5-2.8-0.2c-1.2,0.4-2.3,0.8-3.5,1.3c-2.1,0.9-4.2,1.9-6.1,3
					c-3.8,2.2-7.3,4.8-10.4,7.9c-1.7,1.6-3.2,3.4-4.6,5.3c-1.4,1.8-2.5,3.8-3.8,5.7c-1.5,2.1-2.9,4.3-4.4,6.4
					c-3.3,4.9-4.8,10.7-6.3,16.4c-2.3-0.5-1.9-3-1.9-4.7c0-2.5,0-5.1,0-7.6c0-8.7,0-17.5,0-26.2c0-10.6,0-21.1,0-31.7
					c0-8.9,0-17.7,0-26.6c0-2.7,0-5.4,0-8.1c0-0.7,0-1.4,0-2.1c0-1,0.1-0.5,1.2-0.9c0.9-0.4,1.4-1.6,2-2.4c0.7-1,1.3-1.9,2-2.9
					c0.6-0.9,1.2-1.8,1.8-2.6c0.5-0.8,1.5-1.4,1.3-2.4c-0.4-1.5-1.7-1.1-2.8-1c-3.9,0.6-7.7,1.1-11.6,1.7
					c-5.1,0.7-10.2,1.5-15.3,2.2c-2.7,0.4-5.5,0.6-8.1,1.2c-0.3,0.1-0.6,0.2-0.9,0.5c-0.3,0.3-0.3,0.7-0.5,1.1
					c-0.3,0.6-0.8,1.1-1.1,1.7c-1.3,1.9-2.5,3.8-3.8,5.6c-0.3,0.4-0.6,0.8-0.7,1.3c0,0.1,0,0.2,0,0.3c0,0.3,0.2,0.7,0.4,0.9
					c0.1,0.1,0.2,0.2,0.4,0.2c0.2,0.1,0.3,0,0.5,0c1.8,0,3.3,0.1,4.7,1.3c1.5,1.3,2.2,3.2,2.3,5.2c0,1,0,2,0,3c0,6.7,0,13.4,0,20.1
					c0,10.1,0,20.3,0,30.4c0,10.2,0,20.4,0,30.6c0,7,0,13.9,0,20.9c0,0.8,0,1.7,0,2.5c0,0.2,0.1,0.9,0,1.1c-0.1,0.2,0.4-0.3-0.2,0.1
					c-0.3,0.3-1,0.2-1.3,0.3c-0.5,0.2-0.7,0.5-1,1c-0.8,1.9-2.3,3.6-3.5,5.3c-0.7,1-3.7,4.2-1.7,5.1c0.3,0.2,0.6,0.1,0.9,0.1
					c6.5-0.8,13-1.9,19.4-2.8c10.2-1.5,20.4-2.9,30.6-4.4c3.5-0.5,7-1,10.5-1.5c0.9-0.1,1.8-0.2,2.6-0.4c0.1,0,0.3,0,0.4-0.1
					c0.7-0.2,1-0.6,1.4-1.2c0.7-1,1.3-1.9,2-2.9c0.6-0.9,1.3-1.9,1.9-2.8c0.3-0.4,0.6-0.8,0.9-1.3c0.3-0.4,0.7-0.7,1-1.1
					c0.4-0.7,0.2-1.8-0.5-2.2c-0.4-0.2-0.8-0.1-1.2-0.1c-0.5,0-1-0.1-1.5-0.2c-4.3-1.4-5.7-6.9-6.2-10.8c-0.7-4.8-0.2-9.8,1.1-14.5
					c0.7-2.3,1.5-4.5,2.6-6.7c0.5-1.1,1.5-1.8,2.3-2.6c0.9-0.8,1.8-1.6,2.7-2.3c0.8-0.6,2.1-1.2,2.7-2c0.4-0.5,0.6-1.1,1-1.5
					c0.6-0.9,1.2-1.8,1.9-2.7c0.6-0.9,1.2-1.8,1.8-2.6c0.3-0.5,0.6-1,1.1-1.4C438.1,383.3,438.4,382.6,437.9,381.8
					C437.6,381.3,437.9,381.9,437.9,381.8z M426.2,392.5c-3.6,5-6.1,10.8-7.2,16.8c-0.6,3.2-0.7,6.5-0.4,9.7c0.3,3,0.8,6.2,2.3,8.8
					c1.5,2.6,4.2,5.4,7.5,4.9c-8.6,1.2-17.3,2.5-25.9,3.7c-8.2,1.2-16.4,2.3-24.5,3.5c-4.5,0.6-8.9,1.3-13.4,1.9
					c4.2-0.6,7.4-4.4,8.1-8.4c0.4-2.4,0.1-4.9,0.1-7.3c0-2,0-4,0-5.9c0-10.8,0-21.5,0-32.3c0-6.3,0-12.6,0-18.9c0-9.4,0-18.8,0-28.1
					c0-3.9,0-7.9,0-11.8c0-4,0.8-9.1-2.1-12.2c-1.6-1.7-3.9-2.4-6.2-2.1c4.1-0.6,8.3-1.2,12.4-1.8c5.2-0.7,10.3-1.5,15.5-2.2
					c2.7-0.4,5.5-0.8,8.2-1.2c-4.9,0.7-8.2,5.5-8.3,10.2c0,2,0,4,0,5.9c0,4.2,0,8.4,0,12.5c0,6.7,0,13.3,0,20c0,3.5,0,7.1,0,10.6
					c0,5.1,0,10.3,0,15.4c0,3.1,0,6.2,0,9.2c0,5.9,0,11.8,0,17.6c0,4.6-0.1,9.3,0,13.9c0.1,2.1,1.3,3.8,3.5,4.1
					c1.8,0.3,3.6-1.3,4.5-2.7c1.2-1.9,1.8-4.1,2.4-6.2c0.7-2.7,1.4-5.4,2.2-8.1c3.6-11.4,12.6-20.8,23.2-26.2
					c2.7-1.4,5.5-2.5,8.3-3.4C432.6,385.2,429.1,388.6,426.2,392.5C421.4,399,429.1,388.5,426.2,392.5z"/>
			</g>
		</g>
		<g>
			<g>
				<path fill="#ffffff" d="M84.3,316.2c0.8-0.1,1.8,0.4,2.5,0.8c1,0.5,1.9,1.1,2.8,1.8c1.7,1.3,3.1,3,4.1,4.9c1,2,1.7,4.1,2.6,6.2
					c1.2,3.1,2.4,6.2,3.5,9.3c2.7,7.3,5.4,14.5,7.7,21.9c2.3,7,4.2,14.1,6,21.2c1.8,7.1,3.3,14.2,4.6,21.3c0.3,1.7,0.6,3.3,0.9,5
					c0.2,1.2,0.5,2.5,0.6,3.8c0.1,3.1,0,6.2,0,9.3c0,10.2,0,20.4,0,30.7c0,3,0,6,0,9c0,2.2-0.1,4.3-0.3,6.5c-0.2,2-0.3,4.3-1.2,6.1
					c-0.3,0.5-0.8,1-1.2,1.5c-0.2,0.3-0.4,0.6-0.7,0.8c-0.3,0.3-0.6,0.7-0.9,0.9c-0.3,0.2-0.6,0.2-1,0.4c-0.8,0.6-0.6,1.2-0.9,2
					c-0.1,0.5-0.6,0.8-0.9,1.2c-0.4,0.5-0.8,1-1.3,1.5c-1,1-3,2-3.2,3.5c-0.2,1.3,0.7,2.2,2,2.1c2.4-0.2,4.9-0.7,7.3-1
					c10.3-1.5,20.5-2.9,30.8-4.4c3.5-0.5,7.1-1,10.6-1.5c0.8-0.1,1.7-0.1,2.3-0.6c0.8-0.6,1.1-1.6,1.6-2.4c0.3-0.6,0.7-1.2,1.1-1.6
					c0.3-0.3,0.5-0.6,0.8-0.9c0.3-0.3,0.5-0.8,0.8-1c0.5-0.4,1.3-0.3,1.8-0.9c0.7-0.8,0.6-1.9,0-2.7c-0.7-0.9-1.5-0.6-2.5-0.6
					c-1.1,0-2.1-0.1-3.1-0.5c-1.7-0.6-3.6-2-4.3-3.8c-0.6-1.3-0.7-3-0.8-4.4c-0.3-3.2-0.3-6.4-0.3-9.6c0-9.9,0-19.9,0-29.8
					c0-4.4,0-8.8,0-13.2c0-2.2,0.1-4.2,0.4-6.5c1-7.1,2.2-14.2,3.6-21.2c1.4-7.2,2.9-14.4,4.6-21.6c1.8-7.3,3.5-14.6,5.7-21.8
					c2.2-7.4,4.7-14.8,7.1-22.1c0.5-1.4,1-2.7,1.4-4.1c0.4-1.1,0.8-2.2,1.2-3.3c0.1-0.2,0.1-0.4,0.2-0.5c0.1-0.2,0.3-0.1,0.4-0.2
					c0.1-0.1,0.3-0.4,0.4-0.5c0.3-0.3,0.6-0.6,1-0.9c0.6-0.5,1.1-1.1,1.6-1.6c0.1-0.1,0.2-0.2,0.3-0.3c0.1-0.1,0.4-0.3,0.5-0.4
					c0.3-0.4,0.6-0.7,0.9-1.1c0.1-0.1,0.3-0.1,0.3-0.1c0.1-0.1,0.1-0.2,0.2-0.3c0.1-0.2,0.2-0.3,0.5-0.4c0.4-0.4,0.6-0.8,1-1.2
					c0.8-0.7,2.1-0.4,2.9-1.1c0.6-0.6,1-1.5,1.4-2.2c0.3-0.5,0.7-1.1,1-1.5c0.3-0.4,0.6-0.7,0.9-1c0.4-0.4,0.9-0.7,1.3-1.1
					c0.4-0.3,0.9-0.5,1.2-0.8c1.5-1.4,0.1-3.7-1.8-3.5c-0.1,0-0.3,0-0.4,0.1c-1.1,0.1-2.2,0.3-3.2,0.5c-4.3,0.6-8.7,1.2-13,1.9
					c-9.8,1.4-19.6,2.8-29.4,4.2c-1.8,0.3-6.6,0.2-5.7,3.2c-0.5,0-1.1,1-1.4,1.4c-0.5,0.6-1.1,1.2-1.7,1.8c-1.2,1-3.3,2.4-1.9,4.2
					c0.7,0.8,1.6,0.5,2.5,0.5c1,0,2.1,0.2,2.9,0.7c3.1,2,1.7,6.5,0.9,9.4c-0.6,2-1.1,3.9-1.8,5.9c-0.6,1.9-2.8,8.5-5.6,5.2
					c-0.9-1-1.5-2.3-1.9-3.6c-0.7-2.2-1.5-4.3-2.2-6.5c-0.6-1.9-1.2-3.7-1.9-5.6c-0.2-0.6-0.4-1.1-0.6-1.7c-0.1-0.6-0.2-1.1-0.3-1.7
					c0-0.2-0.1-0.7,0-0.8c0.1-0.1,0.5-0.1,0.6-0.2c0.9-0.4,1.2-1.4,1.7-2.1c0.4-0.7,0.9-1.4,1.3-2c0.7-0.9,1.8-1.8,2.8-2.5
					c0.8-0.5,1.4-1.2,1.2-2.2c-0.2-1.1-1-1.8-2.1-1.8c-0.6,0-1.2,0.1-1.8,0.2c-9,1.3-18,2.6-26.9,3.9c-4.9,0.7-9.8,1.4-14.7,2.1
					c-2.3,0.3-4.6,0.5-6.9,1c-1.3,0.2-2.1,1.3-1.7,2.6c-0.5,0-1.1,1.2-1.5,1.5c-0.6,0.7-1.2,1.3-2,2c-0.7,0.6-1.5,1-1.8,1.9
					c-0.4,1-0.1,2.2,1,2.6c0.4,0.1,0.9,0.1,1.3,0.1c0.5,0,1,0.2,1.4,0.2c0.4,0,0.9,0.1,1.3,0.2C83.3,316.1,84,316,84.3,316.2
					C84.4,316.2,84.2,316.2,84.3,316.2z M122.8,465.7c0-3.4,0-6.8,0-10.1c0-5,0-9.9,0-14.9c0-7.4,0-14.9,0-22.3c0-7,0-13.9,0-20.9
					c0-2.4,0-4.8,0-7.2c0-1.2,0.1-2.5,0-3.7c0-0.5-0.2-0.9-0.4-1.3c-0.6-1.7-1.3-3.4-1.9-5.2c-2.3-6.1-4.5-12.2-6.8-18.4
					c-2.6-7-5.1-14-7.7-21c-1.7-4.6-3.4-9.2-5.1-13.8c-0.3-0.8-0.6-1.6-0.9-2.4c-1.2-3.1-2.2-6.5-4.1-9.3c-1.6-2.4-3.8-4.3-6.3-5.7
					c5,1.2,8.6,5,10.4,9.7c0.9,2.2,1.8,4.4,2.7,6.6c1.4,3.7,2.7,7.4,4.1,11.1c2.6,7,5.2,14.1,7.8,21.1c2.5,6.7,4.9,13.4,7.4,20.1
					c0.8,2.1,1.5,4.1,2.3,6.2c0.2,0.6,0.6,1.2,0.7,1.9c0.1,0.9,0,2,0,3c0,2.2,0,4.4,0,6.7c0,6.8,0,13.7,0,20.5c0,7.9,0,15.7,0,23.6
					c0,6.3,0,12.6,0,18.8c0,3.6,0.5,7.7-0.9,11.1c-1.1,2.6-3,4.9-5.5,6.2C121.1,473.3,122.8,469.5,122.8,465.7z M144.7,298.6
					C144.7,298.6,144.7,298.6,144.7,298.6L144.7,298.6z M147.4,310.6c1.1-3.2,1.6-7.6-1.3-10.1c7.6,0,2.8,11.1,1.5,15.3
					c-2,6.6-4,13.2-6,19.8c-0.5,1.7-1,3.4-1.5,5.1c-0.2-0.5-0.3-1-0.5-1.4c-0.1-0.4-0.5-1-0.5-1.4c0-0.3,0.2-0.7,0.3-0.9
					c0.6-2,1.2-4,1.8-5.9c1.6-5.5,3.3-10.9,4.9-16.4C146.6,313.3,147,312,147.4,310.6z M96.7,305.4c5.3-0.8,10.6-1.5,15.8-2.3
					c4.4-0.6,8.9-1.3,13.3-1.9c3.2-0.5,6.3-0.9,9.5-1.4c-2.8,0.4-5.3,1.9-6.6,4.4c-1.4,2.6-1.3,5.7-0.3,8.4c0.7,2.1,1.4,4.2,2.2,6.3
					c2.4,7.1,4.9,14.3,7.3,21.4c0.8,2.4,1.6,4.8,2.4,7.1c1.8-5.9,3.6-11.8,5.3-17.7c2-6.6,3.9-13.1,5.9-19.7
					c0.8-2.5,1.4-5.2,0.5-7.7c-1.1-3.1-4.2-4.3-7.3-3.9c5.7-0.8,11.5-1.6,17.2-2.5c7.2-1,14.3-2.1,21.5-3.1
					c3.8-0.5,7.6-1.1,11.4-1.6c-6.3,0.9-11.7,6.2-14.6,11.6c-1.8,3.3-2.8,7.2-4.1,10.7c-1.1,3.1-2,6.2-3,9.3
					c-2.4,7.3-4.7,14.6-7.1,21.8c-2.5,7.9-5.1,15.7-7.6,23.6c-1.4,4.3-3.1,8.6-4.2,13c-0.1,0.6-0.1,1.1-0.1,1.7c0,2.1,0,4.3,0,6.4
					c0,7.5,0,15,0,22.6c0,8.3,0,16.7,0,25c0,5,0,10.1,0,15.1c0,1.7,0,3.5,0,5.2c0,1.6-0.1,3.1,0,4.7c0.2,2.8,1.4,5.6,3.5,7.5
					c2.2,1.9,5.1,2.7,7.9,2.3c-5.7,0.8-11.4,1.6-17.1,2.5c-7.2,1-14.4,2.1-21.6,3.1c-3.8,0.5-7.6,1.1-11.4,1.6
					c5.9-0.8,10.4-6.1,11.3-11.8c0.5-3.3,0.2-6.8,0.2-10.1c0-3.1,0-6.2,0-9.2c0-7.3,0-14.7,0-22c0-8,0-16.1,0-24.1
					c0-5,0-10.1,0-15.1c0-2.2-1.1-4.2-1.9-6.2c-2.4-6.5-4.8-13-7.2-19.5c-2.8-7.5-5.5-15.1-8.3-22.6c-1.6-4.4-3.2-8.8-4.9-13.2
					c-0.7-1.9-1.5-3.8-2.3-5.7c-0.6-1.5-1.2-3.1-2-4.5c-1.6-2.7-3.9-4.8-6.7-6.3c-2.6-1.4-5.6-2.1-8.5-1.7
					C89.1,306.5,92.9,306,96.7,305.4z"/>
			</g>
		</g>
	</g>
</g>
</svg>
