<?xml version="1.0" encoding="utf-8"?>
<!-- Generator: Adobe Illustrator 18.1.1, SVG Export Plug-In . SVG Version: 6.00 Build 0)  -->
<svg version="1.1" xmlns="http://www.w3.org/2000/svg" xmlns:xlink="http://www.w3.org/1999/xlink" x="0px" y="0px"
	 viewBox="-0.2 -0.2 100.5 126.2" enable-background="new -0.2 -0.2 100.5 126.2" xml:space="preserve">
<g id="Calque_2">
</g>
<g id="Calque_1">
	<g>
		<g>
			<g>
				<g id="XMLID_1_">
					<g>
						<path fill="#FFFFFF" d="M89.1,51c-0.8,0.1-1.5,0.1-2.2-0.1c-1-0.2-1.9-0.9-2.5-1.8c-0.8-1-0.9-2.2-0.9-3.5c0-0.8,0-1.4,0-2.1
							c0-2.5,0-4.9,0-7.3c0-2.1,0-4.1,0-6.2c0-0.6,0-1.2,0.1-1.8c0.2-1.9,1.4-3.6,2.9-4.6c0.5-0.4,1.4-0.8,2.2-0.9
							c0.2,0,0.5-0.1,0.8-0.1l0.3,1.8c-0.4,0.1-0.7,0.3-1,0.6c-0.5,0.5-0.8,1.2-0.8,1.9c0,1.4,0,2.6,0,4c0,2.1,0,4.4,0,6.5
							c0,2.1,0,4.2,0,6.4c0,1.1,0,2.4,0,3.5c0.1,0.4,0.1,0.5,0.1,0.8c0.1,0.4,0.4,0.9,0.8,1c0.3,0.1,0.5,0.2,0.8,0.2l0.2,1.7
							C89.6,51,89.3,51,89.1,51z"/>
						<path fill="#24245D" d="M5.2,25.8c0.5,0.4,1,0.8,1.4,1.2c0.4,0.6,0.6,1.4,0.9,2c0.1,0.1,0.1,0.4,0.2,0.5c0.4,1,0.8,2,1.1,3
							c0.5,1.5,1.1,3,1.6,4.5c0.5,1.4,1,2.6,1.5,4c0.1,0.4,0.2,0.8,0.4,1.1c0.1,0,0.1,0.1,0.1,0.2c0,0.2,0,0.5,0,0.8
							c0,0.5,0,1,0,1.5c0,1.5,0,3,0,4.5c0,1.6,0,3.2,0,4.9c0,1.1,0,2.1,0,3.2c0,0.6,0,1.4,0,2.1s-0.4,1.6-1.1,2.4
							c0.6-0.4,1-0.9,1.2-1.4c0.4-0.8,0.2-1.6,0.2-2.4c0-1.4,0-2.8,0-4.1c0-1.8,0-3.4,0-5.1c0-1.4,0-2.9,0-4.4c0-0.5,0-1,0-1.5
							c0-0.2,0-0.4,0-0.6c0-0.1-0.1-0.2-0.1-0.4c-0.1-0.5-0.4-0.9-0.5-1.4c-0.6-1.5-1.1-2.9-1.6-4.4s-1.1-3-1.6-4.5
							c-0.2-0.8-0.6-1.6-0.9-2.4c-0.3-0.4-0.4-0.9-0.6-1.4C7.1,26.9,6.3,26,5.2,25.8z M3.2,24.9c0.1-0.1,0.2-0.4,0.4-0.4
							C3.5,24.3,3.7,24,4,24c0.5-0.1,1-0.1,1.5-0.2c1-0.2,2.1-0.4,3.1-0.5c2-0.4,3.9-0.6,5.9-0.9c0.1,0,0.2,0,0.4,0
							c0.2,0,0.5,0.1,0.5,0.4s-0.1,0.4-0.2,0.5c-0.2,0.1-0.3,0.2-0.4,0.3c-0.5,0-1,0.1-1.6,0.2c-1,0.1-1.9,0.2-2.9,0.4
							c-1.1,0.1-2.2,0.4-3.4,0.5C6,24.8,5.2,24.9,4.6,25c0.6-0.1,1.4,0.1,1.9,0.4c0.6,0.4,1.1,0.8,1.5,1.4c0.1,0.4,0.2,0.6,0.4,1
							c0.1,0.4,0.4,0.9,0.5,1.2c0.2,1,0.6,1.9,1,2.9c0.5,1.6,1.1,3.2,1.8,4.9c0.5,1.5,1,2.9,1.5,4.3c0.1,0.5,0.4,0.9,0.4,1.4
							c0,1.1,0,2.1,0,3.2c0,1.8,0,3.5,0,5.2c0,1.6,0,3.1,0,4.8c0,0.6,0,1.4,0,2c0,0.6,0.1,1.4,0,2.1c-0.2,1.1-1.1,2.2-2.3,2.5
							c-0.1,0-0.1,0-0.2,0c0.1,0,0.1,0,0.2,0c0.8-0.1,1.5-0.2,2.3-0.3c1.5-0.1,3.1-0.4,4.6-0.6c1.1-0.1,2.3-0.3,3.5-0.5
							c0,0.1,0,0.2-0.1,0.2c-0.1,0.1-0.2,0.1-0.4,0.2c0,0.1,0,0.1-0.1,0.2c0,0.1,0,0.1-0.1,0.2c-0.1,0.1-0.1,0.2-0.2,0.4
							c-0.1,0.1-0.2,0.4-0.4,0.5c-0.1,0.1-0.4,0.1-0.5,0.1c-0.8,0.1-1.5,0.2-2.2,0.4c-2.2,0.4-4.4,0.6-6.6,1
							c-0.6,0.1-1.1,0.2-1.6,0.2c-0.2,0-0.4-0.2-0.4-0.5c0.1-0.4,0.5-0.5,0.8-0.8c0.1-0.1,0.1-0.2,0.2-0.4c0.1-0.1,0.2-0.1,0.2-0.2
							c0.1-0.1,0.1-0.2,0.2-0.4c0.1-0.1,0.1,0,0.2-0.1c0.1-0.1,0.1-0.1,0.2-0.2c0,0,0.1,0,0.1-0.1c0.1-0.1,0.1-0.2,0.2-0.4
							c0.1-0.5,0.2-1,0.2-1.4c0.1-0.5,0.1-0.9,0.1-1.4c0-0.8,0-1.4,0-2c0-2.2,0-4.4,0-6.6c0-0.6,0-1.4,0-2c0-0.4-0.1-0.6-0.1-0.9
							c-0.1-0.4-0.1-0.8-0.2-1.1c-0.2-1.5-0.6-3-1-4.6c-0.4-1.6-0.8-3.1-1.2-4.6c-0.5-1.6-1-3.1-1.6-4.8c-0.2-0.6-0.5-1.4-0.8-2
							c-0.1-0.5-0.2-1-0.5-1.4c-0.2-0.4-0.5-0.8-0.9-1c-0.2-0.1-0.4-0.2-0.6-0.4c-0.1,0-0.4-0.1-0.5-0.1c0,0-0.1,0-0.6-0.9
							c0,0-0.1,0-0.2,0c0,0-0.1,0-0.2,0c0,0-0.1,0-0.2,0c-0.2,0-0.4-0.2-0.2-0.5c0-0.1,0.2-0.2,0.4-0.4C3,25.2,3.1,25,3.2,24.9z"/>
						<path fill="#24245D" d="M28,21.8c-0.2,0-0.3,0.1-0.5,0.1c0,0,0,0,0.1-0.1l0,0C27.7,21.8,27.8,21.8,28,21.8z"/>
						<path fill="#FFFFFF" d="M3.6,24.5c-0.1,0-0.2,0.2-0.4,0.4C3.1,25,3,25.2,2.8,25.3c-0.1,0.1-0.4,0.2-0.4,0.4
							c-0.1,0.2,0,0.5,0.2,0.5c0.1,0,0.2,0,0.2,0c0.1,0,0.2,0,0.2,0c0.1,0,0.2,0,0.2,0C4,27,4.1,27,4.1,27c0.1,0,0.4,0.1,0.5,0.1
							c0.2,0.1,0.4,0.2,0.6,0.4c0.4,0.2,0.6,0.6,0.9,1c0.2,0.4,0.4,0.9,0.5,1.4c0.2,0.6,0.5,1.4,0.8,2C8,33.5,8.5,35,9,36.7
							c0.5,1.5,0.9,3,1.2,4.6c0.4,1.6,0.8,3.1,1,4.6c0.1,0.4,0.1,0.8,0.2,1.1c0,0.2,0.1,0.5,0.1,0.9c0,0.6,0,1.4,0,2
							c0,2.2,0,4.4,0,6.6c0,0.6,0,1.2,0,2c0,0.5,0,0.9-0.1,1.4c0,0.4-0.1,0.9-0.2,1.4c-0.1,0.1-0.1,0.2-0.2,0.4
							c0,0.1-0.1,0.1-0.1,0.1c-0.1,0.1-0.1,0.1-0.2,0.2c-0.1,0.1-0.1,0-0.2,0.1c-0.1,0.1-0.1,0.2-0.2,0.4c0,0.1-0.1,0.1-0.2,0.2
							c-0.1,0.1-0.1,0.2-0.2,0.4c-0.2,0.2-0.6,0.4-0.8,0.8c0,0.2,0.1,0.5,0.4,0.5c0.5,0,1-0.1,1.6-0.2c2.2-0.4,4.4-0.6,6.6-1
							c0.8-0.1,1.5-0.2,2.2-0.4c0.1,0,0.4,0,0.5-0.1c0.1-0.1,0.2-0.4,0.4-0.5c0.1-0.1,0.1-0.2,0.2-0.4c0.1-0.1,0.1-0.1,0.1-0.2
							c0.1-0.1,0.1-0.1,0.1-0.2c0.1-0.1,0.2-0.1,0.4-0.2c0.1,0,0.1-0.1,0.1-0.2c0,0,0.1,0,0.1,0c0.1,0,0.1,0,0.2,0
							c-0.1,0-0.1,0-0.2,0c0,0,0,0-0.1,0c0-0.1,0-0.2-0.1-0.4c-0.1-0.2-0.4-0.1-0.5-0.1c-0.2,0-0.5,0-0.6-0.1
							c-0.4-0.1-0.8-0.4-0.9-0.9c-0.1-0.2-0.1-0.6-0.1-1c0-0.2,0-0.4,0-0.6c0-0.4,0-0.8,0-1.1c0-1.1,0-2.1,0-3.2c0-1.8,0-3.6,0-5.4
							c0-0.8,0-1.7,0-2.5c0.2-1.5,0.5-3.1,0.8-4.6c0.2-1.5,0.6-3.1,1-4.6c0.1-0.5,0.2-0.9,0.3-1.4c0,0,0,0,0-0.1
							c0.1-0.4,0.3-0.9,0.4-1.3c0.5-1.6,1-3.1,1.5-4.8c0.2-0.6,0.4-1.4,0.6-2c0.2-0.7,0.4-1.3,0.6-1.9c0.1-0.1,0.1-0.1,0.2-0.2
							c0.1-0.1,0.3-0.2,0.4-0.4c0,0,0,0,0.1-0.1l0.1-0.1c0.1-0.1,0.1-0.1,0.2-0.2h0.1c0,0,0,0,0-0.1c0,0,0-0.1,0.1-0.1
							c0.1-0.1,0.1-0.1,0.2-0.2c0.1-0.1,0.5-0.1,0.6-0.2c0.1-0.1,0.2-0.4,0.2-0.5c0.1-0.1,0.1-0.2,0.2-0.4c0-0.1,0.1-0.1,0.1-0.1
							c0,0,0,0,0,0c0.2,0,0.3-0.1,0.5-0.1c-0.1,0-0.3,0-0.4,0.1c0,0,0,0,0.1-0.1c0.1-0.1,0.2-0.1,0.2-0.2c0.1-0.1,0.2-0.1,0.2-0.1
							c0.4-0.2,0-0.8-0.4-0.8h-0.1c-0.2,0-0.5,0.1-0.8,0.1C26,20.9,25,21,24.1,21.1c-2.1,0.2-4.2,0.6-6.4,0.9
							c-0.4,0.1-1.4,0-1.2,0.8c-0.1,0-0.2,0.2-0.2,0.2c-0.1,0.1-0.2,0.2-0.4,0.4c-0.2,0.2-0.8,0.5-0.4,0.9c0.1,0.1,0.4,0.1,0.5,0.1
							c0.2,0,0.5,0,0.6,0.1c0.6,0.4,0.4,1.4,0.2,2c-0.1,0.4-0.2,0.9-0.4,1.2c-0.1,0.4-0.6,1.9-1.2,1.1c-0.2-0.2-0.4-0.5-0.4-0.8
							c-0.1-0.5-0.4-0.9-0.5-1.4c-0.1-0.4-0.2-0.8-0.4-1.2c0-0.1-0.1-0.2-0.1-0.4c0-0.1,0-0.2-0.1-0.4v-0.1h0.1
							c0.2-0.1,0.2-0.2,0.4-0.5c0.1-0.1,0.2-0.2,0.2-0.4c0,0,0-0.1,0-0.1c0.2-0.1,0.4-0.1,0.6-0.2c-0.2,0-0.3,0-0.4,0
							c0.1-0.1,0.3-0.2,0.4-0.3c0.1-0.1,0.2-0.2,0.2-0.5s-0.2-0.4-0.5-0.4c-0.1,0-0.2,0-0.4,0c-2,0.3-3.9,0.5-5.9,0.9
							c-1,0.1-2.1,0.2-3.1,0.5C5,23.9,4.5,23.9,4,24C3.7,24,3.5,24.3,3.6,24.5z M43.4,49.2c0.2-1,0-2.1-0.8-3
							c-0.8-0.9-1.9-1.1-3-1.2c-0.4,0-0.6,0-1,0c-0.1,0-0.2,0.1-0.4,0c0,0,0,0,0-0.1c-0.1-0.2-0.1-0.5-0.1-0.8
							c-0.1-1-0.4-2.1-0.5-3.2c-0.4-2.5-0.8-4.9-1.1-7.4c0-0.2-0.1-0.5-0.1-0.8v-0.1l0.1-0.1c0-0.1,0.1-0.1,0.1-0.1
							c0.1-0.1,0.1-0.2,0.2-0.4c0.1-0.2,0.4-0.5,0.5-0.8c0.1-0.1,0.1-0.2,0.2-0.2c0.1-0.1,0.1-0.1,0.2-0.2c0.1-0.2-0.1-0.5-0.4-0.4
							h-0.1c-0.4,0-0.8,0.1-1.1,0.1c-2.4,0.4-4.6,0.6-7,1c-0.1,0-0.1,0-0.2,0c-0.1,0-0.1,0.1-0.2,0.1c-0.1,0.1-0.1,0.2-0.1,0.2
							c-0.1,0.1-0.2,0.2-0.2,0.4c-0.1,0.2-0.2,0.4-0.5,0.6c-0.1,0.2-0.5,0.5-0.4,0.8c0,0.2,0.4,0.2,0.5,0.2c0.2,0,0.5,0.1,0.6,0.2
							c0.5,0.5,0.2,1.1,0.2,1.8c-0.2,1.8-0.5,3.5-0.8,5.4c-0.4,2.6-0.8,5.4-1.1,8c-0.4,2.4-0.8,4.8-1,7.2c-0.1,0.8-0.2,1.5-0.4,2.3
							c0,0.2,0,0.4-0.1,0.5v0.1c0,0.1-0.2,0.1-0.4,0.1c-0.1,0-0.3,0-0.4,0.1c-0.1,0.1-0.1,0.1-0.1,0.2c-0.1,0.1-0.1,0.2-0.2,0.4
							c-0.1,0.2-0.2,0.4-0.5,0.6c-0.1,0.2-0.4,0.5-0.5,0.8c0.2,0.2,0.4,0.6,0.6,0.5c0.9-0.1,1.8-0.2,2.6-0.4
							c0.6-0.1,1.2-0.1,1.9-0.2c0.2,0,0.5,0,0.8-0.1c0.2-0.1,0.4-0.4,0.5-0.5c0.1-0.2,0.4-0.5,0.5-0.8c0.1-0.2,0.2-0.5,0.4-0.6
							c0.1-0.1,0.1-0.1,0.1-0.2c0-0.1,0-0.2-0.1-0.2c-0.1-0.1-0.4,0-0.5,0c-0.2,0-0.5-0.1-0.6-0.4c-0.2-0.2-0.2-0.8-0.2-1
							c0.1-0.5,0.1-1.1,0.2-1.6c0-0.2,0.1-0.5,0.1-0.8V55c0-0.1,0.2-0.1,0.2-0.2c0.1-0.1,0.2-0.2,0.5-0.4c0.9-0.6,1.8-1.2,2.6-1.9
							c0.2,1.4,0.4,2.9,0.6,4.2c0.1,0.4,0.1,0.8,0.1,1.1c0,0.1,0.1,0.4,0.1,0.5c0,0-0.1,0-0.1,0.1c-0.1,0.1-0.1,0.1-0.1,0.1
							c-0.1,0.1-0.2,0.4-0.4,0.5c-0.2,0.4-0.5,0.8-0.8,1c-0.1,0.1-0.2,0.4-0.2,0.5c0,0.1,0.1,0.2,0.2,0.2h0.1c1.5-0.2,3-0.4,4.5-0.6
							c0.9-0.1,1.6-0.2,2.5-0.4c0.2,0,0.4-0.1,0.6-0.1c0.4,0,0.5-0.5,0.8-0.8c0.2-0.4,0.5-0.8,0.8-1c0.1-0.1,0.2-0.2,0.2-0.4
							c0-0.1-0.1-0.4-0.2-0.4c-0.1,0-0.2,0-0.4,0c-0.1,0-0.4-0.1-0.5-0.1c-0.4-0.1-0.6-0.4-0.8-0.8c-0.1-0.4-0.2-0.8-0.2-1.1
							c-0.1-0.5-0.1-0.9-0.2-1.4c0-0.1,0-0.1,0-0.2c1,0,1.6-0.9,2.1-1.6c0.2-0.4,0.5-0.9,0.9-1.2C43,50.3,43.2,49.8,43.4,49.2z
							 M44.4,50.7c-0.1,0.1-0.2,0.4-0.2,0.5c-0.1,0.2-0.4,0.5-0.5,0.8c-0.1,0.2-0.4,0.6-0.6,0.9c-0.1,0.1-0.2,0.2-0.2,0.4
							c-0.1,0.2-0.4,0.5-0.5,0.8c-0.4,0.5-0.4,1.2,0.1,1.8c0.2,0.2,0.6,0.4,0.9,0.6s0.4,0.6,0.4,1c0.2-0.4,0.5-0.6,0.6-1
							c0.1-0.2,0.4-0.6,0.4-1.1c0-1.5,0-2.9,0-4.4c0-0.2,0-0.4,0-0.6C44.6,50.3,44.5,50.5,44.4,50.7z M61.1,47.3c0-0.9,0-1.8,0-2.6
							c0-1.5,0-2.9,0-4.4c0-1.4,0-2.6,0-4c0-0.8,0-1.6-0.1-2.4c-0.1-0.3-0.1-0.6-0.2-0.9c0-0.2-0.1-0.3-0.1-0.5
							c-0.3-1-0.8-1.9-1.5-2.7c-0.9-1-2.1-1.6-3.4-1.9c-0.8-0.1-1.5-0.1-2.4,0c-1.2,0.1-2.5,0.4-3.9,0.5c-1.2,0.1-2.5,0.4-3.9,0.5
							c-0.1,0-0.2,0-0.2,0c-0.1,0-0.1,0.1-0.2,0.2c-0.1,0.1-0.2,0.2-0.2,0.4c-0.2,0.2-0.4,0.6-0.6,0.9c-0.1,0.2-0.5,0.5-0.4,0.9
							c0.1,0.2,0.5,0.1,0.8,0.1c0.5,0.1,0.9,0.5,1,1c0.1,0.5,0,1,0,1.5c0,1,0,2.1,0,3.1c0,1.5,0,3,0,4.4c0,1.6,0,3.2,0,4.9
							c0,1.5,0,3.1,0,4.6c0,1.2,0,2.4,0,3.5c0,0.4,0,0.8,0,1.1c0,0.1,0,0.4,0,0.6c0,0.1,0,0.1-0.2,0.1c-0.1,0-0.2,0.1-0.2,0.2
							c-0.1,0.1-0.1,0.2-0.2,0.4c0.4,0.5,0.1,0.8,0,1c-0.1,0.1-0.2,0.2-0.2,0.4c-0.1,0.1-0.2,0.2-0.2,0.5c0,0.1,0.1,0.2,0.2,0.2
							c0.1,0,0.2,0,0.4,0c0.5-0.1,1.1-0.1,1.6-0.2c1.5-0.2,3-0.4,4.5-0.6c1.2-0.1,2.5-0.4,3.8-0.9c1.1-0.5,2.1-1.4,2.9-2.4
							c0.4-0.5,0.8-1.1,1.1-1.6c0.1-0.1,0.2-0.2,0.2-0.3c0,0,0,0,0-0.1c0.3-0.3,0.5-0.6,0.7-1C60.7,50.5,61.1,48.9,61.1,47.3z
							 M61.7,31.2c0.2,0.4,0.4,0.9,0.5,1.4c0.4,0.9,0.5,1.9,0.5,2.9c0,1.5,0,3.1,0,4.6c0,2.2,0,4.5,0,6.8c0,0.5,0,0.9,0,1.4
							c0,2.1-0.8,4.1-1.9,5.9c-0.2,0.2-0.4,0.5-0.5,0.8c-0.1,0.2-0.4,0.5-0.5,0.8c-0.4,0.6-0.9,1.2-1.5,1.9c-1.4,1.4-3.1,2.4-5,2.8
							c-0.2-0.8-0.5-0.8-0.8-0.8c-1.1,0.1-2.2,0.4-3.5,0.5c-1.4,0.2-2.9,0.4-4.2,0.6c-1,0.1-2-0.5-2-1.6c-0.2,0.4-0.5,0.8-0.8,1.1
							c-0.2,0.4-0.6,0.8-1,1c-0.4,0.1-0.8,0.1-1.1,0.2c-1.5,0.2-3.1,0.5-4.6,0.6c-0.6,0.1-1.2,0.2-1.9,0.2c-0.1,0-0.2,0-0.4,0.1
							c-0.1,0-0.1,0-0.2,0c-0.1,0-0.4,0-0.5-0.1C32.2,62,32,62,31.9,61.9c-0.4-0.1-0.8,0-1,0.1c-0.2,0.1-0.5,0.4-0.9,0.5
							c-0.2,0.1-0.4,0.1-0.6,0.1c-0.8,0.1-1.4,0.2-2.1,0.2c-0.8,0.1-1.5,0.2-2.4,0.4c-0.6,0.1-1.2,0.2-1.8-0.2
							c-0.2-0.1-0.4-0.4-0.5-0.6c-0.1,0.1-0.2,0.4-0.4,0.5c-0.1,0.1-0.2,0.4-0.5,0.5c-0.2,0.2-0.5,0.2-0.9,0.4
							c-0.2,0-0.4,0.1-0.6,0.1c-1,0.1-2.1,0.2-3.2,0.5c-2.2,0.4-4.5,0.6-6.8,1c-0.4,0-0.6,0.1-1,0c-0.9-0.2-1.5-1.2-1.4-2.1
							C8,62.8,8.2,62.4,8.7,62c0.1-0.1,0.2-0.2,0.4-0.5c0.1-0.2,0.2-0.5,0.5-0.8c0.2-0.2,0.4-0.5,0.5-0.7c0.1-0.2,0.1-0.3,0.1-0.5
							c0-0.2,0-0.5,0-0.8c0-1.8,0-3.4,0-5.1c0-2,0-4,0-6c0-0.4-0.1-0.9-0.1-1.2C10,45.9,10,45.5,9.9,45c-0.1-0.9-0.4-1.8-0.5-2.6
							c-0.2-0.9-0.5-1.8-0.8-2.6c-0.2-0.9-0.5-1.8-0.8-2.6c-0.6-1.9-1.2-3.6-1.9-5.5c-0.2-0.9-0.6-1.6-1-2.4
							c-0.1-0.2-0.2-0.6-0.5-0.8c-0.4-0.2-0.7-0.4-1.1-0.4C3,28,2.6,28,2.3,27.9c-0.4-0.2-0.7-0.5-0.9-1c-0.1-0.5-0.1-1,0.1-1.5
							C1.7,25.2,1.9,25,2,24.9c0.2-0.2,0.4-0.4,0.6-0.6C2.7,24,2.8,23.9,3,23.7c0.1-0.2,0.4-0.4,0.6-0.5C3.8,23,4,22.9,4.2,22.9
							c0.8-0.1,1.4-0.2,2.1-0.2c2.5-0.4,5-0.8,7.5-1c0.4,0,0.8-0.1,1-0.1c0.1,0,0.1,0,0.2,0c0.4,0,0.8,0.1,1.1,0
							c0.4-0.1,0.6-0.2,0.9-0.2c0.1,0,0.1,0,0.2,0c0.4,0,0.8-0.1,1-0.1c2.5-0.4,5-0.8,7.5-1c0.8-0.1,1.4-0.2,2-0.2
							c0.8-0.1,1.5,0.2,1.9,0.9c0.2,0.5,0.4,1,0.2,1.5c-0.1,0.2-0.2,0.5-0.4,0.6c-0.1,0.2-0.4,0.4-0.6,0.5c-0.1,0.1-0.2,0.4-0.4,0.5
							c-0.1,0.1-0.2,0.4-0.4,0.5c-0.4,0.4-0.9,0.5-1.1,0.9c-0.1,0.2-0.4,0.4-0.5,0.5c-0.2,0.2-0.4,0.5-0.5,0.9
							c-0.2,0.9-0.5,1.6-0.9,2.5c-0.4,1-0.6,2-1,2.9c-0.1,0.2-0.1,0.5-0.2,0.7c-0.2,0.6-0.4,1.3-0.6,1.9c-0.5,1.8-0.9,3.5-1.2,5.2
							c-0.4,1.8-0.6,3.5-1,5.4c-0.1,0.4-0.1,0.9-0.1,1.2c0,0.2,0,0.4,0,0.6c0,1.1,0,2.1,0,3.2c0,2.2,0,4.5,0,6.8
							c0,0.2,0,0.5,0.1,0.9c0.1,0.4,0.5,0.8,0.9,0.9c0.5,0.2,0.9,0.4,1.2,0.9c0.1-0.1,0.2-0.2,0.2-0.5c0.1-0.2,0.1-0.4,0.4-0.5
							c0.1-0.1,0.4-0.2,0.4-0.5c0.1-0.1,0.1-0.4,0.2-0.5c0-0.1,0-0.1,0-0.2c0.1-0.5,0.1-1,0.2-1.5c0.3-2,0.6-4,0.9-6
							c0.4-2.4,0.8-4.8,1-7.2c0.2-1.8,0.5-3.5,0.8-5.3c0-0.2,0.1-0.6,0.1-0.9s0-0.6-0.1-0.9c-0.2-0.4-0.6-0.6-0.9-1
							c-0.2-0.4-0.4-0.9-0.2-1.4c0.1-0.2,0.2-0.5,0.4-0.8c0.2-0.4,0.6-0.9,0.9-1.2c0.1-0.1,0.1-0.2,0.2-0.4c0.1-0.2,0.2-0.4,0.5-0.5
							c0.2-0.1,0.5-0.2,0.8-0.2c0.6-0.1,1.4-0.2,2-0.2c2.1-0.2,4.1-0.6,6.2-0.9c0.4,0,0.6-0.1,1,0c1,0.2,1.5,1.4,1.1,2.4
							c-0.1,0.4-0.4,0.6-0.6,0.9c-0.1,0.2-0.2,0.4-0.4,0.6c-0.2,0.4-0.2,0.8-0.2,1.2c0.2,2,0.6,4,0.9,6.1c0.1,0.8,0.2,1.5,0.4,2.2
							c0.1,0.5,0.4,1,0.9,1.2C40.6,44,40.7,44,41,44c0.2,0.1,0.5,0.1,0.9,0.2c0.5,0.1,1,0.4,1.4,0.8c0.6,0.5,1.4,1.2,1.5,2
							c0-1.5,0-3.1,0-4.6c0-2.2,0-4.5,0-6.8c0-0.6,0.1-1.2-0.2-1.9c-0.2-0.4-0.8-0.5-1.1-0.9c-0.2-0.4-0.5-0.9-0.4-1.2
							c0-0.6,0.5-1.1,0.9-1.6c0.1-0.2,0.2-0.4,0.4-0.6c0.1-0.1,0.1-0.1,0.1-0.2c0.1-0.2,0.2-0.4,0.5-0.6c0.4-0.2,0.6-0.4,1-0.4
							c1-0.1,1.9-0.2,2.9-0.4c1.2-0.1,2.4-0.4,3.6-0.5c0.8-0.1,1.5-0.2,2.2-0.2c0.1,0,0.2,0,0.5,0s0.5,0,0.8,0c1,0.1,2,0.4,2.9,0.9
							c0.9,0.5,1.6,1.1,2.2,2C61.2,30.3,61.5,30.7,61.7,31.2z"/>
						<path fill="#24245D" d="M29.7,31.9c-0.1,0-0.2,0-0.3,0C29.5,31.9,29.6,31.9,29.7,31.9z M42.4,50.7c0.8-0.9,1.1-2,0.9-3
							c-0.4-1.1-1.3-1.9-2.4-2.2c-0.9-0.2-1.9-0.1-2.8,0c0-0.6-0.1-1.2-0.2-2c-0.4-2.5-0.8-5.1-1.1-7.6c-0.1-0.6-0.1-1.1-0.2-1.8
							c-0.1-0.4-0.2-0.9-0.2-1.2c-0.1-1,0.5-2,1.5-2.1c-0.5,0.1-1.1,0.1-1.8,0.2c-1.1,0.1-2.1,0.4-3.2,0.5c-1,0.1-2,0.3-3,0.5
							c0.4,0,0.7,0.1,0.9,0.4c0.5,0.6,0.4,1.4,0.2,2c0,0.1-0.1,0.4-0.1,0.6c-0.1,0.5-0.1,0.9-0.2,1.4c-0.2,2.1-0.6,4.1-0.9,6.3
							c-0.4,2.2-0.6,4.6-1,6.9c-0.2,1-0.4,2.1-0.5,3.1c-0.2,1.8-0.5,3.4-0.8,5.1c-0.2,1-1,2-2.2,2.4c0.4-0.1,0.9-0.1,1.2-0.2
							c1.4-0.1,2.6-0.2,4-0.5c-0.8,0.1-1.2-0.2-1.5-0.9c-0.1-0.4-0.1-0.9,0-1.2c0.1-1.1,0.4-2.1,0.5-3.3v-0.1
							c0.1-0.1,0.2-0.1,0.4-0.2c0.1-0.1,0.2-0.1,0.4-0.2c0.6-0.4,1.1-0.8,1.6-1.1c0.9-0.8,1.8-1.4,2.6-2c0.1,0.5,0.1,0.9,0.2,1.4
							c0.1,1.2,0.2,2.5,0.5,3.8c0.1,0.4,0.1,0.9,0.2,1.2c0.1,0.9-0.5,2-1.5,2.1c0.5-0.1,1.1-0.1,1.7-0.2c1.1-0.1,2.2-0.4,3.4-0.5
							c0.8-0.1,1.6-0.2,2.5-0.4c0.1,0,0.1,0,0.2,0c-0.1,0-0.1,0-0.2,0c-0.8,0-1.6-0.6-1.8-1.3c-0.1-0.4-0.1-0.9-0.2-1.2
							c-0.1-1.1-0.4-2.2-0.5-3.4c-0.1-0.8-0.2-1.6-0.4-2.4c0-0.2-0.1-0.5-0.1-0.8v-0.1c0.1-0.1,0.4-0.1,0.5-0.1c0.5-0.1,1-0.1,1.5,0
							c0.4,0,0.5,0.1,0.8,0.2c0.1,0,0.2,0.1,0.2,0.2c0.2,0.5,0.1,1.1-0.1,1.5c-0.1,0.2-0.5,0.5-0.8,0.6c-0.1,0.1-0.6,0.2-0.6,0.2
							c0,0.1,0.5,0.2,0.6,0.2c0.2,0.1,0.5,0.1,0.8,0C41.6,51.3,42.1,51,42.4,50.7z M42.6,46.2c0.8,0.9,1,2,0.8,3
							c-0.1,0.6-0.4,1.1-0.8,1.6c-0.4,0.4-0.6,0.9-0.9,1.2c-0.5,0.8-1.1,1.6-2.1,1.6c0,0.1,0,0.1,0,0.2c0.1,0.5,0.1,0.9,0.2,1.4
							c0,0.4,0.1,0.8,0.2,1.1c0.1,0.4,0.4,0.6,0.8,0.8c0.1,0,0.4,0.1,0.5,0.1c0.1,0,0.2,0,0.4,0c0.1,0,0.2,0.2,0.2,0.4
							c0,0.1-0.1,0.2-0.2,0.4c-0.2,0.2-0.5,0.6-0.8,1c-0.2,0.2-0.4,0.8-0.8,0.8c-0.2,0-0.4,0.1-0.6,0.1c-0.9,0.1-1.6,0.2-2.5,0.4
							c-1.5,0.2-3,0.4-4.5,0.6h-0.1c-0.1,0-0.2-0.1-0.2-0.2c0-0.1,0.1-0.4,0.2-0.5c0.2-0.2,0.5-0.6,0.8-1c0.1-0.1,0.2-0.4,0.4-0.5
							c0,0,0,0,0.1-0.1c0-0.1,0.1-0.1,0.1-0.1c0-0.1-0.1-0.4-0.1-0.5c0-0.4,0-0.8-0.1-1.1c-0.2-1.4-0.4-2.9-0.6-4.2
							c-0.9,0.6-1.8,1.2-2.6,1.9c-0.2,0.1-0.4,0.2-0.5,0.4c0,0.1-0.2,0.1-0.2,0.2v0.1c0,0.2-0.1,0.5-0.1,0.8
							c-0.1,0.5-0.1,1.1-0.2,1.6c0,0.2,0,0.8,0.2,1c0.1,0.2,0.4,0.4,0.6,0.4c0.1,0,0.4-0.1,0.5,0c0.1,0,0.1,0.1,0.1,0.2
							c0,0.1,0,0.1-0.1,0.2c-0.1,0.1-0.2,0.4-0.4,0.6c-0.1,0.2-0.4,0.5-0.5,0.8c-0.1,0.1-0.2,0.4-0.5,0.5c-0.2,0.1-0.5,0.1-0.8,0.1
							c-0.6,0.1-1.2,0.1-1.9,0.2c-0.9,0.1-1.8,0.2-2.6,0.4c-0.2,0.1-0.4-0.2-0.6-0.5c0.1-0.2,0.4-0.5,0.5-0.8
							c0.2-0.2,0.4-0.4,0.5-0.6c0.1-0.1,0.1-0.2,0.2-0.4c0-0.1,0-0.1,0.1-0.2c0.1-0.1,0.2-0.1,0.4-0.1c0.1,0,0.4,0,0.4-0.1v-0.1
							c0.1-0.1,0.1-0.2,0.1-0.5c0.1-0.8,0.2-1.5,0.4-2.3c0.2-2.5,0.6-4.9,1-7.2c0.4-2.6,0.8-5.4,1.1-8c0.2-1.9,0.5-3.6,0.8-5.4
							c0-0.6,0.2-1.2-0.2-1.8c-0.1-0.1-0.4-0.2-0.6-0.2c-0.1,0-0.5,0-0.5-0.2c-0.1-0.2,0.2-0.5,0.4-0.8c0.2-0.2,0.4-0.4,0.5-0.6
							c0-0.1,0.1-0.2,0.2-0.4c0,0,0-0.1,0.1-0.2c0.1,0,0.1-0.1,0.2-0.1c0.1,0,0.1,0,0.2,0c2.4-0.4,4.6-0.6,7-1
							c0.4,0,0.8-0.1,1.1-0.1h0.1c0.2-0.1,0.5,0.1,0.4,0.4c-0.1,0.1-0.1,0.1-0.2,0.2c-0.1,0-0.1,0.1-0.2,0.2
							c-0.1,0.2-0.4,0.5-0.5,0.8c-0.1,0.1-0.1,0.2-0.2,0.4c0,0-0.1,0-0.1,0.1l-0.1,0.1v0.1c0,0.2,0.1,0.5,0.1,0.8
							c0.4,2.5,0.8,4.9,1.1,7.4c0.1,1.1,0.4,2.2,0.5,3.2c0,0.2,0,0.5,0.1,0.8c0,0.1,0,0.1,0,0.1c0.1,0.1,0.2,0,0.4,0
							c0.4,0,0.6,0,1,0C40.7,45,41.9,45.3,42.6,46.2z"/>
						<path fill="#24245D" d="M32.2,48.5L32,48.7c0,0,0,0,0,0L32.2,48.5z"/>
						<path fill="#24245D" d="M78.2,43.3L78.2,43.3C78.2,43.4,78.2,43.4,78.2,43.3c0,0.1-0.1,0.1-0.1,0.2c0,0,0,0,0,0
							c-0.2,0.2-0.3,0.4-0.4,0.4C77.8,43.9,78.2,43.4,78.2,43.3z"/>
						<path fill="#24245D" d="M21.9,60.8c-0.1,0-0.1,0-0.2,0C21.7,60.8,21.8,60.8,21.9,60.8z"/>
						<path fill="#24245D" d="M70.7,28.8c0-0.4,0-0.9,0-1.2c0-0.9,0.6-2,1.5-2.2c0.1,0,0.1,0,0.2,0c0.1,0,0.1,0.1,0.2,0.2
							c0.1,0.2-0.1,0.4-0.2,0.5c-0.1,0.1-0.2,0.2-0.4,0.5c-0.1,0.2-0.2,0.4-0.4,0.6c-0.1,0.1-0.1,0.4-0.4,0.5
							c-0.2,0.1-0.2,0-0.2,0.2s0,0.4,0,0.5c0,0.6,0,1.1,0,1.8c0,1.9,0,3.9,0,5.8c0,2.4,0,4.6,0,6.9c0,1.9,0,3.8,0,5.6
							c0,0.5,0,1.1,0,1.6c0,0.4-0.1,0.9,0.4,1c0.4-1.1,0.6-2.5,1.4-3.5c0.4-0.5,0.6-0.9,1-1.4c0.4-0.4,0.6-0.9,0.9-1.2
							c0.2-0.4,0.6-0.8,1-1.1c0.6-0.8,1.4-1.2,2.2-1.8c0.5-0.2,0.9-0.4,1.4-0.6c0.2-0.1,0.4-0.1,0.6-0.2c-0.4,0.2-0.9,0.4-1.3,0.6
							c-2.3,1.1-4.3,3.1-5,5.6c-0.2,0.6-0.4,1.1-0.5,1.8c-0.1,0.5-0.2,1-0.5,1.4c-0.2,0.4-0.6,0.8-1,0.6c-0.5,0-0.8-0.4-0.8-0.9
							c0-1,0-2,0-3c0-1.2,0-2.5,0-3.8c0-0.6,0-1.4,0-2c0-1.1,0-2.3,0-3.4c0-0.8,0-1.5,0-2.2c0-1.5,0-2.9,0-4.4
							C70.7,30.7,70.7,29.7,70.7,28.8z"/>
						<path fill="#FFFFFF" d="M47.5,55.8c0,0.1,0,0.1,0.2-0.2c0.2-0.6,0.1-1.5,0.1-2.1c0-0.4,0-0.9,0-1.4c0-1.9,0-3.8,0-5.8
							c0-2.4,0-4.9,0-7.3c0-1.9,0-3.8,0-5.5c0-0.4,0-0.8,0-1.1c0-0.9,0.1-1.9-0.5-2.6c-0.3-0.3-0.6-0.4-0.9-0.4
							c0.9-0.1,1.8-0.2,2.7-0.3c1-0.1,2-0.2,3.1-0.4c0.6-0.1,1.2-0.2,1.8-0.3L54,30c-0.1,0-0.2,0-0.3,0.1c-0.5,0.1-1,0.1-1.5,0.2
							c-0.1,0-0.1,0-0.1,0.1c0,0.2,0,0.5,0,0.8s0,0.4,0,0.6c0,0.4,0,0.7,0,1c0,1.6,0,3.4,0,5c0,2.3,0,4.5,0,6.8c0,2,0,3.9,0,5.9
							c0,0.9,0,1.6,0,2.5c0,0.5,0,0.9,0,1.4c0.5-0.1,1.1-0.2,1.7-0.2l0.1,1.9H54c-0.9,0.1-1.8,0.2-2.6,0.4c-1.1,0.1-2.2,0.4-3.4,0.5
							c-0.6,0.1-1.2,0.1-1.8,0.2C46.6,56.8,47.1,56.3,47.5,55.8z"/>
						<path fill="#24245D" d="M61.9,56.5c0.1,0.6,0.5,1.1,1.1,1.4c0.5,0.1,0.9,0.1,1.2,0c1.5-0.2,2.9-0.4,4.2-0.6
							c1.9-0.4,3.8-0.6,5.6-0.9c1.1-0.1,2.2-0.4,3.4-0.5c0.2-0.1,0.4-0.1,0.6-0.2c0.5-0.2,0.8-0.6,1-1c0.1-0.4,0.4-0.6,0.6-1
							c0.1-0.2,0.4-0.5,0.5-0.8c0.1-0.4,0.1-0.8,0-1.1c-0.1-0.4-0.4-0.8-0.6-1c-0.2-0.1-0.6-0.2-0.9-0.5c-0.6-0.5-0.5-1.4-0.5-2.1
							c0-0.4,0.1-0.9,0.2-1.2c0.1-0.5,0.2-0.9,0.5-1.2c0.2-0.4,0.6-0.6,1-0.9c0.2-0.1,0.4-0.2,0.5-0.4c0.1-0.1,0.2-0.2,0.2-0.4v0.1
							c0,0.8,0,1.5,0,2.2c0,0.6-0.1,1.4,0,2c0.2,2.4,1.5,4.5,3.6,5.5c1,0.5,2.2,0.6,3.5,0.5c0.6,0,1.4-0.1,2-0.2
							c0.9-0.1,1.6-0.2,2.5-0.6c1.2-0.6,2.3-1.5,3.1-2.5c0.2-0.2,0.5-0.6,0.8-1c0.4-0.5,0.8-1,1-1.5c0.8-1.2,1.1-2.8,1.1-4.2
							c0-1.2,0-2.2,0.1-2.8c0-1.9,0-3.6,0-5.5c0-1.9,0-3.6,0-5.4c0-1,0-1.9,0-2.8c0-0.3,0-0.7-0.1-1l1.5-0.2c0,0.4,0.1,0.7,0.1,1.1
							c0,0.1,0,0.2,0,0.4c0,0.6,0,1.2,0,1.9c0,2.4,0,4.6,0,7c0,2.1,0,4.4,0,6.5c0,0.4,0,0.9,0,1.2c0,1.9-0.6,3.8-1.6,5.4
							c-0.2,0.4-0.6,0.8-0.9,1.1c-0.1,0.2-0.2,0.4-0.4,0.6c-0.5,0.9-1.4,1.6-2.1,2.2c-0.4,0.2-0.9,0.5-1.2,0.8
							c-0.2,0.1-0.5,0.2-0.8,0.4c-0.1,0.1-0.2,0.4-0.2,0.5c-0.2,0.8-0.5,1.4-0.8,2.1c-1.1,3-2.2,5.9-3.6,8.8
							c-1.4,3.1-2.9,6.2-4.5,9.2c-1.8,3.1-3.5,6.2-5.2,9.4c-1.8,3.1-3.6,6.2-5.5,9.2c-1.8,3-3.6,5.9-5.5,8.8
							c-1.6,2.5-3.4,5.1-5.1,7.8c-1.5,2.2-3,4.5-4.5,6.6c-1.1,1.8-2.2,3.4-3.5,5c-0.4,0.5-0.9,1.1-1.2,1.8c-0.1,0.2-0.4,0.5-0.5,0.8
							c0,0.1-0.1,0.2-0.2,0.4c-0.2,0.1-0.6,0.2-1,0.1c-0.2,0-0.5-0.1-0.6-0.4c-0.1-0.1-0.1-0.2-0.2-0.4c-0.2-0.4-0.4-0.6-0.6-0.9
							c-0.6-0.8-1.1-1.5-1.6-2.2c-1.4-2-2.9-4.1-4.2-6.1c-1.9-2.8-3.8-5.4-5.5-8.1c-2.1-3.1-4.1-6.4-6.1-9.5
							c-2.1-3.5-4.2-6.9-6.2-10.4c-2.1-3.5-4.1-7-6-10.6c-0.9-1.9-1.9-3.6-2.8-5.4c-0.4-0.9-0.9-1.8-1.2-2.6c-0.2-0.5-0.4-1-0.6-1.4
							c0-0.2-0.1-0.4-0.2-0.6c-0.1,0-0.1-0.4-0.2-0.4c0-0.1-0.1,0-0.2,0c-0.2,0-0.4,0.1-0.6,0.1c-0.5,0.1-1.1,0.1-1.8,0.2
							c-0.5,0.1-1.1,0.1-1.6,0.2c-0.4,0-0.6,0.1-1,0.1c-1.9,0-3.3-1.5-3.4-3.2c0-1,0.4-2,1.1-2.6c0.1-0.1,0.2-0.1,0.4-0.4
							c0.1-0.2,0.4-0.4,0.5-0.6c0,0,0.1-0.1,0.2-0.2C8.9,60.2,9,60.2,9,60l1.2,0c-0.1,0.3-0.3,0.5-0.5,0.7c-0.2,0.2-0.4,0.5-0.5,0.8
							C9,61.8,8.9,61.9,8.7,62c-0.5,0.4-0.7,0.8-0.9,1.2c-0.1,0.9,0.5,1.9,1.4,2.1c0.4,0.1,0.6,0,1,0c2.2-0.4,4.5-0.6,6.8-1
							c1.1-0.2,2.2-0.4,3.2-0.5c0.2,0,0.4-0.1,0.6-0.1c0.4-0.1,0.6-0.1,0.9-0.4c0.2-0.1,0.4-0.4,0.5-0.5c0.1-0.1,0.2-0.4,0.4-0.5
							c0.1,0.2,0.2,0.5,0.5,0.6c0.5,0.5,1.1,0.4,1.8,0.2c0.9-0.1,1.6-0.2,2.4-0.4c0.8,0,1.4-0.1,2.1-0.2c0.2,0,0.4,0,0.6-0.1
							c0.4-0.1,0.6-0.4,0.9-0.5c0.2-0.1,0.6-0.2,1-0.1c0.1,0.1,0.4,0.1,0.5,0.2c0.1,0.1,0.4,0.1,0.5,0.1c0.1,0,0.1,0,0.2,0
							c0.1-0.1,0.2-0.1,0.4-0.1c0.6,0,1.2-0.1,1.9-0.2c1.5-0.1,3.1-0.4,4.6-0.6c0.4-0.1,0.8-0.1,1.1-0.2c0.4-0.2,0.8-0.6,1-1
							c0.2-0.4,0.5-0.8,0.8-1.1c0,1.1,1,1.8,2,1.6c1.4-0.2,2.9-0.4,4.2-0.6c1.2-0.1,2.4-0.4,3.5-0.5c0.2,0,0.5,0,0.8,0.8
							c1.9-0.4,3.6-1.4,5-2.8c0.6-0.6,1.1-1.3,1.5-1.9c0.1-0.2,0.4-0.5,0.5-0.8c0.1-0.2,0.2-0.5,0.5-0.8c1.1-1.8,1.9-3.8,1.9-5.9
							h0.9c0,0.1,0,0.2,0,0.4c0,1.1,0,2.4,0,3.5c0,0.1,0,0.4,0,0.5c0,0.5-0.2,1-0.5,1.4c-0.2,0.4-0.5,0.8-0.8,1.1
							C62,55.5,61.7,55.9,61.9,56.5z"/>
						<path fill="#24245D" d="M21.6,60.8C21.6,60.8,21.6,60.8,21.6,60.8C21.6,60.8,21.6,60.8,21.6,60.8
							C21.6,60.8,21.6,60.8,21.6,60.8L21.6,60.8z"/>
						<path fill="#FFFFFF" d="M30.9,44.7c-0.2,1.2-0.4,2.6-0.5,3.9c-0.1,0.4-0.1,0.9-0.2,1.2c0,0.1,0,0.2-0.1,0.4c0,0,0,0.1,0,0.2
							c0.6-0.4,1.2-0.9,2-1.7l0.2-0.2l0.1-0.1c0.2-0.2,0.5-0.5,0.9-0.7c0.1-0.1,0.1-0.1,0.2-0.2c0.1-0.1,0.2-0.1,0.4-0.2
							c0.1,0,0.2-0.1,0.4-0.2c0-0.1,0-0.4-0.1-0.4c-0.1-0.9-0.2-1.8-0.4-2.6c-0.4-2.4-0.8-4.9-1.1-7.2c-0.1-0.6-0.1-1.2-0.2-1.8
							c-0.1,0.5-0.1,1-0.2,1.5c-0.1,1.2-0.4,2.5-0.5,3.8C31.2,41.7,31.1,43.2,30.9,44.7z M43.2,47.7c0.2,1-0.1,2.1-0.9,3
							c-0.2,0.4-0.8,0.6-1.1,0.8c-0.2,0.1-0.5,0.1-0.8,0c-0.1,0-0.6-0.1-0.6-0.2c0,0,0.5-0.1,0.6-0.2c0.2-0.1,0.6-0.4,0.8-0.6
							c0.2-0.4,0.4-1,0.1-1.5c0-0.1-0.1-0.2-0.2-0.2c-0.2-0.1-0.4-0.2-0.8-0.2c-0.5-0.1-1-0.1-1.5,0c-0.1,0-0.4,0-0.5,0.1v0.1
							c0,0.2,0.1,0.5,0.1,0.8c0.1,0.8,0.2,1.6,0.4,2.4c0.1,1.1,0.4,2.2,0.5,3.4c0.1,0.4,0.1,0.9,0.2,1.2c0.2,0.7,1,1.3,1.8,1.3
							c-0.8,0.1-1.6,0.2-2.5,0.4c-1.1,0.1-2.2,0.4-3.4,0.5c-0.6,0.1-1.2,0.1-1.7,0.2c1-0.1,1.6-1.2,1.5-2.1
							c-0.1-0.4-0.1-0.9-0.2-1.2c-0.2-1.2-0.4-2.5-0.5-3.8c-0.1-0.5-0.1-0.9-0.2-1.4c-0.9,0.6-1.8,1.2-2.6,2c-0.5,0.4-1,0.8-1.6,1.1
							c-0.1,0.1-0.2,0.1-0.4,0.2c-0.1,0.1-0.2,0.1-0.4,0.2v0.1C29.2,55,29,56,28.9,57.2c-0.1,0.4-0.1,0.9,0,1.2
							c0.2,0.6,0.8,1,1.5,0.9c-1.4,0.2-2.6,0.4-4,0.5c-0.4,0.1-0.9,0.1-1.2,0.2c1.2-0.4,2-1.4,2.2-2.4c0.2-1.8,0.5-3.4,0.8-5.1
							c0.1-1,0.2-2.1,0.5-3.1c0.4-2.2,0.6-4.6,1-6.9c0.2-2.1,0.6-4.1,0.9-6.3c0.1-0.5,0.1-0.9,0.2-1.4c0-0.2,0.1-0.5,0.1-0.6
							c0.1-0.6,0.2-1.4-0.2-2c-0.2-0.3-0.5-0.4-0.9-0.4c1-0.1,2-0.3,3-0.5c1.1-0.1,2.1-0.4,3.2-0.5c0.6-0.1,1.2-0.1,1.8-0.2
							c-1,0.1-1.6,1.1-1.5,2.1c0,0.4,0.1,0.9,0.2,1.2c0.1,0.6,0.1,1.1,0.2,1.8c0.4,2.5,0.8,5.1,1.1,7.6c0.1,0.8,0.2,1.4,0.2,2
							c0.9-0.1,1.9-0.2,2.8,0C42,45.8,42.9,46.5,43.2,47.7z"/>
						<path fill="#24245D" d="M30.4,48.5c0.1-1.2,0.2-2.6,0.5-3.9c0.2-1.5,0.4-3,0.6-4.5c0.1-1.2,0.4-2.5,0.5-3.8
							c0.1-0.5,0.1-1,0.2-1.5c0.1,0.5,0.1,1.1,0.2,1.8c0.4,2.4,0.8,4.9,1.1,7.2c0.1,0.9,0.2,1.8,0.4,2.6c0.1,0,0.1,0.2,0.1,0.4
							c-0.1,0.1-0.2,0.2-0.4,0.2c-0.1,0.1-0.2,0.1-0.4,0.2c-0.1,0.1-0.1,0.1-0.2,0.2c-0.4,0.2-0.6,0.5-0.9,0.7c0,0,0,0,0,0
							c0,0,0,0-0.1,0.1L32,48.7c0,0,0,0,0,0c-0.8,0.8-1.4,1.4-2,1.7c0-0.1,0-0.2,0-0.2c0.1-0.1,0.1-0.2,0.1-0.4
							C30.2,49.4,30.2,48.9,30.4,48.5z M30.9,47.2c-0.1,0.9-0.2,1.6-0.4,2.5c0.5-0.4,0.9-0.9,1.4-1.2c0.1-0.1,0.4-0.2,0.5-0.4
							c0-0.1,0,0,0-0.1c0-0.1-0.1-0.2-0.1-0.4c0-0.2-0.1-0.5-0.1-0.8c0-0.6-0.1-1.2-0.2-1.9c-0.1-0.9-0.2-1.6-0.4-2.5
							c0,0.2-0.1,0.5-0.1,0.8C31.2,44.5,31.1,45.8,30.9,47.2z"/>
						<path fill="#24245D" d="M77.4,51.6c-0.1-0.1-0.2-0.2-0.3-0.4C77.2,51.4,77.3,51.5,77.4,51.6z"/>
						<path fill="#24245D" d="M44.2,30.4c0.2-0.2,0.4-0.6,0.6-0.9c0-0.1,0.1-0.2,0.2-0.4c0.1-0.1,0.1-0.2,0.2-0.2c0,0,0.1,0,0.2,0
							c1.4-0.1,2.6-0.4,3.9-0.5c1.4-0.1,2.6-0.4,3.9-0.5c0.9-0.1,1.6-0.1,2.4,0c1.2,0.2,2.5,0.9,3.4,1.9c0.8,0.8,1.2,1.8,1.5,2.7
							c-0.2-0.8-0.6-1.5-1.1-2.1c-0.8-1-1.9-1.8-3.1-2c-0.8-0.1-1.7-0.1-2.5,0c-0.6,0.1-1.2,0.2-1.8,0.3C51,28.8,50,28.9,49,29
							c-0.9,0.1-1.8,0.2-2.7,0.3c-0.1,0-0.2,0-0.3,0c0.1,0,0.2,0,0.3,0c0.3,0,0.6,0.1,0.9,0.4c0.6,0.8,0.5,1.8,0.5,2.6
							c0,0.4,0,0.8,0,1.1c0,1.8,0,3.6,0,5.5c0,2.4,0,4.9,0,7.3c0,2,0,3.9,0,5.8c0,0.5,0,1,0,1.4c0,0.6,0.1,1.5-0.1,2.1
							c0-0.1-0.1,0.1-0.1,0.2c0,0,0,0,0,0c-0.4,0.5-0.9,1-1.2,1.3c0.5-0.1,1.1-0.1,1.8-0.2c1.1-0.1,2.2-0.4,3.4-0.5
							c0.9-0.1,1.8-0.2,2.6-0.4h-0.1c0.4-0.1,0.8-0.1,1.1-0.2c1.7-0.4,3-1.4,4.1-2.7c-0.1,0.1-0.2,0.2-0.2,0.3
							c-0.4,0.5-0.8,1.1-1.1,1.6c-0.8,1-1.8,1.9-2.9,2.4c-1.2,0.5-2.5,0.8-3.8,0.9c-1.5,0.2-3,0.4-4.5,0.6c-0.5,0.1-1.1,0.1-1.6,0.2
							c-0.1,0-0.2,0-0.4,0c-0.1,0-0.2-0.1-0.2-0.2c0-0.2,0.1-0.4,0.2-0.5c0-0.1,0.1-0.2,0.2-0.4c0.1-0.2,0.4-0.5,0-1
							c0.1-0.1,0.1-0.3,0.2-0.4c0-0.1,0.1-0.2,0.2-0.2c0.2,0,0.2,0,0.2-0.1c0-0.2,0-0.5,0-0.6c0-0.4,0-0.8,0-1.1c0-1.1,0-2.2,0-3.5
							c0-1.5,0-3.1,0-4.6c0-1.6,0-3.2,0-4.9c0-1.4,0-2.9,0-4.4c0-1,0-2.1,0-3.1c0-0.5,0.1-1,0-1.5c-0.1-0.5-0.5-0.9-1-1
							c-0.2,0-0.6,0.1-0.8-0.1C43.7,30.9,44.1,30.7,44.2,30.4z"/>
						<path fill="#FFFFFF" d="M64.9,54c0.9-0.1,1.6-1,1.8-1.9c0.1-0.5,0-1,0-1.6c0-0.4,0-0.9,0-1.2c0-2.4,0-4.6,0-7
							c0-1.4,0-2.8,0-4.1c0-2,0-4.1,0-6.1c0-0.9,0-1.7,0-2.5c0-0.9,0.1-2-0.5-2.6c-0.4-0.4-0.9-0.5-1.4-0.5c0.9-0.1,1.8-0.2,2.6-0.4
							c1.1-0.1,2.2-0.4,3.4-0.5c0.5-0.1,1.1-0.1,1.5-0.2c-0.9,0.2-1.5,1.3-1.5,2.2c0,0.4,0,0.9,0,1.2c0,0.9,0,1.9,0,2.8
							c0,1.5,0,2.9,0,4.4c0,0.8,0,1.5,0,2.2c0,1.1,0,2.2,0,3.4c0,0.6,0,1.4,0,2c0,1.2,0,2.5,0,3.8c0,1,0,2,0,3
							c0,0.5,0.2,0.9,0.8,0.9c0.4,0.1,0.8-0.2,1-0.6c0.2-0.4,0.4-0.9,0.5-1.4c0.1-0.6,0.2-1.1,0.5-1.8c0.8-2.5,2.8-4.5,5-5.6
							c0.5-0.2,0.9-0.4,1.3-0.6c0.1-0.1,0.2-0.1,0.4-0.2c0,0,0,0,0,0c-0.7,0.8-1.4,1.5-2,2.3v0c-0.1,0.1-0.4,0.6-0.5,0.6
							c0-0.1,0.2-0.2,0.4-0.4c-0.2,0.4-0.5,0.7-0.7,1.1c-0.1,0.1-0.1,0.2-0.2,0.2c-0.1,0.2-0.1,0.4-0.2,0.6
							c-0.1,0.2-0.1,0.3-0.2,0.5c0,0.1-0.1,0.2-0.1,0.3c0,0,0,0.1,0,0.1c0,0.1,0,0.2-0.1,0.3c-0.2,0.9-0.3,1.9-0.2,2.9
							c0,0.2,0.1,0.5,0.2,0.7c0,0,0,0,0,0c0.1,0.3,0.1,0.6,0.3,0.9c0,0,0,0,0.1,0.1c0.1,0.2,0.2,0.3,0.3,0.4c0,0,0,0,0.1,0
							c0.3,0.3,0.6,0.5,1,0.5c-1.8,0.2-3.7,0.5-5.5,0.7c-1.8,0.2-3.5,0.5-5.2,0.8C66.7,53.8,65.9,53.9,64.9,54z"/>
						<path fill="#FFFFFF" d="M82.1,46.7c0,0.6,0,1.2,0.1,1.9c0.2,1.8,1.2,3.4,2.9,4.1c0.9,0.4,1.8,0.5,2.6,0.4
							c0.5-0.1,1-0.1,1.4-0.2c0.5-0.1,1-0.1,1.5-0.2c1-0.2,2-0.8,2.8-1.4c0.4-0.4,0.8-0.8,1.1-1.2c0.2-0.4,0.5-0.8,0.9-1.1
							c0.8-0.9,1.2-2,1.5-3C97,45,97,44.3,97,43.5c0-2.2,0-4.4,0-6.6c0-2.5,0-5,0-7.5c0-0.6,0-1.2,0-1.8c0-1.8-0.6-3.5-2.1-4.5
							C94,22.5,93,22.3,92,22.3c-0.6,0-1.2,0.1-1.8,0.2c-0.5,0.1-1,0.1-1.5,0.2c-1,0.1-1.9,0.5-2.6,1.1c-0.9,0.2-1.4,0.9-1.9,1.6
							c-0.1,0.1-0.1,0.2-0.2,0.4c-0.6,0.9-1.2,1.8-1.5,2.8c-0.2,0.8-0.4,1.5-0.4,2.2c0,0.5,0,1.1,0,1.6c0,2.5,0,4.9,0,7.4
							C82.1,42.2,82.1,44.4,82.1,46.7z M63.1,29h0.1c0.4,0,0.8,0,1,0.2c0.4,0.2,0.5,0.8,0.5,1.1c0,0.2,0,0.4,0,0.6
							c0,1.5,0,2.9,0,4.4c0,2.1,0,4.4,0,6.6s0,4.4,0,6.6c0,1.5,0,3,0,4.5c0,0.1,0,0.4,0,0.5v0.2c-0.1,0.1-0.2,0-0.2,0.1
							c-0.1,0-0.1,0.1-0.2,0.2c-0.1,0.4-0.5,0.8-0.7,1.1c-0.1,0.2-0.8,0.9-0.4,1.1c0.1,0,0.1,0,0.2,0c1.4-0.1,2.8-0.4,4.3-0.6
							c2.2-0.4,4.4-0.6,6.6-1c0.8-0.1,1.5-0.2,2.2-0.4c0.3,0,0.4,0,0.5-0.1h0.1c0.1,0,0.2-0.1,0.2-0.2c0.1-0.2,0.2-0.4,0.4-0.6
							c0.1-0.2,0.2-0.4,0.4-0.6c0.1-0.1,0.1-0.1,0.2-0.2c0.1-0.1,0.1-0.1,0.2-0.2c0.1-0.1,0-0.4-0.1-0.5c-0.1,0-0.1,0-0.2,0
							c-0.1,0-0.2,0-0.4,0c-0.2,0-0.3-0.1-0.4-0.2c0,0,0,0-0.1,0c-0.1-0.1-0.2-0.3-0.3-0.4c-0.2-0.3-0.3-0.6-0.4-0.9c0,0,0,0,0,0
							c-0.1-0.3-0.1-0.7-0.2-1c0-0.8,0-1.4,0.1-2.1c0-0.2,0-0.3,0.1-0.5c0-0.1,0-0.2,0.1-0.3c0,0,0-0.1,0-0.1c0-0.1,0.1-0.2,0.1-0.3
							c0.1-0.2,0.1-0.3,0.2-0.5c0.1-0.3,0.2-0.6,0.4-0.9c0.1-0.1,0.2-0.2,0.3-0.2c0.2-0.1,0.4-0.4,0.6-0.5c0.1-0.1,0.5-0.2,0.6-0.4
							c0.1-0.1,0.1-0.2,0.2-0.4c0.1-0.2,0.2-0.4,0.4-0.6c0.1-0.2,0.2-0.4,0.4-0.5c0.1-0.1,0.1-0.2,0.2-0.2c0.4-0.2,0.5-0.4,0.4-0.6
							c-0.1-0.2-0.2-0.2-0.4-0.1c0,0,0,0,0,0c0,0,0,0,0,0c-0.1,0-0.2,0.1-0.4,0.2c-0.2,0.1-0.4,0.1-0.6,0.2
							c-0.5,0.2-0.9,0.4-1.4,0.6c-0.9,0.5-1.6,1-2.2,1.8c-0.4,0.4-0.8,0.8-1,1.1c-0.2,0.4-0.5,0.9-0.9,1.2c-0.4,0.5-0.6,0.9-1,1.4
							c-0.8,1-1,2.4-1.4,3.5c-0.5-0.1-0.4-0.6-0.4-1c0-0.5,0-1.1,0-1.6c0-1.9,0-3.8,0-5.6c0-2.2,0-4.5,0-6.9c0-1.9,0-3.9,0-5.8
							c0-0.6,0-1.1,0-1.8c0-0.1,0-0.2,0-0.5s0-0.1,0.2-0.2c0.2-0.1,0.2-0.4,0.4-0.5c0.1-0.2,0.2-0.4,0.4-0.6
							c0.1-0.2,0.2-0.4,0.4-0.5c0.1-0.1,0.4-0.2,0.2-0.5c-0.1-0.1-0.1-0.2-0.2-0.2c-0.1-0.1-0.3,0-0.4,0c-0.9,0.1-1.6,0.2-2.5,0.4
							c-1.1,0.1-2.2,0.4-3.2,0.5c-0.6,0.1-1.2,0.1-1.8,0.2c-0.1,0-0.1,0-0.2,0.1c-0.1,0.1-0.1,0.1-0.1,0.2C64,26.9,64,27,63.9,27.2
							c-0.2,0.4-0.5,0.9-0.9,1.2c-0.1,0.1-0.1,0.1-0.1,0.2c0,0,0,0,0,0.1c0,0.1,0,0.1,0.1,0.2C63,29,63,29,63.1,29z M63,57.9
							c-0.6-0.2-1-0.8-1.1-1.4c-0.1-0.6,0.1-1,0.5-1.5c0.2-0.4,0.5-0.8,0.8-1.1c0.2-0.4,0.5-0.9,0.5-1.4c0-0.1,0-0.4,0-0.5
							c0-1.1,0-2.4,0-3.5c0-0.1,0-0.2,0-0.4c0-1.7,0-3.4,0-5c0-1.9,0-3.8,0-5.8c0-1.5,0-2.9,0-4.4c0-0.9,0.1-2-0.5-2.5
							c-0.2-0.1-0.4-0.2-0.6-0.4c-0.1-0.1-0.2-0.2-0.2-0.4c-0.2-0.4-0.4-0.9-0.4-1.2c0-0.4,0.4-0.9,0.5-1.2c0.2-0.4,0.5-0.6,0.6-1
							c0.2-0.2,0.4-0.6,0.6-0.9s0.5-0.4,0.9-0.4c0.1,0,0.2,0,0.4,0c0.8-0.1,1.4-0.2,2.1-0.2c1.6-0.2,3.2-0.5,5-0.8
							c0.8-0.1,1.6,0,2.1,0.8s0.4,1.5-0.1,2.2c-0.2,0.2-0.4,0.6-0.6,0.9c-0.2,0.4-0.5,0.6-0.6,1c-0.1,0.2-0.1,0.4-0.1,0.6
							c0,0.5,0,1,0,1.4c0,1.8,0,3.6,0,5.4c0,1.6,0,3.1,0,4.8c0,0.4,0,0.9,0.1,1.2c0.2,0.8,1.1,1,1.9,0.9c0.4-0.1,0.6-0.4,1-0.6
							c0.2-0.2,0.6-0.5,1-0.8c0.6-0.4,1.4-0.8,2-1.1c0.4-0.1,0.8-0.2,1.1-0.4c0.2-0.1,0.4-0.1,0.5-0.1c0.2,0,0.4-0.1,0.5,0
							c0-1.2,0-2.4,0-3.6c0-1.6,0-3.2,0-4.9c0-0.9,0.1-1.6,0.2-2.5c0.4-1.2,1-2.4,1.8-3.5c0.1-0.2,0.2-0.4,0.4-0.6
							c0.2-0.2,0.4-0.6,0.6-0.9c0.5-0.5,1-1,1.6-1.5c1-0.6,2.1-1,3.2-1.3c0.8-0.1,1.5-0.2,2.4-0.4c1.1-0.1,2.4,0,3.4,0.4
							c2.2,0.9,3.7,3.1,4.1,5.5c0,0.3,0.1,0.7,0.1,1c0,0.9,0,1.8,0,2.8c0,1.8,0,3.5,0,5.4c0,1.9,0,3.6,0,5.5
							c-0.1,0.5-0.1,1.5-0.1,2.8c0,1.5-0.4,3-1.1,4.2c-0.2,0.5-0.6,1-1,1.5c-0.2,0.4-0.5,0.8-0.8,1c-0.9,1-1.9,1.9-3.1,2.5
							c-0.9,0.4-1.6,0.5-2.5,0.6c-0.6,0.1-1.4,0.2-2,0.2c-1.2,0.1-2.5,0-3.5-0.5c-2.1-1-3.4-3.1-3.6-5.5c-0.1-0.6,0-1.4,0-2
							c0-0.8,0-1.5,0-2.2V44c0,0.1-0.1,0.2-0.2,0.4c-0.1,0.1-0.2,0.2-0.5,0.4c-0.4,0.2-0.8,0.5-1,0.9c-0.2,0.4-0.4,0.8-0.5,1.2
							c-0.1,0.4-0.2,0.9-0.2,1.2c0,0.8-0.1,1.6,0.5,2.1c0.2,0.2,0.6,0.4,0.9,0.5c0.2,0.2,0.5,0.6,0.6,1c0.1,0.4,0.1,0.8,0,1.1
							c-0.1,0.2-0.4,0.5-0.5,0.8c-0.2,0.4-0.5,0.6-0.6,1c-0.2,0.4-0.5,0.8-1,1c-0.2,0.1-0.4,0.1-0.6,0.2c-1.1,0.1-2.3,0.4-3.4,0.5
							c-1.9,0.2-3.8,0.5-5.6,0.9c-1.4,0.2-2.8,0.4-4.2,0.6C63.9,58,63.5,58,63,57.9z"/>
						<path fill="#24245D" d="M32.2,48.4C32.2,48.4,32.2,48.4,32.2,48.4L32.2,48.4C32.2,48.5,32.2,48.4,32.2,48.4z"/>
						<path fill="#24245D" d="M88.4,47.5c0,0.9,0.8,1.4,1.5,1.2c0.1,0,0.4,0,0.5-0.1c0.1,0,0.1-0.1,0.1-0.2c0-0.1,0-0.1,0-0.1
							c0-0.1,0-0.1,0-0.1c0-1,0-2,0-3c0-2,0-3.9,0-5.9c0-2.1,0-4.2,0-6.4c0-1.5,0-3,0-4.5c0-0.4,0-0.6,0-0.9c0-0.5-0.2-1-0.6-1.2
							C89.6,26,89.4,26,89,26c-0.1,0.1-0.2,0.1-0.4,0.1c0,0-0.2,0-0.2,0.1c0,0.1,0,0.2,0,0.4c0,0.1,0,0.1,0,0.1c0,1.1,0,2.2,0,3.4
							c0,2,0,4,0,6c0,2.1,0,4.2,0,6.4c0,1.4,0,2.9,0,4.2C88.4,47,88.4,47.3,88.4,47.5z M88,26.9c0-0.6,0.2-1.4,0.8-1.9
							c0.3-0.3,0.6-0.5,1-0.6c0.3-0.1,0.7,0,1,0.1c0.8,0.2,1.1,0.9,1.1,1.6c0,0.9,0,1.9,0,2.9c0,2,0,4.1,0,6.1c0,2.1,0,4.4,0,6.6
							c0,1.5,0,3,0,4.5c0,0.4,0,0.8-0.1,1.1c-0.1,0.9-0.9,1.6-1.8,1.8c-0.1,0-0.2,0-0.3,0c-0.3,0-0.5-0.1-0.8-0.2
							c-0.4-0.1-0.6-0.6-0.8-1c0-0.2,0-0.4-0.1-0.8c0-1.1,0-2.4,0-3.5c0-2.1,0-4.3,0-6.4c0-2.1,0-4.4,0-6.5C88,29.5,88,28.3,88,26.9
							z"/>
						<path fill="#24245D" d="M99.9,26.6l-1.5,0.2c-0.3-2.4-1.9-4.6-4.1-5.5c-1-0.4-2.3-0.5-3.4-0.4c-0.9,0.1-1.6,0.2-2.4,0.4
							c-1.1,0.2-2.2,0.6-3.2,1.3c-0.6,0.5-1.1,1-1.6,1.5c-0.2,0.2-0.4,0.6-0.6,0.9c-0.1,0.2-0.2,0.4-0.4,0.6
							c-0.8,1.1-1.4,2.2-1.8,3.5c-0.1,0.9-0.2,1.6-0.2,2.5c0,1.6,0,3.2,0,4.9c0,1.2,0,2.4,0,3.6c-0.1-0.1-0.2,0-0.5,0
							c-0.1,0-0.2,0-0.5,0.1c-0.4,0.1-0.8,0.2-1.1,0.4c-0.6,0.4-1.4,0.8-2,1.1c-0.4,0.2-0.8,0.5-1,0.8c-0.4,0.2-0.6,0.5-1,0.6
							c-0.8,0.1-1.6-0.1-1.9-0.9c-0.1-0.4-0.1-0.9-0.1-1.2c0-1.6,0-3.1,0-4.8c0-1.8,0-3.6,0-5.4c0-0.4,0-0.9,0-1.4
							c0-0.2,0-0.4,0.1-0.6c0.1-0.4,0.4-0.6,0.6-1c0.2-0.2,0.4-0.6,0.6-0.9c0.5-0.8,0.6-1.5,0.1-2.2S72.7,23.9,72,24
							c-1.8,0.2-3.4,0.5-5,0.8c-0.8,0-1.4,0.1-2.1,0.2c-0.1,0-0.2,0-0.4,0c-0.4,0-0.6,0.1-0.9,0.4S63.2,26,63,26.3
							c-0.1,0.4-0.4,0.6-0.6,1c-0.1,0.4-0.5,0.9-0.5,1.2c0,0.4,0.1,0.9,0.4,1.2c0,0.1,0.1,0.2,0.2,0.4c0.2,0.1,0.4,0.2,0.6,0.4
							c0.6,0.5,0.5,1.6,0.5,2.5c0,1.5,0,2.9,0,4.4c0,2,0,3.9,0,5.8c0,1.6,0,3.3,0,5h-0.9c0-0.5,0-0.9,0-1.4c0-2.2,0-4.5,0-6.8
							c0-1.5,0-3.1,0-4.6c0-1-0.1-2-0.5-2.9c-0.1-0.5-0.2-1-0.5-1.4c-0.2-0.5-0.5-0.9-0.8-1.2c-0.6-0.9-1.4-1.5-2.2-2
							c-0.9-0.5-1.9-0.8-2.9-0.9c-0.2,0-0.5,0-0.8,0s-0.4,0-0.5,0c-0.8,0-1.5,0.1-2.2,0.2c-1.2,0.1-2.4,0.4-3.6,0.5
							c-1,0.1-1.9,0.2-2.9,0.4c-0.4,0-0.6,0.1-1,0.4c-0.2,0.2-0.4,0.4-0.5,0.6c0,0.1,0,0.1-0.1,0.2c-0.1,0.2-0.2,0.4-0.4,0.6
							c-0.4,0.5-0.9,1-0.9,1.6c-0.1,0.4,0.1,0.9,0.4,1.2c0.4,0.4,0.9,0.5,1.1,0.9c0.4,0.6,0.2,1.2,0.2,1.9c0,2.2,0,4.5,0,6.8
							c0,1.5,0,3.1,0,4.6c-0.1-0.8-0.9-1.5-1.5-2c-0.4-0.4-0.9-0.6-1.4-0.8c-0.4-0.1-0.6-0.1-0.9-0.2c-0.2,0-0.4,0-0.6-0.1
							c-0.5-0.2-0.8-0.8-0.9-1.2c-0.1-0.8-0.2-1.5-0.4-2.2c-0.2-2.1-0.6-4.1-0.9-6.1c0-0.5,0-0.9,0.2-1.2c0.1-0.2,0.2-0.4,0.4-0.6
							c0.2-0.2,0.5-0.5,0.6-0.9c0.4-1-0.1-2.1-1.1-2.4c-0.4-0.1-0.6,0-1,0c-2.1,0.2-4.1,0.6-6.2,0.9c-0.6,0-1.4,0.1-2,0.2
							c-0.2,0-0.5,0.1-0.8,0.2c-0.2,0.1-0.4,0.2-0.5,0.5c-0.1,0.1-0.1,0.2-0.2,0.4c-0.2,0.4-0.6,0.9-0.9,1.2
							c-0.1,0.2-0.2,0.5-0.4,0.8L24,32.7c0.1-0.2,0.1-0.5,0.2-0.7c0.4-0.9,0.6-1.9,1-2.9c0.4-0.9,0.6-1.6,0.9-2.5
							c0.1-0.4,0.2-0.6,0.5-0.9c0.1-0.1,0.4-0.2,0.5-0.5c0.2-0.4,0.8-0.5,1.1-0.9c0.1-0.1,0.2-0.4,0.4-0.5c0.1-0.1,0.2-0.4,0.4-0.5
							c0.2-0.1,0.5-0.2,0.6-0.5c0.1-0.1,0.2-0.4,0.4-0.6c0.1-0.5,0-1-0.2-1.5c-0.4-0.6-1.1-1-1.9-0.9c-0.6,0-1.2,0.1-2,0.2
							c-2.5,0.2-5,0.6-7.5,1c-0.2,0-0.6,0.1-1,0.1c-0.1,0-0.1,0-0.2,0c-0.2,0-0.5,0.1-0.9,0.2c-0.4,0.1-0.8,0-1.1,0
							c-0.1,0-0.1,0-0.2,0c-0.2,0-0.6,0.1-1,0.1c-2.5,0.2-5,0.6-7.5,1c-0.8,0-1.4,0.1-2.1,0.2c-0.2,0-0.4,0.1-0.6,0.2
							c-0.2,0.1-0.5,0.2-0.6,0.5c-0.1,0.2-0.2,0.4-0.4,0.6c-0.2,0.2-0.4,0.4-0.6,0.6c-0.1,0.1-0.2,0.2-0.4,0.5
							c-0.2,0.5-0.2,1-0.1,1.5c0.1,0.5,0.5,0.8,0.9,1C2.6,28,3,28,3.3,28.2c0.4,0,0.8,0.1,1.1,0.4C4.7,28.7,4.8,29,5,29.3
							c0.4,0.8,0.8,1.5,1,2.4c0.6,1.9,1.2,3.6,1.9,5.5c0.3,0.9,0.5,1.8,0.8,2.6c0.2,0.9,0.5,1.8,0.8,2.6c0.1,0.9,0.4,1.8,0.5,2.6
							c0.1,0.5,0.1,0.9,0.2,1.4c0,0.4,0.1,0.9,0.1,1.2c0,2,0,4,0,6c0,1.8,0,3.4,0,5.1c0,0.2,0,0.5,0,0.8c0,0.2,0,0.4-0.1,0.5L9,60
							c0-0.1,0-0.2,0-0.4c0-0.5,0-1.1,0-1.8C9,57,9,56,9,55.2c0-2.1,0-4.2,0-6.4c0-0.5-0.1-1-0.2-1.5c0-0.6-0.1-1.2-0.2-1.8
							C8.4,44.7,8.2,43.8,8,43c-0.4-1.8-0.9-3.4-1.4-5c-0.5-1.8-1.1-3.4-1.8-5c-0.2-0.8-0.6-1.5-0.9-2.2c-0.1-0.2-0.1-0.4-0.2-0.6
							c-0.1-0.2-0.4-0.2-0.6-0.2c-0.8-0.1-1.5-0.4-2.1-1c-1.4-1.4-1.2-3.8,0.1-5c0.1-0.1,0.1-0.1,0.2-0.2c0-0.1,0-0.2,0.1-0.4
							c0.1-0.1,0.2-0.4,0.4-0.5c0.2-0.4,0.7-0.6,1.1-0.9c0.4-0.1,0.8-0.2,1.1-0.2c2-0.4,4-0.6,6-0.9c1.1-0.1,2.2-0.4,3.4-0.5
							c0.5-0.1,1-0.2,1.5-0.2c0,0,0,0,0.1,0c0,0,0,0.1,0.1,0c0,0,0.1-0.1,0.1-0.2c0.1-0.2,0.2-0.4,0.4-0.6c0.2-0.4,0.5-0.8,0.8-1.1
							c0.6-0.8,1.1-1.5,1.8-2.3c1.2-1.5,2.5-2.9,3.9-4.1c2.8-2.5,5.9-4.7,9.1-6.5c3.4-1.8,6.9-3.1,10.6-4c3.9-0.9,7.8-1.2,11.8-1.1
							c3.9,0.2,7.8,0.9,11.5,2.1c3.6,1.1,7.1,2.8,10.2,4.9c3.1,2,6,4.5,8.5,7.2c1.2,1.4,2.4,2.9,3.5,4.4c0.1,0.2,0.2,0.4,0.4,0.6
							c0.1,0.1,0.1,0.2,0.2,0.2c0,0,0.1,0,0.2,0c0.2-0.1,0.4-0.1,0.5-0.1c0.6-0.1,1.1-0.1,1.8-0.2c1.6-0.2,3.2-0.1,4.8,0.6
							c0.9,0.5,1.8,1,2.4,1.8c0.2,0.2,0.5,0.6,0.8,1c0.2,0.2,0.4,0.5,0.5,0.8c0.1,0.2,0.2,0.4,0.4,0.6
							C99.5,24.8,99.8,25.6,99.9,26.6z"/>
						<path fill="#24245D" d="M97,36.9c0,2.2,0,4.4,0,6.6c0,0.8,0,1.5-0.1,2.2c-0.2,1-0.8,2.1-1.5,3c-0.4,0.4-0.6,0.8-0.9,1.1
							c-0.4,0.5-0.8,0.9-1.1,1.2c-0.8,0.6-1.8,1.1-2.8,1.4c-0.5,0.1-1,0.1-1.5,0.2c-0.4,0.1-0.9,0.1-1.4,0.2c-0.9,0.1-1.8,0-2.6-0.4
							c-1.6-0.8-2.6-2.4-2.9-4.1c-0.1-0.6-0.1-1.2-0.1-1.9c0-2.2,0-4.5,0-6.8c0-2.5,0-4.9,0-7.4c0-0.5,0-1.1,0-1.6
							c0-0.8,0.1-1.5,0.4-2.2c0.2-1,0.9-1.9,1.5-2.8c0.1-0.1,0.1-0.2,0.2-0.4c0.5-0.7,1.1-1.4,1.9-1.6c0.8-0.6,1.6-1,2.6-1.1
							c-0.9,0.1-1.8,0.5-2.2,0.9c-1.5,1-2.6,2.8-2.9,4.6c-0.1,0.5-0.1,1.1-0.1,1.8c0,2.1,0,4.1,0,6.2c0,2.4,0,4.8,0,7.3
							c0,0.8,0,1.4,0,2.1c0,1.2,0.1,2.5,0.9,3.5c0.6,0.9,1.5,1.5,2.5,1.8c0.8,0.2,1.5,0.2,2.2,0.1c0.2-0.1,0.5-0.1,0.8-0.1
							c0.3,0,0.7-0.1,1-0.1c0.6,0,1.2-0.1,1.8-0.4c1.8-0.6,3.1-2.1,3.8-3.9c0.2-0.9,0.4-1.9,0.4-2.8c0-1.9,0-3.8,0-5.6
							c0-2.5,0-5,0-7.5c0-0.9,0-1.6,0-2.5c0-0.9,0-1.6-0.2-2.4c-0.4-1-1-2-1.9-2.6c-0.9-0.6-2-0.9-3.1-0.8c-0.6,0.1-1.3,0.2-2,0.3
							c-0.3,0-0.5,0.1-0.8,0.1c0.5-0.1,1-0.1,1.5-0.2c0.5-0.1,1.1-0.2,1.8-0.2c1,0,2,0.2,2.9,0.9c1.5,1,2.1,2.8,2.1,4.5
							c0,0.5,0,1.1,0,1.8C97,31.9,97,34.4,97,36.9z"/>
						<path fill="#FFFFFF" d="M96.8,38.2c0,1.9,0,3.8,0,5.6c0,0.9-0.1,1.9-0.4,2.8c-0.6,1.8-2,3.2-3.8,3.9c-0.5,0.2-1.1,0.4-1.8,0.4
							c-0.3,0.1-0.7,0.1-1,0.1l-0.2-1.7c0.1,0,0.2,0,0.3,0c0.9-0.1,1.6-0.9,1.8-1.8c0.1-0.4,0.1-0.8,0.1-1.1c0-1.5,0-3,0-4.5
							c0-2.3,0-4.5,0-6.6c0-2,0-4.1,0-6.1c0-1,0-2,0-2.9c0-0.8-0.4-1.4-1.1-1.6c-0.3-0.1-0.7-0.1-1-0.1l-0.3-1.8
							c0.7-0.1,1.4-0.2,2-0.3c1.1-0.1,2.2,0.1,3.1,0.8c0.9,0.6,1.5,1.6,1.9,2.6c0.2,0.8,0.2,1.5,0.2,2.4c0,0.9,0,1.6,0,2.5
							C96.8,33.2,96.8,35.7,96.8,38.2z"/>
						<path fill="#FFFFFF" d="M90.5,48.3c0,0,0,0,0,0.1c0,0.1,0,0.2-0.1,0.2c-0.1,0.1-0.4,0.1-0.5,0.1c-0.8,0.1-1.5-0.4-1.5-1.2
							c0-0.2,0-0.5,0-0.8c0-1.4,0-2.9,0-4.2c0-2.1,0-4.3,0-6.4c0-2,0-4,0-6c0-1.1,0-2.2,0-3.4c0,0,0,0,0-0.1c0-0.1,0-0.2,0-0.4
							c0-0.1,0.2-0.1,0.2-0.1c0.1,0,0.2,0,0.4-0.1c0.4,0,0.6,0,0.9,0.2c0.4,0.2,0.6,0.8,0.6,1.2c0,0.2,0,0.5,0,0.9c0,1.5,0,3,0,4.5
							c0,2.1,0,4.2,0,6.4c0,2,0,3.9,0,5.9c0,1,0,2,0,3C90.5,48.2,90.5,48.2,90.5,48.3z"/>
						<path fill="#24245D" d="M80.6,41.2c0.1,0.2,0,0.4-0.4,0.6c-0.1,0-0.1,0.1-0.2,0.2c-0.1,0.1-0.2,0.2-0.4,0.5
							c-0.1,0.2-0.2,0.4-0.4,0.6c-0.1,0.1-0.1,0.2-0.2,0.4c-0.1,0.1-0.5,0.2-0.6,0.4c-0.2,0.1-0.4,0.4-0.6,0.5
							c-0.1,0.1-0.2,0.2-0.3,0.2c0.2-0.4,0.4-0.8,0.7-1.1c0,0,0,0,0,0c0,0,0.1-0.1,0.1-0.1c0,0,0,0,0,0c0.6-0.8,1.3-1.5,2-2.3
							C80.4,41,80.5,41,80.6,41.2C80.5,41.2,80.6,41.3,80.6,41.2z"/>
						<path fill="#24245D" d="M80.6,41.2C80.6,41.3,80.5,41.2,80.6,41.2L80.6,41.2z"/>
						<path fill="#24245D" d="M80.2,41C80.2,41,80.2,41,80.2,41C80.2,41.1,80.2,41.1,80.2,41C80.2,41,80.2,41,80.2,41z"/>
						<path fill="#24245D" d="M78.5,52.2c-0.4,0-0.8-0.2-1-0.5c0.1,0.1,0.3,0.2,0.4,0.2c0.1,0,0.2,0,0.4,0c0.1,0,0.1,0,0.2,0
							c0.1,0.1,0.2,0.4,0.1,0.5c-0.1,0.1-0.1,0.1-0.2,0.2c-0.1,0.1-0.1,0.1-0.2,0.2c-0.1,0.2-0.2,0.4-0.4,0.6
							c-0.1,0.2-0.2,0.4-0.4,0.6c0,0.1-0.1,0.2-0.2,0.2H77c-0.1,0.1-0.2,0.1-0.5,0.1c-0.8,0.1-1.5,0.2-2.2,0.4
							c-2.2,0.4-4.4,0.6-6.6,1c-1.5,0.2-2.9,0.5-4.3,0.6c-0.1,0-0.1,0-0.2,0c-0.4-0.2,0.2-0.9,0.4-1.1c0.2-0.4,0.6-0.8,0.7-1.1
							c0.1-0.1,0.1-0.2,0.2-0.2h0.4c1-0.1,1.9-0.2,2.9-0.4c1.8-0.2,3.5-0.5,5.2-0.8C74.8,52.7,76.7,52.4,78.5,52.2z"/>
						<path fill="#24245D" d="M78.2,43.4c0,0-0.1,0.1-0.1,0.1C78.2,43.5,78.2,43.4,78.2,43.4z"/>
						<path fill="#24245D" d="M77.2,44.9c0.1-0.1,0.1-0.2,0.2-0.2c-0.2,0.3-0.3,0.6-0.4,0.9C77.1,45.3,77.2,45.1,77.2,44.9z"/>
						<path fill="#24245D" d="M77.1,51.2C77,51.2,77,51.2,77.1,51.2c-0.2-0.3-0.3-0.6-0.4-0.9C76.8,50.6,76.9,51,77.1,51.2z"/>
						<path fill="#24245D" d="M77,45.5c-0.1,0.2-0.1,0.3-0.2,0.5C76.9,45.9,77,45.7,77,45.5z"/>
						<path fill="#24245D" d="M76.9,46c0,0.1-0.1,0.2-0.1,0.3C76.8,46.2,76.8,46.1,76.9,46z"/>
						<path fill="#24245D" d="M76.7,46.7c0,0.2-0.1,0.3-0.1,0.5c-0.1,0.8-0.1,1.4-0.1,2.1c0.1,0.3,0.1,0.6,0.2,1
							c-0.1-0.2-0.1-0.5-0.2-0.7C76.4,48.6,76.5,47.6,76.7,46.7z"/>
						<path fill="#24245D" d="M72.4,25.3c-0.1,0-0.1,0-0.2,0C72.3,25.3,72.4,25.3,72.4,25.3z"/>
						<path fill="#24245D" d="M64.7,53.9v-0.2c0-0.1,0-0.4,0-0.5c0-1.5,0-3,0-4.5c0-2.2,0-4.4,0-6.6s0-4.5,0-6.6c0-1.5,0-2.9,0-4.4
							c0-0.2,0-0.4,0-0.6c0-0.4-0.1-0.9-0.5-1.1C64,29,63.6,29,63.2,29h-0.1C63,29,63,29,63,29c-0.1-0.1-0.1-0.1-0.1-0.2
							c0-0.1,0-0.1,0-0.1c0-0.1,0-0.1,0.1-0.2c0.4-0.4,0.6-0.9,0.9-1.2c0.1-0.1,0.1-0.2,0.3-0.4c0-0.1,0-0.1,0.1-0.2
							c0.1-0.1,0.1-0.1,0.2-0.1c0.5-0.1,1.1-0.1,1.8-0.2c1-0.1,2.1-0.4,3.2-0.5c0.9-0.1,1.6-0.2,2.5-0.4c0.2,0,0.3-0.1,0.4,0
							c-0.1,0-0.1,0-0.2,0c-0.5,0.1-1,0.1-1.5,0.2c-1.1,0.1-2.2,0.4-3.4,0.5c-0.9,0.1-1.8,0.2-2.6,0.4c0.5,0,1,0.1,1.4,0.5
							c0.6,0.6,0.5,1.8,0.5,2.6c0,0.8,0,1.6,0,2.5c0,2,0,4.1,0,6.1c0,1.4,0,2.8,0,4.1c0,2.4,0,4.6,0,7c0,0.4,0,0.9,0,1.2
							c0,0.6,0.1,1.1,0,1.6c-0.1,0.9-0.9,1.8-1.8,1.9h-0.4C64.5,53.9,64.6,54,64.7,53.9z"/>
						<path fill="#24245D" d="M61.1,44.7c0,0.9,0,1.8,0,2.6c0,1.6-0.4,3.2-1.2,4.6c-0.2,0.3-0.5,0.7-0.7,1c0.3-0.4,0.6-0.8,0.9-1.2
							c0.6-1.2,1-2.6,1-4c0-0.2,0-0.5,0-0.8c0-1.2,0-2.4,0-3.6c0-1.6,0-3.2,0-4.9c0-1.1,0-2.2,0-3.4c0-0.7-0.1-1.4-0.2-2
							c0.1,0.3,0.2,0.6,0.2,0.9c0.1,0.8,0.1,1.6,0.1,2.4c0,1.4,0,2.6,0,4C61.1,41.8,61.1,43.2,61.1,44.7z"/>
						<path fill="#FFFFFF" d="M61,46.9c0,0.2,0,0.5,0,0.8c0,1.4-0.4,2.8-1,4c-0.3,0.4-0.6,0.8-0.9,1.2c0,0,0,0,0,0.1
							c-1,1.3-2.4,2.3-4.1,2.7c-0.4,0.1-0.8,0.1-1.1,0.2L53.8,54c0.1,0,0.2,0,0.3,0c0.4-0.1,0.9-0.2,1.2-0.5c0.2-0.4,0.6-1,0.6-1.8
							c0-0.9,0-1.9,0-2.8c0-2,0-4.1,0-6.1c0-2.2,0-4.5,0-6.6c0-1.4,0-2.8,0-4.2c0-0.7-0.1-1.4-0.8-1.9C54.8,30,54.4,29.9,54,30
							l-0.2-1.6c0.8-0.1,1.7-0.1,2.5,0c1.2,0.2,2.4,1,3.1,2c0.5,0.6,0.9,1.4,1.1,2.1c0,0.1,0.1,0.3,0.1,0.5c0.1,0.7,0.2,1.4,0.2,2
							c0,1.1,0,2.2,0,3.4c0,1.6,0,3.2,0,4.9C61,44.5,61,45.7,61,46.9z"/>
						<path fill="#24245D" d="M56,49c0,0.9,0,1.9,0,2.8c0,0.8-0.4,1.4-0.6,1.8c-0.4,0.2-0.9,0.4-1.2,0.5c-0.1,0-0.2,0-0.3,0
							c-0.5,0-1.1,0.1-1.7,0.2c0-0.5,0-0.9,0-1.4c0-0.9,0-1.6,0-2.5c0-2,0-3.9,0-5.9c0-2.2,0-4.5,0-6.8c0-1.6,0-3.4,0-5
							c0-0.2,0-0.6,0-1c0-0.2,0-0.4,0-0.6s0-0.5,0-0.8c0-0.1,0-0.1,0.1-0.1c0.5-0.1,1-0.1,1.5-0.2c0.1,0,0.2-0.1,0.3-0.1
							c0.4,0,0.8,0,1.2,0.2c0.6,0.5,0.8,1.1,0.8,1.9c0,1.5,0,2.9,0,4.2c0,2.1,0,4.4,0,6.6C56,44.9,56,47,56,49z M54.5,34.3
							c0-0.2,0.1-0.6,0-0.9c-0.2-0.8-0.8-1.2-1.5-1.1c-0.2,0-0.5,0-0.6,0.1c-0.1,0-0.1,0-0.1,0s0,0.1,0,0.2c0,0.1,0,0.4,0,0.5
							c0,0.6,0,1.1,0,1.8c0,1.8,0,3.6,0,5.4c0,2.1,0,4.2,0,6.4c0,1.8,0,3.5,0,5.2c0,0.6,0,1.4,0,2.1c0.4,0,0.6-0.1,1-0.1
							c0.4-0.1,0.8-0.1,1.1-0.2c0-0.1,0-0.1,0.1,0c0-1,0-2.1,0-3.2c0-2,0-3.9,0-5.9c0-2.1,0-4.1,0-6.1C54.5,37,54.5,35.7,54.5,34.3z
							"/>
						<path fill="#FFFFFF" d="M54.5,33.4c0.1,0.2,0,0.6,0,0.9c0,1.4,0,2.8,0,4.1c0,2,0,4,0,6.1c0,2,0,3.9,0,5.9c0,1.1,0,2.2,0,3.2
							c-0.1-0.1-0.1-0.1-0.1,0c-0.4,0.1-0.8,0.1-1.1,0.2c-0.4,0-0.6,0.1-1,0.1c0-0.8,0-1.5,0-2.1c0-1.8,0-3.5,0-5.2
							c0-2.1,0-4.2,0-6.4c0-1.8,0-3.6,0-5.4c0-0.6,0-1.1,0-1.8c0-0.1,0-0.4,0-0.5c0-0.1,0-0.2,0-0.2s0,0,0.1,0
							c0.1-0.1,0.4-0.1,0.6-0.1C53.7,32.2,54.2,32.7,54.5,33.4z"/>
						<path fill="#24245D" d="M47.5,55.8c0-0.1,0.1-0.3,0.1-0.2C47.6,55.6,47.5,55.7,47.5,55.8z"/>
						<path fill="#24245D" d="M47.5,55.8c0-0.1,0.1-0.1,0.1-0.2C47.5,55.9,47.4,55.9,47.5,55.8C47.5,55.8,47.5,55.8,47.5,55.8z"/>
						<path fill="#24245D" d="M46.3,29.4c-0.1,0-0.2,0-0.3,0C46.1,29.4,46.2,29.4,46.3,29.4z"/>
						<path fill="#24245D" d="M44.6,50.8c0,1.5,0,2.9,0,4.4c0,0.5-0.2,0.9-0.4,1.1c-0.1,0.4-0.4,0.6-0.6,1c0-0.4-0.1-0.8-0.4-1
							s-0.6-0.4-0.9-0.6c-0.5-0.5-0.5-1.2-0.1-1.8c0.1-0.2,0.4-0.5,0.5-0.8c0-0.1,0.1-0.2,0.2-0.4c0.2-0.2,0.5-0.6,0.6-0.9
							c0.1-0.2,0.4-0.5,0.5-0.8c0-0.1,0.1-0.4,0.2-0.5c0.1-0.1,0.2-0.4,0.2-0.5C44.6,50.4,44.6,50.5,44.6,50.8z"/>
						<path fill="#FFFFFF" d="M32.4,47.9c0,0.1,0,0,0,0.1c-0.1,0.1-0.4,0.2-0.5,0.4c-0.5,0.4-0.9,0.9-1.4,1.2
							c0.1-0.9,0.2-1.6,0.4-2.5c0.2-1.4,0.4-2.6,0.5-4c0-0.2,0.1-0.5,0.1-0.8c0.1,0.9,0.2,1.6,0.4,2.5c0.1,0.6,0.2,1.2,0.2,1.9
							c0,0.2,0.1,0.5,0.1,0.8C32.2,47.7,32.4,47.8,32.4,47.9z"/>
						<path fill="#24245D" d="M29.7,31.9c-0.1,0-0.2,0-0.3,0C29.5,31.9,29.6,31.9,29.7,31.9z"/>
						<path fill="#24245D" d="M27.7,20.6c0.4,0,0.8,0.5,0.4,0.8c0,0-0.1,0-0.2,0.1c0,0.1-0.1,0.1-0.2,0.2c0,0-0.1,0-0.1,0.1l0,0
							c-0.7,0.1-1.3,0.2-2.1,0.3c-1.5,0.1-3.1,0.4-4.6,0.6c-1.2,0.1-2.5,0.4-3.8,0.5c0.8,0,1.4,0.2,1.6,0.9c0.1,0.5,0,1.1-0.1,1.6
							c-0.4,1.4-0.9,2.9-1.2,4.2c-0.4,1.4-0.8,2.6-1.1,3.9c-0.1-0.5-0.4-1-0.5-1.5c-0.6-1.5-1.1-3.1-1.6-4.6
							c-0.2-0.5-0.4-0.9-0.5-1.4c-0.1-0.6-0.1-1.4,0.1-1.9c0.2-0.4,0.4-0.7,0.8-0.8c0,0,0,0,0,0.1c0,0.1-0.1,0.2-0.2,0.4
							c-0.1,0.2-0.1,0.4-0.4,0.5h-0.1v0.1c0.1,0.1,0.1,0.2,0.1,0.4c0,0.1,0.1,0.2,0.1,0.4c0.1,0.5,0.2,0.9,0.4,1.2
							c0.1,0.5,0.4,0.9,0.5,1.4c0,0.2,0.1,0.5,0.4,0.8c0.6,0.8,1.1-0.8,1.2-1.1c0.1-0.4,0.2-0.9,0.4-1.2c0.1-0.6,0.4-1.6-0.2-2
							c-0.1-0.1-0.4-0.1-0.6-0.1c-0.1,0-0.4,0-0.5-0.1c-0.4-0.4,0.1-0.6,0.4-0.9c0.1-0.1,0.2-0.2,0.4-0.4c0,0,0.1-0.2,0.2-0.2
							c-0.1-0.8,0.9-0.6,1.2-0.8c2.1-0.2,4.2-0.6,6.4-0.9c0.9-0.1,1.9-0.2,2.8-0.4c0.2,0,0.5-0.1,0.8-0.1H27.7z M17.9,26.9
							c0.2-0.9,1.2-3.2-0.4-3.2c0.6,0.5,0.5,1.4,0.2,2.1c0,0.4-0.1,0.6-0.2,1c-0.2,1.1-0.6,2.2-1,3.5c-0.1,0.4-0.2,0.9-0.4,1.2
							C16,31.7,16,31.7,16,31.8c0,0,0.1,0.1,0.1,0.2c0,0,0.1,0.1,0.1,0.2c0.1-0.4,0.2-0.7,0.4-1.1C17,29.8,17.5,28.3,17.9,26.9z"/>
						<path fill="#24245D" d="M27.5,35.8c0.1,0.2,0.1,0.6,0.1,0.9s-0.1,0.6-0.1,0.9c-0.2,1.8-0.5,3.5-0.8,5.3
							c-0.2,2.5-0.6,4.9-1,7.2c-0.2,2-0.6,4-0.9,6c-0.1,0.5-0.1,1-0.2,1.5c0,0.1,0,0.1,0,0.2c-0.1,0.1-0.1,0.4-0.2,0.5
							c0,0.2-0.2,0.4-0.4,0.5c-0.2,0.1-0.2,0.2-0.4,0.5c0,0.2-0.1,0.4-0.2,0.5c-0.4-0.5-0.8-0.6-1.2-0.9c-0.4-0.1-0.8-0.5-0.9-0.9
							c-0.1-0.4-0.1-0.6-0.1-0.9c0-2.3,0-4.5,0-6.8c0-1.1,0-2.1,0-3.2c0-0.2,0-0.4,0-0.6c0-0.4,0-0.9,0.1-1.2c0.4-1.9,0.6-3.6,1-5.4
							c0.4-1.8,0.8-3.5,1.2-5.2c0.2-0.6,0.4-1.3,0.6-1.9l2.3,0.7c-0.1,0.5,0,1,0.2,1.4C26.9,35.2,27.2,35.4,27.5,35.8z"/>
						<path fill="#FFFFFF" d="M27.5,21.9C27.5,21.9,27.5,21.9,27.5,21.9C27.5,21.9,27.5,21.9,27.5,21.9c-1.2,0.5-2.1,1.5-2.7,2.4
							c-0.1,0.2-0.1,0.3-0.2,0.5c0,0,0,0,0,0l-0.1,0.1h-0.1V25c-0.1,0.2-0.1,0.5-0.2,0.8c0,0.2-0.1,0.6-0.2,0.9
							c-0.5,1.5-1,3.1-1.5,4.8c-0.4,1.1-0.6,2.2-0.9,3.3c0,0,0,0,0,0.1c-0.4,1.2-0.8,2.5-1.2,3.8c-0.2,0.9-0.6,1.9-0.9,2.8
							c0,0.1,0,0.2,0,0.4c0,0.5,0,0.9,0,1.4c0,0.8,0,1.6,0,2.4c-0.1,0.5-0.1,0.9-0.1,1.4c0,1,0,1.9,0,2.9c0,2.2,0,4.4,0,6.5
							c0,0.8,0,1.4,0.1,2.1c0,0.1,0,0.2,0,0.4c0,0.6,0.2,1.2,0.8,1.6c0.4,0.3,0.9,0.5,1.5,0.5c0,0,0,0,0,0c-1.1,0.1-2.3,0.3-3.5,0.5
							c-1.5,0.2-3.1,0.5-4.6,0.6c-0.8,0.1-1.5,0.2-2.3,0.3c1.2-0.2,2.1-1.4,2.3-2.5c0.1-0.8,0-1.5,0-2.1c0-0.6,0-1.4,0-2
							c0-1.6,0-3.1,0-4.8c0-1.8,0-3.5,0-5.2c0-1.1,0-2.1,0-3.2c0-0.5-0.2-0.9-0.4-1.4c-0.5-1.4-1-2.8-1.5-4.3
							c-0.6-1.6-1.2-3.2-1.8-4.9c-0.4-1-0.8-1.9-1-2.9c-0.1-0.4-0.4-0.9-0.5-1.2c-0.1-0.4-0.2-0.6-0.4-1c-0.4-0.6-0.9-1-1.5-1.4
							C6,25.2,5.2,24.9,4.6,25c0.6-0.1,1.4-0.2,2.2-0.4c1.1-0.1,2.3-0.4,3.4-0.5c1-0.1,1.9-0.2,2.9-0.4c0.6-0.1,1.1-0.2,1.6-0.2
							c-0.1,0.1-0.1,0.1-0.1,0.2c-0.4,0.2-0.6,0.4-0.8,0.8c-0.2,0.5-0.2,1.2-0.1,1.9c0.1,0.5,0.2,0.9,0.5,1.4c0.5,1.5,1,3.1,1.6,4.6
							c0.1,0.5,0.4,1,0.5,1.5c0.4-1.2,0.8-2.5,1.1-3.9c0.4-1.4,0.9-2.9,1.2-4.2c0.1-0.5,0.2-1.1,0.1-1.6c-0.2-0.6-0.9-0.9-1.6-0.9
							c1.2-0.1,2.5-0.4,3.8-0.5c1.5-0.2,3.1-0.5,4.6-0.6C26.2,22,26.8,22,27.5,21.9z"/>
						<path fill="#24245D" d="M27.5,21.9c0,0,0,0.1-0.1,0.1c-0.1,0.1-0.1,0.2-0.2,0.4c0,0.1-0.1,0.4-0.2,0.5
							c-0.1,0.1-0.5,0.1-0.6,0.2c-0.1,0.1-0.1,0.1-0.2,0.2c-0.1,0-0.1,0.1-0.1,0.1c0,0.1,0,0.1,0,0.1h-0.1c-0.1,0.1-0.1,0.1-0.2,0.2
							L25.4,24c-0.1,0.1-0.1,0.1-0.1,0.1c-0.1,0.1-0.2,0.2-0.4,0.4c-0.1,0.1-0.1,0.1-0.2,0.2c0.1-0.2,0.1-0.3,0.2-0.5
							C25.4,23.3,26.3,22.3,27.5,21.9z"/>
						<path fill="#24245D" d="M24.6,24.8C24.6,24.8,24.6,24.8,24.6,24.8c-0.2,0.6-0.4,1.2-0.6,1.9c-0.2,0.6-0.4,1.4-0.6,2
							c-0.5,1.6-1,3.1-1.5,4.8c-0.1,0.4-0.3,0.9-0.4,1.3c0.3-1.1,0.5-2.2,0.9-3.3c0.5-1.6,1-3.2,1.5-4.8c0.1-0.2,0.2-0.6,0.2-0.9
							c0.1-0.2,0.1-0.5,0.2-0.8v-0.1h0.1L24.6,24.8z"/>
						<path fill="#24245D" d="M21.5,60.4c0.1,0.1,0.1,0.3,0.1,0.4v0c-0.5,0-1-0.2-1.5-0.5c-0.5-0.4-0.8-1-0.8-1.6c0-0.1,0-0.3,0-0.4
							c0,0.4,0,0.8,0.1,1c0.1,0.5,0.5,0.8,0.9,0.9c0.1,0.1,0.4,0.1,0.6,0.1C21.1,60.3,21.4,60.2,21.5,60.4z"/>
						<path fill="#24245D" d="M21.4,34.8c-0.1,0.5-0.2,0.9-0.3,1.4c-0.4,1.5-0.8,3.1-1,4.6c-0.2,1.5-0.5,3.1-0.8,4.6
							c0-0.8,0-1.6,0-2.4c0-0.5,0-0.9,0-1.4c0-0.1,0-0.2,0-0.4c0.2-0.9,0.6-1.9,0.9-2.8C20.6,37.2,21,36,21.4,34.8z"/>
						<path fill="#24245D" d="M19.4,57.7c0,0.2,0,0.4,0,0.6c-0.1-0.8-0.1-1.4-0.1-2.1c0-2.1,0-4.2,0-6.5c0-1,0-1.9,0-2.9
							c0-0.5,0-0.9,0.1-1.4c0,0.8,0,1.7,0,2.5c0,1.8,0,3.6,0,5.4c0,1.1,0,2.1,0,3.2C19.4,56.9,19.4,57.3,19.4,57.7z"/>
						<path fill="#FFFFFF" d="M17.5,23.7c1.6,0,0.6,2.4,0.4,3.2c-0.4,1.4-0.9,2.9-1.2,4.2c-0.1,0.4-0.2,0.8-0.4,1.1
							c0-0.1-0.1-0.2-0.1-0.2c0-0.1-0.1-0.2-0.1-0.2c0-0.1,0-0.1,0.1-0.2c0.1-0.4,0.2-0.9,0.4-1.2c0.4-1.2,0.8-2.4,1-3.5
							c0.1-0.4,0.2-0.6,0.2-1C18,25,18.1,24.2,17.5,23.7z"/>
						<path fill="#24245D" d="M14.7,23.5c0.2,0,0.3,0,0.4,0c-0.2,0-0.4,0.1-0.6,0.2C14.6,23.6,14.6,23.6,14.7,23.5z"/>
						<path fill="#FFFFFF" d="M12.9,58c0,0.8,0.1,1.6-0.2,2.4c-0.2,0.5-0.6,1-1.2,1.4c0.8-0.8,1.1-1.6,1.1-2.4s0-1.5,0-2.1
							c0-1.1,0-2.1,0-3.2c0-1.6,0-3.2,0-4.9c0-1.5,0-3,0-4.5c0-0.5,0-1,0-1.5c0-0.2,0-0.5,0-0.8c0-0.1,0-0.2-0.1-0.2
							c-0.1-0.4-0.2-0.8-0.4-1.1c-0.5-1.4-1-2.6-1.5-4c-0.5-1.5-1.1-3-1.6-4.5c-0.4-1-0.8-2-1.1-3c-0.1-0.1-0.1-0.4-0.2-0.5
							c-0.2-0.6-0.5-1.4-0.9-2c-0.4-0.5-0.9-0.9-1.4-1.2c1.1,0.2,1.9,1.1,2.2,2.1c0.2,0.5,0.4,1,0.6,1.4C8.4,30,8.7,30.9,9,31.7
							c0.5,1.5,1.1,3,1.6,4.5s1,2.9,1.6,4.4c0.1,0.5,0.4,0.9,0.5,1.4c0,0.1,0.1,0.2,0.1,0.4c0,0.2,0,0.4,0,0.6c0,0.5,0,1,0,1.5
							c0,1.5,0,3,0,4.4c0,1.8,0,3.4,0,5.1C12.9,55.3,12.9,56.7,12.9,58z"/>
					</g>
					<g>
						<path fill="none" stroke="#000000" stroke-width="0.2" stroke-miterlimit="10" d="M44.6,55.2c0-1.5,0-2.9,0-4.4
							c0-0.2,0-0.4,0-0.6c0,0.1-0.1,0.4-0.2,0.5c-0.1,0.1-0.2,0.4-0.2,0.5c-0.1,0.2-0.4,0.5-0.5,0.8c-0.1,0.2-0.4,0.6-0.6,0.9
							c-0.1,0.1-0.2,0.2-0.2,0.4c-0.1,0.2-0.4,0.5-0.5,0.8c-0.4,0.5-0.4,1.2,0.1,1.8c0.2,0.2,0.6,0.4,0.9,0.6s0.4,0.6,0.4,1
							c0.2-0.4,0.5-0.6,0.6-1C44.4,56,44.6,55.7,44.6,55.2z"/>
						<path fill="none" stroke="#000000" stroke-width="0.2" stroke-miterlimit="10" d="M99.9,26.6c-0.1-1-0.3-1.9-0.6-2.7
							c-0.1-0.2-0.2-0.4-0.4-0.6c-0.1-0.2-0.2-0.5-0.5-0.8c-0.2-0.4-0.5-0.8-0.8-1c-0.6-0.8-1.5-1.2-2.4-1.8
							c-1.5-0.8-3.1-0.9-4.8-0.6c-0.6,0.1-1.1,0.1-1.8,0.2c-0.1,0-0.2,0-0.5,0.1c-0.1,0-0.2,0-0.2,0c-0.1,0-0.1-0.1-0.2-0.2
							c-0.1-0.2-0.2-0.4-0.4-0.6c-1.1-1.5-2.2-3-3.5-4.4C81.4,11.5,78.5,9,75.4,7c-3.1-2.1-6.6-3.8-10.2-4.9
							C61.4,0.9,57.5,0.3,53.6,0c-4-0.1-7.9,0.2-11.8,1.1c-3.8,0.9-7.2,2.2-10.6,4c-3.2,1.8-6.4,4-9.1,6.5c-1.4,1.2-2.6,2.6-3.9,4.1
							c-0.6,0.8-1.1,1.5-1.8,2.3c-0.2,0.4-0.5,0.8-0.8,1.1c-0.1,0.2-0.2,0.4-0.4,0.6c0,0.1-0.1,0.2-0.1,0.2c-0.1,0.1-0.1,0-0.1,0
							C15,20,15,20,15,20c-0.5,0-1,0.1-1.5,0.2c-1.1,0.1-2.2,0.4-3.4,0.5c-2,0.2-4,0.5-6,0.9c-0.4,0-0.8,0.1-1.1,0.2
							c-0.4,0.2-0.9,0.5-1.1,0.9c-0.1,0.1-0.2,0.4-0.4,0.5c-0.1,0.1-0.1,0.2-0.1,0.4c-0.1,0.1-0.1,0.1-0.2,0.2
							c-1.4,1.2-1.5,3.6-0.1,5c0.6,0.6,1.4,0.9,2.1,1c0.2,0,0.5,0,0.6,0.2c0.1,0.2,0.1,0.4,0.2,0.6c0.2,0.8,0.6,1.5,0.9,2.2
							c0.6,1.6,1.2,3.2,1.8,5c0.5,1.6,1,3.3,1.4,5c0.2,0.8,0.4,1.6,0.5,2.5c0.1,0.5,0.2,1.1,0.2,1.8c0.1,0.5,0.2,1,0.2,1.5
							c0,2.1,0,4.2,0,6.4C9,56,9,57,9,57.9c0,0.6,0,1.2,0,1.8c0,0.1,0,0.2,0,0.4c0,0.1-0.1,0.1-0.2,0.2c-0.1,0.1-0.2,0.2-0.2,0.2
							c-0.1,0.2-0.4,0.4-0.5,0.6c-0.1,0.2-0.3,0.2-0.4,0.4c-0.8,0.6-1.1,1.6-1.1,2.6c0.1,1.8,1.5,3.2,3.4,3.2c0.4,0,0.6-0.1,1-0.1
							c0.5-0.1,1.1-0.1,1.6-0.2c0.6-0.1,1.2-0.1,1.8-0.2c0.2,0,0.4-0.1,0.6-0.1c0.1,0,0.2-0.1,0.2,0c0.1,0,0.1,0.4,0.2,0.4
							c0.1,0.2,0.2,0.4,0.2,0.6c0.2,0.4,0.4,0.9,0.6,1.4c0.4,0.9,0.9,1.8,1.2,2.6c0.9,1.8,1.9,3.5,2.8,5.4c1.9,3.6,3.9,7.1,6,10.6
							c2,3.5,4.1,6.9,6.2,10.4c2,3.1,4,6.4,6.1,9.5c1.8,2.8,3.6,5.4,5.5,8.1c1.4,2,2.9,4.1,4.2,6.1c0.5,0.8,1,1.5,1.6,2.2
							c0.2,0.2,0.4,0.5,0.6,0.9c0.1,0.1,0.1,0.2,0.2,0.4c0.1,0.2,0.4,0.4,0.6,0.4c0.4,0.1,0.8,0,1-0.1c0.1-0.1,0.2-0.2,0.2-0.4
							c0.1-0.2,0.4-0.5,0.5-0.8c0.4-0.6,0.9-1.2,1.2-1.8c1.2-1.6,2.4-3.2,3.5-5c1.5-2.1,3-4.4,4.5-6.6c1.7-2.6,3.5-5.3,5.1-7.8
							c1.9-2.9,3.8-5.8,5.5-8.8c1.9-3,3.8-6.1,5.5-9.2c1.8-3.1,3.5-6.2,5.2-9.4c1.6-3,3.1-6.1,4.5-9.2c1.4-2.9,2.5-5.8,3.6-8.8
							c0.2-0.8,0.5-1.4,0.8-2.1c0-0.1,0.1-0.4,0.2-0.5c0.2-0.1,0.5-0.2,0.8-0.4c0.4-0.2,0.9-0.5,1.2-0.8c0.8-0.6,1.6-1.4,2.1-2.2
							c0.1-0.2,0.2-0.4,0.4-0.6c0.2-0.4,0.6-0.8,0.9-1.1c1-1.6,1.6-3.5,1.6-5.4c0-0.4,0-0.9,0-1.2c0-2.1,0-4.4,0-6.5
							c0-2.4,0-4.6,0-7c0-0.6,0-1.2,0-1.9c0-0.1,0-0.2,0-0.4C100,27.4,99.9,27,99.9,26.6z"/>
						<path fill="none" stroke="#000000" stroke-width="0.2" stroke-miterlimit="10" d="M62.7,48.2c0,2.1-0.8,4.1-1.9,5.9
							c-0.2,0.2-0.4,0.5-0.5,0.8c-0.1,0.2-0.4,0.5-0.5,0.8c-0.4,0.6-0.9,1.2-1.5,1.9c-1.4,1.4-3.1,2.4-5,2.8
							c-0.2-0.8-0.5-0.8-0.8-0.8c-1.1,0.1-2.2,0.4-3.5,0.5c-1.4,0.2-2.9,0.4-4.2,0.6c-1,0.1-2-0.5-2-1.6c-0.2,0.4-0.5,0.8-0.8,1.1
							c-0.2,0.4-0.6,0.8-1,1c-0.4,0.1-0.8,0.1-1.1,0.2c-1.5,0.2-3.1,0.5-4.6,0.6c-0.6,0.1-1.2,0.2-1.9,0.2c-0.1,0-0.2,0-0.4,0.1
							c-0.1,0-0.1,0-0.2,0c-0.1,0-0.4,0-0.5-0.1C32.2,62,32,62,31.9,61.9c-0.4-0.1-0.8,0-1,0.1c-0.2,0.1-0.5,0.4-0.9,0.5
							c-0.2,0.1-0.4,0.1-0.6,0.1c-0.8,0.1-1.4,0.2-2.1,0.2c-0.8,0.1-1.5,0.2-2.4,0.4c-0.6,0.1-1.2,0.2-1.8-0.2
							c-0.2-0.1-0.4-0.4-0.5-0.6c-0.1,0.1-0.2,0.4-0.4,0.5c-0.1,0.1-0.2,0.4-0.5,0.5c-0.2,0.2-0.5,0.2-0.9,0.4
							c-0.2,0-0.4,0.1-0.6,0.1c-1,0.1-2.1,0.2-3.2,0.5c-2.2,0.4-4.5,0.6-6.8,1c-0.4,0-0.6,0.1-1,0c-0.9-0.2-1.5-1.2-1.4-2.1
							C8,62.8,8.2,62.4,8.7,62c0.1-0.1,0.2-0.2,0.4-0.5c0.1-0.2,0.2-0.5,0.5-0.8c0.2-0.2,0.4-0.5,0.5-0.7c0.1-0.2,0.1-0.3,0.1-0.5
							c0-0.2,0-0.5,0-0.8c0-1.8,0-3.4,0-5.1c0-2,0-4,0-6c0-0.4-0.1-0.9-0.1-1.2C10,45.9,10,45.5,9.9,45c-0.1-0.9-0.4-1.8-0.5-2.6
							c-0.2-0.9-0.5-1.8-0.8-2.6c-0.2-0.9-0.5-1.8-0.8-2.6c-0.6-1.9-1.2-3.6-1.9-5.5c-0.2-0.9-0.6-1.6-1-2.4
							c-0.1-0.2-0.2-0.6-0.5-0.8c-0.4-0.2-0.7-0.4-1.1-0.4C3,28,2.6,28,2.3,27.9c-0.4-0.2-0.7-0.5-0.9-1c-0.1-0.5-0.1-1,0.1-1.5
							C1.7,25.2,1.9,25,2,24.9c0.2-0.2,0.4-0.4,0.6-0.6C2.7,24,2.8,23.9,3,23.7c0.1-0.2,0.4-0.4,0.6-0.5C3.8,23,4,22.9,4.2,22.9
							c0.8-0.1,1.4-0.2,2.1-0.2c2.5-0.4,5-0.8,7.5-1c0.4,0,0.8-0.1,1-0.1c0.1,0,0.1,0,0.2,0c0.4,0,0.8,0.1,1.1,0
							c0.4-0.1,0.6-0.2,0.9-0.2c0.1,0,0.1,0,0.2,0c0.4,0,0.8-0.1,1-0.1c2.5-0.4,5-0.8,7.5-1c0.8-0.1,1.4-0.2,2-0.2
							c0.8-0.1,1.5,0.2,1.9,0.9c0.2,0.5,0.4,1,0.2,1.5c-0.1,0.2-0.2,0.5-0.4,0.6c-0.1,0.2-0.4,0.4-0.6,0.5c-0.1,0.1-0.2,0.4-0.4,0.5
							c-0.1,0.1-0.2,0.4-0.4,0.5c-0.4,0.4-0.9,0.5-1.1,0.9c-0.1,0.2-0.4,0.4-0.5,0.5c-0.2,0.2-0.4,0.5-0.5,0.9
							c-0.2,0.9-0.5,1.6-0.9,2.5c-0.4,1-0.6,2-1,2.9c-0.1,0.2-0.1,0.5-0.2,0.7c-0.2,0.6-0.4,1.3-0.6,1.9c-0.5,1.8-0.9,3.5-1.2,5.2
							c-0.4,1.8-0.6,3.5-1,5.4c-0.1,0.4-0.1,0.9-0.1,1.2c0,0.2,0,0.4,0,0.6c0,1.1,0,2.1,0,3.2c0,2.2,0,4.5,0,6.8
							c0,0.2,0,0.5,0.1,0.9c0.1,0.4,0.5,0.8,0.9,0.9c0.5,0.2,0.9,0.4,1.2,0.9c0.1-0.1,0.2-0.2,0.2-0.5c0.1-0.2,0.1-0.4,0.4-0.5
							c0.1-0.1,0.4-0.2,0.4-0.5c0.1-0.1,0.1-0.4,0.2-0.5c0-0.1,0-0.1,0-0.2c0.1-0.5,0.1-1,0.2-1.5c0.3-2,0.6-4,0.9-6
							c0.4-2.4,0.8-4.8,1-7.2c0.2-1.8,0.5-3.5,0.8-5.3c0-0.2,0.1-0.6,0.1-0.9s0-0.6-0.1-0.9c-0.2-0.4-0.6-0.6-0.9-1
							c-0.2-0.4-0.4-0.9-0.2-1.4c0.1-0.2,0.2-0.5,0.4-0.8c0.2-0.4,0.6-0.9,0.9-1.2c0.1-0.1,0.1-0.2,0.2-0.4c0.1-0.2,0.2-0.4,0.5-0.5
							c0.2-0.1,0.5-0.2,0.8-0.2c0.6-0.1,1.4-0.2,2-0.2c2.1-0.2,4.1-0.6,6.2-0.9c0.4,0,0.6-0.1,1,0c1,0.2,1.5,1.4,1.1,2.4
							c-0.1,0.4-0.4,0.6-0.6,0.9c-0.1,0.2-0.2,0.4-0.4,0.6c-0.2,0.4-0.2,0.8-0.2,1.2c0.2,2,0.6,4,0.9,6.1c0.1,0.8,0.2,1.5,0.4,2.2
							c0.1,0.5,0.4,1,0.9,1.2C40.6,44,40.7,44,41,44c0.2,0.1,0.5,0.1,0.9,0.2c0.5,0.1,1,0.4,1.4,0.8c0.6,0.5,1.4,1.2,1.5,2
							c0-1.5,0-3.1,0-4.6c0-2.2,0-4.5,0-6.8c0-0.6,0.1-1.2-0.2-1.9c-0.2-0.4-0.8-0.5-1.1-0.9c-0.2-0.4-0.5-0.9-0.4-1.2
							c0-0.6,0.5-1.1,0.9-1.6c0.1-0.2,0.2-0.4,0.4-0.6c0.1-0.1,0.1-0.1,0.1-0.2c0.1-0.2,0.2-0.4,0.5-0.6c0.4-0.2,0.6-0.4,1-0.4
							c1-0.1,1.9-0.2,2.9-0.4c1.2-0.1,2.4-0.4,3.6-0.5c0.8-0.1,1.5-0.2,2.2-0.2c0.1,0,0.2,0,0.5,0s0.5,0,0.8,0c1,0.1,2,0.4,2.9,0.9
							c0.9,0.5,1.6,1.1,2.2,2c0.2,0.4,0.5,0.8,0.8,1.2c0.2,0.4,0.4,0.9,0.5,1.4c0.4,0.9,0.5,1.9,0.5,2.9c0,1.5,0,3.1,0,4.6
							c0,2.2,0,4.5,0,6.8C62.7,47.3,62.7,47.7,62.7,48.2z"/>
						<path fill="none" stroke="#000000" stroke-width="0.2" stroke-miterlimit="10" d="M98.4,26.9c0,0.3,0.1,0.7,0.1,1
							c0,0.9,0,1.8,0,2.8c0,1.8,0,3.5,0,5.4c0,1.9,0,3.6,0,5.5c-0.1,0.5-0.1,1.5-0.1,2.8c0,1.5-0.4,3-1.1,4.2c-0.2,0.5-0.6,1-1,1.5
							c-0.2,0.4-0.5,0.8-0.8,1c-0.9,1-1.9,1.9-3.1,2.5c-0.9,0.4-1.6,0.5-2.5,0.6c-0.6,0.1-1.4,0.2-2,0.2c-1.2,0.1-2.5,0-3.5-0.5
							c-2.1-1-3.4-3.1-3.6-5.5c-0.1-0.6,0-1.4,0-2c0-0.8,0-1.5,0-2.2V44c0,0.1-0.1,0.2-0.2,0.4c-0.1,0.1-0.2,0.2-0.5,0.4
							c-0.4,0.2-0.8,0.5-1,0.9c-0.2,0.4-0.4,0.8-0.5,1.2c-0.1,0.4-0.2,0.9-0.2,1.2c0,0.8-0.1,1.6,0.5,2.1c0.2,0.2,0.6,0.4,0.9,0.5
							c0.2,0.2,0.5,0.6,0.6,1c0.1,0.4,0.1,0.8,0,1.1c-0.1,0.2-0.4,0.5-0.5,0.8c-0.2,0.4-0.5,0.6-0.6,1c-0.2,0.4-0.5,0.8-1,1
							c-0.2,0.1-0.4,0.1-0.6,0.2c-1.1,0.1-2.3,0.4-3.4,0.5c-1.9,0.2-3.8,0.5-5.6,0.9c-1.4,0.2-2.8,0.4-4.2,0.6
							c-0.4,0.1-0.7,0.1-1.2,0c-0.6-0.2-1-0.8-1.1-1.4c-0.1-0.6,0.1-1,0.5-1.5c0.2-0.4,0.5-0.8,0.8-1.1c0.2-0.4,0.5-0.9,0.5-1.4
							c0-0.1,0-0.4,0-0.5c0-1.1,0-2.4,0-3.5c0-0.1,0-0.2,0-0.4c0-1.7,0-3.4,0-5c0-1.9,0-3.8,0-5.8c0-1.5,0-2.9,0-4.4
							c0-0.9,0.1-2-0.5-2.5c-0.2-0.1-0.4-0.2-0.6-0.4c-0.1-0.1-0.2-0.2-0.2-0.4c-0.2-0.4-0.4-0.9-0.4-1.2c0-0.4,0.4-0.9,0.5-1.2
							c0.2-0.4,0.5-0.6,0.6-1c0.2-0.2,0.4-0.6,0.6-0.9s0.5-0.4,0.9-0.4c0.1,0,0.2,0,0.4,0c0.8-0.1,1.4-0.2,2.1-0.2
							c1.6-0.2,3.2-0.5,5-0.8c0.8-0.1,1.6,0,2.1,0.8s0.4,1.5-0.1,2.2c-0.2,0.2-0.4,0.6-0.6,0.9c-0.2,0.4-0.5,0.6-0.6,1
							c-0.1,0.2-0.1,0.4-0.1,0.6c0,0.5,0,1,0,1.4c0,1.8,0,3.6,0,5.4c0,1.6,0,3.1,0,4.8c0,0.4,0,0.9,0.1,1.2c0.2,0.8,1.1,1,1.9,0.9
							c0.4-0.1,0.6-0.4,1-0.6c0.2-0.2,0.6-0.5,1-0.8c0.6-0.4,1.4-0.8,2-1.1c0.4-0.1,0.8-0.2,1.1-0.4c0.2-0.1,0.4-0.1,0.5-0.1
							c0.2,0,0.4-0.1,0.5,0c0-1.2,0-2.4,0-3.6c0-1.6,0-3.2,0-4.9c0-0.9,0.1-1.6,0.2-2.5c0.4-1.2,1-2.4,1.8-3.5
							c0.1-0.2,0.2-0.4,0.4-0.6c0.2-0.2,0.4-0.6,0.6-0.9c0.5-0.5,1-1,1.6-1.5c1-0.6,2.1-1,3.2-1.3c0.8-0.1,1.5-0.2,2.4-0.4
							c1.1-0.1,2.4,0,3.4,0.4C96.6,22.3,98.1,24.5,98.4,26.9z"/>
						<path fill="none" stroke="#000000" stroke-width="0.2" stroke-miterlimit="10" d="M89.8,24.5c-0.4,0.1-0.7,0.3-1,0.6
							c-0.5,0.5-0.8,1.2-0.8,1.9c0,1.4,0,2.6,0,4c0,2.1,0,4.4,0,6.5c0,2.1,0,4.2,0,6.4c0,1.1,0,2.4,0,3.5c0.1,0.4,0.1,0.5,0.1,0.8
							c0.1,0.4,0.4,0.9,0.8,1c0.3,0.1,0.5,0.2,0.8,0.2c0.1,0,0.2,0,0.3,0c0.9-0.1,1.6-0.9,1.8-1.8c0.1-0.4,0.1-0.8,0.1-1.1
							c0-1.5,0-3,0-4.5c0-2.3,0-4.5,0-6.6c0-2,0-4.1,0-6.1c0-1,0-2,0-2.9c0-0.8-0.4-1.4-1.1-1.6C90.4,24.4,90.1,24.4,89.8,24.5z"/>
						<path fill="none" stroke="#000000" stroke-width="0.2" stroke-miterlimit="10" d="M88.4,26.7c0-0.1,0-0.2,0-0.4
							c0-0.1,0.2-0.1,0.2-0.1c0.1,0,0.2,0,0.4-0.1c0.4,0,0.6,0,0.9,0.2c0.4,0.2,0.6,0.8,0.6,1.2c0,0.2,0,0.5,0,0.9c0,1.5,0,3,0,4.5
							c0,2.1,0,4.2,0,6.4c0,2,0,3.9,0,5.9c0,1,0,2,0,3c0,0,0,0,0,0.1c0,0,0,0,0,0.1c0,0.1,0,0.2-0.1,0.2c-0.1,0.1-0.4,0.1-0.5,0.1
							c-0.8,0.1-1.5-0.4-1.5-1.2c0-0.2,0-0.5,0-0.8c0-1.4,0-2.9,0-4.2c0-2.1,0-4.3,0-6.4c0-2,0-4,0-6c0-1.1,0-2.2,0-3.4
							C88.4,26.8,88.4,26.8,88.4,26.7z"/>
						<path fill="none" stroke="#000000" stroke-width="0.2" stroke-miterlimit="10" d="M84.4,25.1C84.4,25.1,84.4,25.1,84.4,25.1
							c0,0.1-0.1,0.1-0.1,0.2c0,0,0,0.1-0.1,0.2c0,0,0,0,0,0.1"/>
						<path fill="none" stroke="#000000" stroke-width="0.2" stroke-miterlimit="10" d="M88.8,22.8c-1,0.1-1.9,0.5-2.6,1.1
							c-0.9,0.2-1.4,0.9-1.9,1.6"/>
						<path fill="none" stroke="#000000" stroke-width="0.2" stroke-miterlimit="10" d="M88.8,22.8c0.5-0.1,1-0.1,1.5-0.2
							c0.5-0.1,1.1-0.2,1.8-0.2c1,0,2,0.2,2.9,0.9c1.5,1,2.1,2.8,2.1,4.5c0,0.5,0,1.1,0,1.8c0,2.5,0,5,0,7.5c0,2.2,0,4.4,0,6.6
							c0,0.8,0,1.5-0.1,2.2c-0.2,1-0.8,2.1-1.5,3c-0.4,0.4-0.6,0.8-0.9,1.1c-0.4,0.5-0.8,0.9-1.1,1.2c-0.8,0.6-1.8,1.1-2.8,1.4
							c-0.5,0.1-1,0.1-1.5,0.2c-0.4,0.1-0.9,0.1-1.4,0.2c-0.9,0.1-1.8,0-2.6-0.4c-1.6-0.8-2.6-2.4-2.9-4.1c-0.1-0.6-0.1-1.2-0.1-1.9
							c0-2.2,0-4.5,0-6.8c0-2.5,0-4.9,0-7.4c0-0.5,0-1.1,0-1.6c0-0.8,0.1-1.5,0.4-2.2c0.2-1,0.9-1.9,1.5-2.8
							c0.1-0.1,0.1-0.2,0.2-0.4"/>
						<path fill="none" stroke="#000000" stroke-width="0.2" stroke-miterlimit="10" d="M88.8,22.8c0.2,0,0.5-0.1,0.8-0.1
							c0.7-0.1,1.4-0.2,2-0.3c1.1-0.1,2.2,0.1,3.1,0.8c0.9,0.6,1.5,1.6,1.9,2.6c0.2,0.8,0.2,1.5,0.2,2.4c0,0.9,0,1.6,0,2.5
							c0,2.5,0,5,0,7.5c0,1.9,0,3.8,0,5.6c0,0.9-0.1,1.9-0.4,2.8c-0.6,1.8-2,3.2-3.8,3.9c-0.5,0.2-1.1,0.4-1.8,0.4
							c-0.3,0.1-0.7,0.1-1,0.1c-0.3,0-0.5,0.1-0.8,0.1c-0.8,0.1-1.5,0.1-2.2-0.1c-1-0.2-1.9-0.9-2.5-1.8c-0.8-1-0.9-2.2-0.9-3.5
							c0-0.8,0-1.4,0-2.1c0-2.5,0-4.9,0-7.3c0-2.1,0-4.1,0-6.2c0-0.6,0-1.2,0.1-1.8c0.2-1.9,1.4-3.6,2.9-4.6
							C87,23.3,87.9,22.9,88.8,22.8z"/>
						<path fill="none" stroke="#000000" stroke-width="0.2" stroke-miterlimit="10" d="M24,62c0.9-0.1,1.8-0.2,2.6-0.4
							c0.6-0.1,1.2-0.1,1.9-0.2c0.2,0,0.5,0,0.8-0.1c0.2-0.1,0.4-0.4,0.5-0.5c0.1-0.2,0.4-0.5,0.5-0.8c0.1-0.2,0.2-0.5,0.4-0.6
							c0.1-0.1,0.1-0.1,0.1-0.2c0-0.1,0-0.2-0.1-0.2c-0.1-0.1-0.4,0-0.5,0c-0.2,0-0.5-0.1-0.6-0.4c-0.2-0.2-0.2-0.8-0.2-1
							c0.1-0.5,0.1-1.1,0.2-1.6c0-0.2,0.1-0.5,0.1-0.8V55c0-0.1,0.2-0.1,0.2-0.2c0.1-0.1,0.2-0.2,0.5-0.4c0.9-0.6,1.8-1.2,2.6-1.9
							c0.2,1.4,0.4,2.9,0.6,4.2c0.1,0.4,0.1,0.8,0.1,1.1c0,0.1,0.1,0.4,0.1,0.5c0,0-0.1,0-0.1,0.1c-0.1,0.1-0.1,0.1-0.1,0.1
							c-0.1,0.1-0.2,0.4-0.4,0.5c-0.2,0.4-0.5,0.8-0.8,1c-0.1,0.1-0.2,0.4-0.2,0.5c0,0.1,0.1,0.2,0.2,0.2h0.1c1.5-0.2,3-0.4,4.5-0.6
							c0.9-0.1,1.6-0.2,2.5-0.4c0.2,0,0.4-0.1,0.6-0.1c0.4,0,0.5-0.5,0.8-0.8c0.2-0.4,0.5-0.8,0.8-1c0.1-0.1,0.2-0.2,0.2-0.4
							c0-0.1-0.1-0.4-0.2-0.4c-0.1,0-0.2,0-0.4,0c-0.1,0-0.4-0.1-0.5-0.1c-0.4-0.1-0.6-0.4-0.8-0.8c-0.1-0.4-0.2-0.8-0.2-1.1
							c-0.1-0.5-0.1-0.9-0.2-1.4c0-0.1,0-0.1,0-0.2c1,0,1.6-0.9,2.1-1.6c0.2-0.4,0.5-0.9,0.9-1.2c0.4-0.5,0.6-1,0.8-1.6
							c0.2-1,0-2.1-0.8-3c-0.8-0.9-1.9-1.1-3-1.2c-0.4,0-0.6,0-1,0c-0.1,0-0.2,0.1-0.4,0c0,0,0,0,0-0.1c-0.1-0.2-0.1-0.5-0.1-0.8
							c-0.1-1-0.4-2.1-0.5-3.2c-0.4-2.5-0.8-4.9-1.1-7.4c0-0.2-0.1-0.5-0.1-0.8v-0.1l0.1-0.1c0-0.1,0.1-0.1,0.1-0.1
							c0.1-0.1,0.1-0.2,0.2-0.4c0.1-0.2,0.4-0.5,0.5-0.8c0.1-0.1,0.1-0.2,0.2-0.2c0.1-0.1,0.1-0.1,0.2-0.2c0.1-0.2-0.1-0.5-0.4-0.4
							h-0.1c-0.4,0-0.8,0.1-1.1,0.1c-2.4,0.4-4.6,0.6-7,1c-0.1,0-0.1,0-0.2,0c-0.1,0-0.1,0.1-0.2,0.1c-0.1,0.1-0.1,0.2-0.1,0.2
							c-0.1,0.1-0.2,0.2-0.2,0.4c-0.1,0.2-0.2,0.4-0.5,0.6c-0.1,0.2-0.5,0.5-0.4,0.8c0,0.2,0.4,0.2,0.5,0.2c0.2,0,0.5,0.1,0.6,0.2
							c0.5,0.5,0.2,1.1,0.2,1.8c-0.2,1.8-0.5,3.5-0.8,5.4c-0.4,2.6-0.8,5.4-1.1,8c-0.4,2.4-0.8,4.8-1,7.2c-0.1,0.8-0.2,1.5-0.4,2.3
							c0,0.2,0,0.4-0.1,0.5v0.1c0,0.1-0.2,0.1-0.4,0.1c-0.1,0-0.3,0-0.4,0.1c-0.1,0.1-0.1,0.1-0.1,0.2c-0.1,0.1-0.1,0.2-0.2,0.4
							c-0.1,0.2-0.2,0.4-0.5,0.6c-0.1,0.2-0.4,0.5-0.5,0.8C23.6,61.8,23.7,62.2,24,62z"/>
						<path fill="none" stroke="#000000" stroke-width="0.2" stroke-miterlimit="10" d="M33.9,58.7C33.9,58.7,33.9,58.7,33.9,58.7
							c1-0.1,1.6-1.3,1.5-2.1c-0.1-0.4-0.1-0.9-0.2-1.2c-0.2-1.2-0.4-2.5-0.5-3.8c-0.1-0.5-0.1-0.9-0.2-1.4c-0.9,0.6-1.8,1.2-2.6,2
							c-0.5,0.4-1,0.8-1.6,1.1c-0.1,0.1-0.2,0.1-0.4,0.2c-0.1,0.1-0.2,0.1-0.4,0.2v0.1C29.2,55,29,56,28.9,57.2
							c-0.1,0.4-0.1,0.9,0,1.2c0.2,0.6,0.8,1,1.5,0.9c-1.4,0.2-2.6,0.4-4,0.5c-0.4,0.1-0.9,0.1-1.2,0.2c1.2-0.4,2-1.4,2.2-2.4
							c0.2-1.8,0.5-3.4,0.8-5.1c0.1-1,0.2-2.1,0.5-3.1c0.4-2.2,0.6-4.6,1-6.9c0.2-2.1,0.6-4.1,0.9-6.3c0.1-0.5,0.1-0.9,0.2-1.4
							c0-0.2,0.1-0.5,0.1-0.6c0.1-0.6,0.2-1.4-0.2-2c-0.2-0.3-0.5-0.4-0.9-0.4"/>
						<path fill="none" stroke="#000000" stroke-width="0.2" stroke-miterlimit="10" d="M41.4,57.6c-0.8,0.1-1.6,0.2-2.5,0.4
							c-1.1,0.1-2.2,0.4-3.4,0.5c-0.6,0.1-1.2,0.1-1.7,0.2"/>
						<path fill="none" stroke="#000000" stroke-width="0.2" stroke-miterlimit="10" d="M41.4,57.6c0.1,0,0.1,0,0.2,0
							C41.5,57.5,41.5,57.6,41.4,57.6z"/>
						<path fill="none" stroke="#000000" stroke-width="0.2" stroke-miterlimit="10" d="M29.7,31.9c1-0.1,2-0.3,3-0.5
							c1.1-0.1,2.1-0.4,3.2-0.5c0.6-0.1,1.2-0.1,1.8-0.2c-1,0.1-1.6,1.1-1.5,2.1c0,0.4,0.1,0.9,0.2,1.2c0.1,0.6,0.1,1.1,0.2,1.8
							c0.4,2.5,0.8,5.1,1.1,7.6c0.1,0.8,0.2,1.4,0.2,2c0.9-0.1,1.9-0.2,2.8,0c1.1,0.4,2,1.1,2.4,2.2c0.2,1-0.1,2.1-0.9,3
							c-0.2,0.4-0.8,0.6-1.1,0.8c-0.2,0.1-0.5,0.1-0.8,0c-0.1,0-0.6-0.1-0.6-0.2c0,0,0.5-0.1,0.6-0.2c0.2-0.1,0.6-0.4,0.8-0.6
							c0.2-0.4,0.4-1,0.1-1.5c0-0.1-0.1-0.2-0.2-0.2c-0.2-0.1-0.4-0.2-0.8-0.2c-0.5-0.1-1-0.1-1.5,0c-0.1,0-0.4,0-0.5,0.1v0.1
							c0,0.2,0.1,0.5,0.1,0.8c0.1,0.8,0.2,1.6,0.4,2.4c0.1,1.1,0.4,2.2,0.5,3.4c0.1,0.4,0.1,0.9,0.2,1.2c0.2,0.7,1,1.3,1.8,1.3"/>
						<path fill="none" stroke="#000000" stroke-width="0.2" stroke-miterlimit="10" d="M29.7,31.9c-0.1,0-0.2,0-0.3,0
							C29.5,31.9,29.6,31.9,29.7,31.9z"/>
						<path fill="none" stroke="#000000" stroke-width="0.2" stroke-miterlimit="10" d="M29.7,31.9C29.7,31.9,29.7,31.9,29.7,31.9"
							/>
						<polyline fill="none" stroke="#000000" stroke-width="0.2" stroke-miterlimit="10" points="32.2,48.4 32.2,48.5 32,48.7 
													"/>
						<path fill="none" stroke="#000000" stroke-width="0.2" stroke-miterlimit="10" d="M32.2,48.5C32.2,48.5,32.2,48.4,32.2,48.5
							C32.2,48.4,32.2,48.4,32.2,48.5c0.3-0.3,0.6-0.6,1-0.8c0.1-0.1,0.1-0.1,0.2-0.2c0.1-0.1,0.2-0.1,0.4-0.2
							c0.1,0,0.2-0.1,0.4-0.2c0-0.1,0-0.4-0.1-0.4c-0.1-0.9-0.2-1.8-0.4-2.6c-0.4-2.4-0.8-4.9-1.1-7.2c-0.1-0.6-0.1-1.2-0.2-1.8
							c-0.1,0.5-0.1,1-0.2,1.5c-0.1,1.2-0.4,2.5-0.5,3.8c-0.2,1.5-0.4,3-0.6,4.5c-0.2,1.2-0.4,2.6-0.5,3.9c-0.1,0.4-0.1,0.9-0.2,1.2
							c0,0.1,0,0.2-0.1,0.4c0,0,0,0.1,0,0.2c0.6-0.4,1.2-0.9,2-1.7c0,0,0,0,0,0L32.2,48.5"/>
						<path fill="none" stroke="#000000" stroke-width="0.2" stroke-miterlimit="10" d="M31.5,42.4c0.1,0.9,0.2,1.6,0.4,2.5
							c0.1,0.6,0.2,1.2,0.2,1.9c0,0.2,0.1,0.5,0.1,0.8c0,0.1,0.1,0.2,0.1,0.4c0,0.1,0,0,0,0.1c-0.1,0.1-0.4,0.2-0.5,0.4
							c-0.5,0.4-0.9,0.9-1.4,1.2c0.1-0.9,0.2-1.6,0.4-2.5c0.2-1.4,0.4-2.6,0.5-4C31.4,42.9,31.5,42.7,31.5,42.4z"/>
						<path fill="none" stroke="#000000" stroke-width="0.2" stroke-miterlimit="10" d="M53.8,54c0.1,0,0.2,0,0.3,0
							c0.4-0.1,0.9-0.2,1.2-0.5c0.2-0.4,0.6-1,0.6-1.8c0-0.9,0-1.9,0-2.8c0-2,0-4.1,0-6.1c0-2.2,0-4.5,0-6.6c0-1.4,0-2.8,0-4.2
							c0-0.7-0.1-1.4-0.8-1.9C54.8,30,54.4,29.9,54,30c-0.1,0-0.2,0-0.3,0.1c-0.5,0.1-1,0.1-1.5,0.2c-0.1,0-0.1,0-0.1,0.1
							c0,0.2,0,0.5,0,0.8s0,0.4,0,0.6c0,0.4,0,0.7,0,1c0,1.6,0,3.4,0,5c0,2.3,0,4.5,0,6.8c0,2,0,3.9,0,5.9c0,0.9,0,1.6,0,2.5
							c0,0.5,0,0.9,0,1.4C52.6,54.2,53.2,54.1,53.8,54z"/>
						<path fill="none" stroke="#000000" stroke-width="0.2" stroke-miterlimit="10" d="M54.4,53.7c-0.4,0.1-0.8,0.1-1.1,0.2
							c-0.4,0-0.6,0.1-1,0.1c0-0.8,0-1.5,0-2.1c0-1.8,0-3.5,0-5.2c0-2.1,0-4.2,0-6.4c0-1.8,0-3.6,0-5.4c0-0.6,0-1.1,0-1.8
							c0-0.1,0-0.4,0-0.5c0-0.1,0-0.2,0-0.2s0,0,0.1,0c0.1-0.1,0.4-0.1,0.6-0.1c0.8-0.1,1.2,0.4,1.5,1.1c0.1,0.2,0,0.6,0,0.9
							c0,1.4,0,2.8,0,4.1c0,2,0,4,0,6.1c0,2,0,3.9,0,5.9c0,1.1,0,2.2,0,3.2C54.4,53.5,54.4,53.5,54.4,53.7z"/>
						<path fill="none" stroke="#000000" stroke-width="0.2" stroke-miterlimit="10" d="M60.6,32.5c-0.3-1-0.8-1.9-1.5-2.7
							c-0.9-1-2.1-1.6-3.4-1.9c-0.8-0.1-1.5-0.1-2.4,0c-1.2,0.1-2.5,0.4-3.9,0.5c-1.2,0.1-2.5,0.4-3.9,0.5c-0.1,0-0.2,0-0.2,0
							c-0.1,0-0.1,0.1-0.2,0.2c-0.1,0.1-0.2,0.2-0.2,0.4c-0.2,0.2-0.4,0.6-0.6,0.9c-0.1,0.2-0.5,0.5-0.4,0.9
							c0.1,0.2,0.5,0.1,0.8,0.1c0.5,0.1,0.9,0.5,1,1c0.1,0.5,0,1,0,1.5c0,1,0,2.1,0,3.1c0,1.5,0,3,0,4.4c0,1.6,0,3.2,0,4.9
							c0,1.5,0,3.1,0,4.6c0,1.2,0,2.4,0,3.5c0,0.4,0,0.8,0,1.1c0,0.1,0,0.4,0,0.6c0,0.1,0,0.1-0.2,0.1c-0.1,0-0.2,0.1-0.2,0.2
							c-0.1,0.1-0.1,0.2-0.2,0.4c0.4,0.5,0.1,0.8,0,1c0,0,0,0.1,0,0.1"/>
						<path fill="none" stroke="#000000" stroke-width="0.2" stroke-miterlimit="10" d="M59.1,52.9c0.3-0.4,0.6-0.8,0.9-1.2
							c0.6-1.2,1-2.6,1-4c0-0.2,0-0.5,0-0.8c0-1.2,0-2.4,0-3.6c0-1.6,0-3.2,0-4.9c0-1.1,0-2.2,0-3.4c0-0.7-0.1-1.4-0.2-2"/>
						<path fill="none" stroke="#000000" stroke-width="0.2" stroke-miterlimit="10" d="M44.9,57.9c-0.1,0.1-0.2,0.2-0.2,0.4
							c-0.1,0.1-0.2,0.2-0.2,0.5c0,0.1,0.1,0.2,0.2,0.2c0.1,0,0.2,0,0.4,0c0.5-0.1,1.1-0.1,1.6-0.2c1.5-0.2,3-0.4,4.5-0.6
							c1.2-0.1,2.5-0.4,3.8-0.9c1.1-0.5,2.1-1.4,2.9-2.4c0.4-0.5,0.8-1.1,1.1-1.6c0.1-0.1,0.2-0.2,0.2-0.3"/>
						<path fill="none" stroke="#000000" stroke-width="0.2" stroke-miterlimit="10" d="M47.5,55.8c0,0.1,0,0.1,0.2-0.2
							c0.2-0.6,0.1-1.5,0.1-2.1c0-0.4,0-0.9,0-1.4c0-1.9,0-3.8,0-5.8c0-2.4,0-4.9,0-7.3c0-1.9,0-3.8,0-5.5c0-0.4,0-0.8,0-1.1
							c0-0.9,0.1-1.9-0.5-2.6c-0.3-0.3-0.6-0.4-0.9-0.4"/>
						<path fill="none" stroke="#000000" stroke-width="0.2" stroke-miterlimit="10" d="M47.5,55.8c0-0.1,0.1-0.1,0.1-0.2
							C47.6,55.4,47.5,55.6,47.5,55.8"/>
						<path fill="none" stroke="#000000" stroke-width="0.2" stroke-miterlimit="10" d="M47.5,55.8C47.5,55.8,47.5,55.8,47.5,55.8"
							/>
						<path fill="none" stroke="#000000" stroke-width="0.2" stroke-miterlimit="10" d="M46.3,29.4c0.9-0.1,1.8-0.2,2.7-0.3
							c1-0.1,2-0.2,3.1-0.4c0.6-0.1,1.2-0.2,1.8-0.3c0.8-0.1,1.7-0.1,2.5,0c1.2,0.2,2.4,1,3.1,2c0.5,0.6,0.9,1.4,1.1,2.1
							c0,0.1,0.1,0.3,0.1,0.5c0.1,0.3,0.2,0.6,0.2,0.9c0.1,0.8,0.1,1.6,0.1,2.4c0,1.4,0,2.6,0,4c0,1.5,0,2.9,0,4.4
							c0,0.9,0,1.8,0,2.6c0,1.6-0.4,3.2-1.2,4.6c-0.2,0.3-0.5,0.7-0.7,1c0,0,0,0,0,0.1c-1,1.3-2.4,2.3-4.1,2.7
							c-0.4,0.1-0.8,0.1-1.1,0.2H54c-0.9,0.1-1.8,0.2-2.6,0.4c-1.1,0.1-2.2,0.4-3.4,0.5c-0.6,0.1-1.2,0.1-1.8,0.2
							c0.3-0.2,0.8-0.7,1.2-1.3"/>
						<path fill="none" stroke="#000000" stroke-width="0.2" stroke-miterlimit="10" d="M46.3,29.4c-0.1,0-0.2,0-0.3,0
							C46.1,29.4,46.2,29.4,46.3,29.4z"/>
						<path fill="none" stroke="#000000" stroke-width="0.2" stroke-miterlimit="10" d="M80.6,41.2C80.5,41.2,80.6,41.3,80.6,41.2
							L80.6,41.2z"/>
						<path fill="none" stroke="#000000" stroke-width="0.2" stroke-miterlimit="10" d="M76.8,46.4C76.8,46.4,76.8,46.3,76.8,46.4
							c0.1-0.2,0.1-0.3,0.1-0.4c0.1-0.2,0.1-0.3,0.2-0.5c0.1-0.2,0.2-0.4,0.2-0.6c0.1-0.1,0.1-0.2,0.2-0.2c0.1-0.1,0.2-0.2,0.3-0.2
							c0.2-0.1,0.4-0.4,0.6-0.5c0.1-0.1,0.5-0.2,0.6-0.4c0.1-0.1,0.1-0.2,0.2-0.4c0.1-0.2,0.2-0.4,0.4-0.6c0.1-0.2,0.2-0.4,0.4-0.5
							c0.1-0.1,0.1-0.2,0.2-0.2c0.4-0.2,0.5-0.4,0.4-0.6"/>
						<path fill="none" stroke="#000000" stroke-width="0.2" stroke-miterlimit="10" d="M76.6,50.2c-0.1-0.2-0.1-0.5-0.2-0.7
							c-0.1-0.9,0-1.9,0.2-2.9"/>
						<path fill="none" stroke="#000000" stroke-width="0.2" stroke-miterlimit="10" d="M77.4,51.6c-0.1-0.1-0.2-0.2-0.3-0.4
							c-0.2-0.3-0.3-0.6-0.4-0.9"/>
						<path fill="none" stroke="#000000" stroke-width="0.2" stroke-miterlimit="10" d="M64.7,53.9c-0.1,0.1-0.2,0-0.2,0.1
							c-0.1,0-0.1,0.1-0.2,0.2c-0.1,0.4-0.5,0.8-0.7,1.1c-0.1,0.2-0.8,0.9-0.4,1.1c0.1,0,0.1,0,0.2,0c1.4-0.1,2.8-0.4,4.3-0.6
							c2.2-0.4,4.4-0.6,6.6-1c0.8-0.1,1.5-0.2,2.2-0.4c0.3,0,0.4,0,0.5-0.1h0.1c0.1,0,0.2-0.1,0.2-0.2c0.1-0.2,0.2-0.4,0.4-0.6
							c0.1-0.2,0.2-0.4,0.4-0.6c0.1-0.1,0.1-0.1,0.2-0.2c0.1-0.1,0.1-0.1,0.2-0.2c0.1-0.1,0-0.4-0.1-0.5c-0.1,0-0.1,0-0.2,0
							c-0.1,0-0.2,0-0.4,0c-0.2,0-0.3-0.1-0.4-0.2"/>
						<path fill="none" stroke="#000000" stroke-width="0.2" stroke-miterlimit="10" d="M79.8,41.2c-0.2,0.1-0.4,0.1-0.6,0.2
							c-0.5,0.2-0.9,0.4-1.4,0.6c-0.9,0.5-1.6,1-2.2,1.8c-0.4,0.4-0.8,0.8-1,1.1c-0.2,0.4-0.5,0.9-0.9,1.2c-0.4,0.5-0.6,0.9-1,1.4
							c-0.8,1-1,2.4-1.4,3.5c-0.5-0.1-0.4-0.6-0.4-1c0-0.5,0-1.1,0-1.6c0-1.9,0-3.8,0-5.6c0-2.2,0-4.5,0-6.9c0-1.9,0-3.9,0-5.8
							c0-0.6,0-1.1,0-1.8c0-0.1,0-0.2,0-0.5s0-0.1,0.2-0.2c0.2-0.1,0.2-0.4,0.4-0.5c0.1-0.2,0.2-0.4,0.4-0.6
							c0.1-0.2,0.2-0.4,0.4-0.5c0.1-0.1,0.4-0.2,0.2-0.5c-0.1-0.1-0.1-0.2-0.2-0.2c-0.1-0.1-0.3,0-0.4,0c-0.9,0.1-1.6,0.2-2.5,0.4
							c-1.1,0.1-2.2,0.4-3.2,0.5c-0.6,0.1-1.2,0.1-1.8,0.2c-0.1,0-0.1,0-0.2,0.1c-0.1,0.1-0.1,0.1-0.1,0.2C64,26.9,64,27,63.9,27.2
							c-0.2,0.4-0.5,0.9-0.9,1.2c-0.1,0.1-0.1,0.1-0.1,0.2c0,0,0,0,0,0.1c0,0.1,0,0.1,0.1,0.2c0,0,0,0,0.1,0h0.1c0.4,0,0.8,0,1,0.2
							c0.4,0.2,0.5,0.8,0.5,1.1c0,0.2,0,0.4,0,0.6c0,1.5,0,2.9,0,4.4c0,2.1,0,4.4,0,6.6s0,4.4,0,6.6c0,1.5,0,3,0,4.5
							c0,0.1,0,0.4,0,0.5v0.2l0.1,0"/>
						<path fill="none" stroke="#000000" stroke-width="0.2" stroke-miterlimit="10" d="M80.6,41.2c-0.1-0.2-0.2-0.2-0.4-0.1
							c0,0,0,0,0,0"/>
						<path fill="none" stroke="#000000" stroke-width="0.2" stroke-miterlimit="10" d="M78.2,43.4c0,0-0.1,0.1-0.1,0.1"/>
						<path fill="none" stroke="#000000" stroke-width="0.2" stroke-miterlimit="10" d="M78.3,43.3C78.3,43.3,78.3,43.3,78.3,43.3
							L78.3,43.3"/>
						<path fill="none" stroke="#000000" stroke-width="0.2" stroke-miterlimit="10" d="M77.7,44C77.7,44,77.8,44,77.7,44
							c0.1-0.1,0.4-0.6,0.5-0.6"/>
						<path fill="none" stroke="#000000" stroke-width="0.2" stroke-miterlimit="10" d="M72.5,25.3C72.5,25.3,72.4,25.3,72.5,25.3
							c-0.1,0-0.2,0-0.2,0c-0.9,0.2-1.5,1.3-1.5,2.2c0,0.4,0,0.9,0,1.2c0,0.9,0,1.9,0,2.8c0,1.5,0,2.9,0,4.4c0,0.8,0,1.5,0,2.2
							c0,1.1,0,2.2,0,3.4c0,0.6,0,1.4,0,2c0,1.2,0,2.5,0,3.8c0,1,0,2,0,3c0,0.5,0.2,0.9,0.8,0.9c0.4,0.1,0.8-0.2,1-0.6
							c0.2-0.4,0.4-0.9,0.5-1.4c0.1-0.6,0.2-1.1,0.5-1.8c0.8-2.5,2.8-4.5,5-5.6c0.5-0.2,0.9-0.4,1.3-0.6c0.1-0.1,0.2-0.1,0.4-0.2
							c0,0,0,0,0,0c0,0,0,0,0,0c-0.7,0.8-1.4,1.5-2,2.3c0,0,0,0,0,0c0,0-0.1,0.1-0.1,0.1c0,0,0,0,0,0c-0.2,0.2-0.3,0.4-0.4,0.4"/>
						<path fill="none" stroke="#000000" stroke-width="0.2" stroke-miterlimit="10" d="M78.6,52.2c-0.1,0-0.1,0-0.2,0
							c-1.8,0.2-3.7,0.5-5.5,0.7c-1.8,0.2-3.5,0.5-5.2,0.8c-1,0.1-1.9,0.2-2.9,0.4c0.9-0.1,1.6-1,1.8-1.9c0.1-0.5,0-1,0-1.6
							c0-0.4,0-0.9,0-1.2c0-2.4,0-4.6,0-7c0-1.4,0-2.8,0-4.1c0-2,0-4.1,0-6.1c0-0.9,0-1.7,0-2.5c0-0.9,0.1-2-0.5-2.6
							c-0.4-0.4-0.9-0.5-1.4-0.5c0.9-0.1,1.8-0.2,2.6-0.4c1.1-0.1,2.2-0.4,3.4-0.5c0.5-0.1,1.1-0.1,1.5-0.2c0.1,0,0.1,0,0.2,0"/>
						<path fill="none" stroke="#000000" stroke-width="0.2" stroke-miterlimit="10" d="M78.1,43.5c-0.2,0.4-0.5,0.7-0.7,1.1
							c-0.2,0.3-0.3,0.6-0.4,0.9c-0.1,0.2-0.1,0.3-0.2,0.5c0,0.1-0.1,0.2-0.1,0.3c0,0,0,0.1,0,0.1c0,0.1,0,0.2-0.1,0.3
							c0,0.2-0.1,0.3-0.1,0.5c-0.1,0.8-0.1,1.4-0.1,2.1c0.1,0.3,0.1,0.6,0.2,1c0,0,0,0,0,0c0.1,0.3,0.1,0.6,0.3,0.9c0,0,0,0,0.1,0.1
							c0.1,0.1,0.2,0.3,0.3,0.4c0,0,0,0,0.1,0c0.3,0.3,0.6,0.5,1,0.5"/>
						<path fill="none" stroke="#000000" stroke-width="0.2" stroke-miterlimit="10" d="M27.5,21.8C27.6,21.8,27.6,21.8,27.5,21.8
							c0.2-0.2,0.3-0.2,0.3-0.3c0.1-0.1,0.2-0.1,0.2-0.1c0.4-0.2,0-0.8-0.4-0.8h-0.1c-0.2,0-0.5,0.1-0.8,0.1
							C26,20.9,25,21,24.1,21.1c-2.1,0.2-4.2,0.6-6.4,0.9c-0.4,0.1-1.4,0-1.2,0.8c-0.1,0-0.2,0.2-0.2,0.2c-0.1,0.1-0.2,0.2-0.4,0.4
							c-0.2,0.2-0.8,0.5-0.4,0.9c0.1,0.1,0.4,0.1,0.5,0.1c0.2,0,0.5,0,0.6,0.1c0.6,0.4,0.4,1.4,0.2,2c-0.1,0.4-0.2,0.9-0.4,1.2
							c-0.1,0.4-0.6,1.9-1.2,1.1c-0.2-0.2-0.4-0.5-0.4-0.8c-0.1-0.5-0.4-0.9-0.5-1.4c-0.1-0.4-0.2-0.8-0.4-1.2
							c0-0.1-0.1-0.2-0.1-0.4c0-0.1,0-0.2-0.1-0.4v-0.1h0.1c0.2-0.1,0.2-0.2,0.4-0.5c0.1-0.1,0.2-0.2,0.2-0.4c0,0,0-0.1,0-0.1
							c0-0.1,0.1-0.1,0.1-0.2c0.1-0.1,0.3-0.2,0.4-0.3c0.1-0.1,0.2-0.2,0.2-0.5s-0.2-0.4-0.5-0.4c-0.1,0-0.2,0-0.4,0
							c-2,0.3-3.9,0.5-5.9,0.9c-1,0.1-2.1,0.2-3.1,0.5C5,23.9,4.5,23.9,4,24c-0.2,0-0.5,0.2-0.4,0.5c-0.1,0-0.2,0.2-0.4,0.4
							C3.1,25,3,25.2,2.8,25.3c-0.1,0.1-0.4,0.2-0.4,0.4c-0.1,0.2,0,0.5,0.2,0.5c0.1,0,0.2,0,0.2,0c0.1,0,0.2,0,0.2,0
							c0.1,0,0.2,0,0.2,0C4,27,4.1,27,4.1,27c0.1,0,0.4,0.1,0.5,0.1c0.2,0.1,0.4,0.2,0.6,0.4c0.4,0.2,0.6,0.6,0.9,1
							c0.2,0.4,0.4,0.9,0.5,1.4c0.2,0.6,0.5,1.4,0.8,2C8,33.5,8.5,35,9,36.7c0.5,1.5,0.9,3,1.2,4.6c0.4,1.6,0.8,3.1,1,4.6
							c0.1,0.4,0.1,0.8,0.2,1.1c0,0.2,0.1,0.5,0.1,0.9c0,0.6,0,1.4,0,2c0,2.2,0,4.4,0,6.6c0,0.6,0,1.2,0,2c0,0.5,0,0.9-0.1,1.4
							c0,0.4-0.1,0.9-0.2,1.4c-0.1,0.1-0.1,0.2-0.2,0.4c0,0.1-0.1,0.1-0.1,0.1c-0.1,0.1-0.1,0.1-0.2,0.2c-0.1,0.1-0.1,0-0.2,0.1
							c-0.1,0.1-0.1,0.2-0.2,0.4c0,0.1-0.1,0.1-0.2,0.2c-0.1,0.1-0.1,0.2-0.2,0.4c-0.2,0.2-0.6,0.4-0.8,0.8c0,0.2,0.1,0.5,0.4,0.5
							c0.5,0,1-0.1,1.6-0.2c2.2-0.4,4.4-0.6,6.6-1c0.8-0.1,1.5-0.2,2.2-0.4c0.1,0,0.4,0,0.5-0.1c0.1-0.1,0.2-0.4,0.4-0.5
							c0.1-0.1,0.1-0.2,0.2-0.4c0.1-0.1,0.1-0.1,0.1-0.2c0.1-0.1,0.1-0.1,0.1-0.2c0.1-0.1,0.2-0.1,0.4-0.2c0.1,0,0.1-0.1,0.1-0.2
							c0,0,0,0,0,0"/>
						<path fill="none" stroke="#000000" stroke-width="0.2" stroke-miterlimit="10" d="M27.5,21.9C27.5,21.9,27.5,21.9,27.5,21.9"
							/>
						<path fill="none" stroke="#000000" stroke-width="0.2" stroke-miterlimit="10" d="M21.5,34.7c0.3-1.1,0.5-2.2,0.9-3.3
							c0.5-1.6,1-3.2,1.5-4.8c0.1-0.2,0.2-0.6,0.2-0.9c0.1-0.2,0.1-0.5,0.2-0.8v-0.1h0.1l0.1-0.1c0,0,0,0,0,0
							c0.1-0.1,0.1-0.1,0.2-0.2c0.1-0.1,0.3-0.2,0.4-0.4c0,0,0,0,0.1-0.1l0.1-0.1c0.1-0.1,0.1-0.1,0.2-0.2h0.1c0,0,0,0,0-0.1
							c0,0,0-0.1,0.1-0.1c0.1-0.1,0.1-0.1,0.2-0.2c0.1-0.1,0.5-0.1,0.6-0.2c0.1-0.1,0.2-0.4,0.2-0.5c0.1-0.1,0.1-0.2,0.2-0.4
							c0-0.1,0.1-0.1,0.1-0.1"/>
						<path fill="none" stroke="#000000" stroke-width="0.2" stroke-miterlimit="10" d="M21.6,60.8c0-0.1,0-0.2-0.1-0.4
							c-0.1-0.2-0.4-0.1-0.5-0.1c-0.2,0-0.5,0-0.6-0.1c-0.4-0.1-0.8-0.4-0.9-0.9c-0.1-0.2-0.1-0.6-0.1-1c-0.1-0.8-0.1-1.4-0.1-2.1
							c0-2.1,0-4.2,0-6.5c0-1,0-1.9,0-2.9c0-0.5,0-0.9,0.1-1.4c0.2-1.5,0.5-3.1,0.8-4.6c0.2-1.5,0.6-3.1,1-4.6
							c0.1-0.5,0.2-0.9,0.3-1.4"/>
						<path fill="none" stroke="#000000" stroke-width="0.2" stroke-miterlimit="10" d="M12.5,59.4c0-0.8,0-1.5,0-2.1
							c0-1.1,0-2.1,0-3.2c0-1.6,0-3.2,0-4.9c0-1.5,0-3,0-4.5c0-0.5,0-1,0-1.5c0-0.2,0-0.5,0-0.8c0-0.1,0-0.2-0.1-0.2
							c-0.1-0.4-0.2-0.8-0.4-1.1c-0.5-1.4-1-2.6-1.5-4c-0.5-1.5-1.1-3-1.6-4.5c-0.4-1-0.8-2-1.1-3c-0.1-0.1-0.1-0.4-0.2-0.5
							c-0.2-0.6-0.5-1.4-0.9-2c-0.4-0.5-0.9-0.9-1.4-1.2c1.1,0.2,1.9,1.1,2.2,2.1c0.2,0.5,0.4,1,0.6,1.4C8.4,30,8.7,30.9,9,31.7
							c0.5,1.5,1.1,3,1.6,4.5s1,2.9,1.6,4.4c0.1,0.5,0.4,0.9,0.5,1.4c0,0.1,0.1,0.2,0.1,0.4c0,0.2,0,0.4,0,0.6c0,0.5,0,1,0,1.5
							c0,1.5,0,3,0,4.4c0,1.8,0,3.4,0,5.1c0,1.4,0,2.8,0,4.1c0,0.8,0.1,1.6-0.2,2.4c-0.2,0.5-0.6,1-1.2,1.4
							C12.1,61,12.5,60.2,12.5,59.4z"/>
						<path fill="none" stroke="#000000" stroke-width="0.2" stroke-miterlimit="10" d="M17.7,25.8c0.2-0.8,0.4-1.6-0.2-2.1
							c1.6,0,0.6,2.4,0.4,3.2c-0.4,1.4-0.9,2.9-1.2,4.2c-0.1,0.4-0.2,0.8-0.4,1.1c0-0.1-0.1-0.2-0.1-0.2c0-0.1-0.1-0.2-0.1-0.2
							c0-0.1,0-0.1,0.1-0.2c0.1-0.4,0.2-0.9,0.4-1.2c0.4-1.2,0.8-2.4,1-3.5C17.6,26.4,17.7,26.2,17.7,25.8z"/>
						<path fill="none" stroke="#000000" stroke-width="0.2" stroke-miterlimit="10" d="M11,62.3C11,62.3,11,62.3,11,62.3
							c0.1,0,0.1,0,0.2,0c1.2-0.2,2.1-1.4,2.3-2.5c0.1-0.8,0-1.5,0-2.1c0-0.6,0-1.4,0-2c0-1.6,0-3.1,0-4.8c0-1.8,0-3.5,0-5.2
							c0-1.1,0-2.1,0-3.2c0-0.5-0.2-0.9-0.4-1.4c-0.5-1.4-1-2.8-1.5-4.3c-0.6-1.6-1.2-3.2-1.8-4.9c-0.4-1-0.8-1.9-1-2.9
							c-0.1-0.4-0.4-0.9-0.5-1.2c-0.1-0.4-0.2-0.6-0.4-1c-0.4-0.6-0.9-1-1.5-1.4C6,25.2,5.2,24.9,4.6,25c0.6-0.1,1.4-0.2,2.2-0.4
							c1.1-0.1,2.3-0.4,3.4-0.5c1-0.1,1.9-0.2,2.9-0.4c0.6-0.1,1.1-0.2,1.6-0.2c0.2,0,0.3,0,0.4,0c-0.2,0-0.4,0.1-0.6,0.2
							c-0.4,0.2-0.6,0.4-0.8,0.8c-0.2,0.5-0.2,1.2-0.1,1.9c0.1,0.5,0.2,0.9,0.5,1.4c0.5,1.5,1,3.1,1.6,4.6c0.1,0.5,0.4,1,0.5,1.5
							c0.4-1.2,0.8-2.5,1.1-3.9c0.4-1.4,0.9-2.9,1.2-4.2c0.1-0.5,0.2-1.1,0.1-1.6c-0.2-0.6-0.9-0.9-1.6-0.9c1.2-0.1,2.5-0.4,3.8-0.5
							c1.5-0.2,3.1-0.5,4.6-0.6c0.7-0.1,1.4-0.2,2.1-0.3l0,0c0.1,0,0.3,0,0.4-0.1c-0.2,0-0.3,0.1-0.5,0.1c0,0,0,0,0,0
							c-1.1,0.4-2.1,1.4-2.6,2.4c-0.1,0.2-0.1,0.3-0.2,0.5c-0.2,0.6-0.4,1.2-0.6,1.9c-0.2,0.6-0.4,1.4-0.6,2c-0.5,1.6-1,3.1-1.5,4.8
							c-0.1,0.4-0.3,0.9-0.4,1.3c0,0,0,0,0,0.1c-0.4,1.2-0.8,2.5-1.2,3.8c-0.2,0.9-0.6,1.9-0.9,2.8c0,0.1,0,0.2,0,0.4
							c0,0.5,0,0.9,0,1.4c0,0.8,0,1.6,0,2.4c0,0.8,0,1.7,0,2.5c0,1.8,0,3.6,0,5.4c0,1.1,0,2.1,0,3.2c0,0.4,0,0.8,0,1.1
							c0,0.2,0,0.4,0,0.6c0,0.1,0,0.2,0,0.4c0,0.6,0.2,1.2,0.8,1.6c0.4,0.3,0.9,0.5,1.5,0.5v0c0,0,0.1,0,0.1,0"/>
						<path fill="none" stroke="#000000" stroke-width="0.2" stroke-miterlimit="10" d="M21.6,60.8C21.6,60.8,21.6,60.8,21.6,60.8
							c-1.2,0.1-2.4,0.4-3.5,0.5c-1.5,0.2-3.1,0.5-4.6,0.6c-0.8,0.1-1.5,0.2-2.3,0.3c-0.1,0-0.1,0-0.2,0"/>
						<path fill="none" stroke="#000000" stroke-width="0.2" stroke-miterlimit="10" d="M21.6,60.8c0.1,0,0.1,0,0.2,0
							C21.8,60.8,21.7,60.8,21.6,60.8z"/>
					</g>
				</g>
			</g>
		</g>
	</g>
</g>
</svg>
